/* XPM */
static char *d_1[] = {
/* columns rows colors chars-per-pixel */
"37 37 22 1",
"  c #291A14",
". c #274014",
"X c #493624",
"o c #552E21",
"O c #56432D",
"+ c #4D6823",
"@ c #76663D",
"# c #64822D",
"$ c #7F9C37",
"% c #8B7E4B",
"& c #9A6146",
"* c #AB794F",
"= c #CC2921",
"- c #98AC3E",
"; c #B98856",
": c #BEC648",
"> c #CFA461",
", c #E5C168",
"< c #E5E5E8",
"1 c #F9F7E4",
"2 c gray100",
"3 c None",
/* pixels */
"3333333333333333333333333333333333333",
"3333333333333333333333333333333333333",
"33333333333333333.....333333333333333",
"3333333333333333.$---$.33333333333333",
"333333333333333.$-:::-$.3333333333333",
"33333333333333.$-:::::-$.333333333333",
"3333333333333.$-:::::::-$.33333333333",
"33333333333...$--:::::--$...333333333",
"3333333333.:-+#$--:-:--$#+-:.33333333",
"333333333.--$##+..-$-..+##$--.3333333",
"3333333333..#+###=.:.=###+#..33333333",
"333333333333..#$-$:::$-$#..3333333333",
"3333333333333.#$-.-:-.-$#.33333333333",
"3333333333333.#$1$...$1$#..3333333333",
"333333333333.+.#+.....+#.+#.333333333",
"33333333333.$#+.$-:::-$.+#$#.33333333",
"3333333333.:-##+.$###$.+#$--.33333333",
"333333333.:-$###+.....+#.#-:.33333333",
"333333333.-$+.#$#+++++#$#.::.33333333",
"33333333.:::-.$-$#+++#$..$-:.33333333",
"33333333.:..:..$--#+#-.::-$-.33333333",
"33333333..X .3.+##+++.-:::-.333333333",
"3333333o&O 3333  +#+#+.-:-.3333333333",
"333333o&ooo333< X     X...33333333333",
"33333o&o3333<<<. XO@OOO <<<3333333333",
"3333o&o3333<<<<.# @@@ @ <<<<333333333",
"333o**o3333<<<<.$# % + .<<<<333333333",
"33o*;>o333<<<<.--$. .+#$.<<<<33333333",
"3o*;,o3333<<<<.:--.<<...<<<<<33333333",
"ooooo33333<<<<<...<<<<<<<<<<<33333333",
"33333333333<<<<<<<<<<<<<<<<<333333333",
"33333333333<<<<<<<<<<<<<<<<<333333333",
"333333333333<<<<<<<<<<<<<<<3333333333",
"33333333333333<<<<<<<<<<<333333333333",
"3333333333333333333333333333333333333",
"3333333333333333333333333333333333333",
"3333333333333333333333333333333333333"
};
