/* XPM */
static char *d_2[] = {
/* columns rows colors chars-per-pixel */
"37 37 137 2",
"   c #2F2917",
".  c #2B3416",
"X  c #302017",
"o  c #34241A",
"O  c #332D19",
"+  c #3B2B1D",
"@  c #353119",
"#  c #3C311D",
"$  c #3F391D",
"%  c #3A3529",
"&  c #274014",
"*  c #2C4516",
"=  c #334D19",
"-  c #36501A",
";  c #3B551C",
":  c #3E591D",
">  c #324822",
",  c #403A1D",
"<  c #4E2C20",
"1  c #443422",
"2  c #493725",
"3  c #4B3927",
"4  c #513E2A",
"5  c #5A3525",
"6  c #5B382D",
"7  c #643B29",
"8  c #414F1D",
"9  c #43561E",
"0  c #425B1E",
"q  c #5D4E1E",
"w  c #444320",
"e  c #445F20",
"r  c #4F5223",
"t  c #495E20",
"y  c #465739",
"u  c #514129",
"i  c #59492C",
"p  c #5D4D30",
"a  c #4A6421",
"s  c #4E6923",
"d  c #526C25",
"f  c #536C2E",
"g  c #53653E",
"h  c #557226",
"j  c #577428",
"k  c #5C7227",
"l  c #5A7528",
"z  c #5D7A2A",
"x  c #6D412E",
"c  c #744C30",
"v  c #77553E",
"b  c #6B6025",
"n  c #64762A",
"m  c #607D2B",
"M  c #6A7B2B",
"N  c #607834",
"B  c #72623B",
"V  c #555D48",
"C  c #536146",
"Z  c #5A6A44",
"A  c #5A6751",
"S  c #7F5340",
"D  c #606E41",
"F  c #6E645B",
"G  c #6C6B58",
"H  c #6D7C63",
"J  c #64812C",
"K  c #6A852E",
"L  c #6D8037",
"P  c #6D8A30",
"I  c #708530",
"U  c #728B31",
"Y  c #75893F",
"T  c #798D32",
"R  c #749033",
"E  c #7A9434",
"W  c #7E9836",
"Q  c #74835A",
"!  c #7D8577",
"~  c #8A3A1E",
"^  c #904120",
"/  c #8E673E",
"(  c #876044",
")  c #8B7F7B",
"_  c #A3704B",
"`  c #AD7D50",
"'  c #808E3D",
"]  c #809334",
"[  c #839A36",
"{  c #859F38",
"}  c #8D9B38",
"|  c #928A34",
" . c #989C39",
".. c #86A039",
"X. c #8CA33A",
"o. c #92A23A",
"O. c #93A83C",
"+. c #9AA63B",
"@. c #9BAE3E",
"#. c #A4AF3F",
"$. c #80974C",
"%. c #81984D",
"&. c #8A9F55",
"*. c #8AA156",
"=. c #9EB040",
"-. c #ABB842",
";. c #B2BD44",
":. c #B5C046",
">. c #BAC346",
",. c #BEC648",
"<. c #C2945A",
"1. c #D1A760",
"2. c #929C8D",
"3. c #979492",
"4. c #969B92",
"5. c #999E93",
"6. c #A19996",
"7. c #A7ADA5",
"8. c #ACA7A7",
"9. c #ABADA6",
"0. c #ACB3A7",
"q. c #BCBDBA",
"w. c #BDC995",
"e. c #C0BCBD",
"r. c #C3C4C3",
"t. c #C8C6C5",
"y. c #CACCCA",
"u. c #CED0D0",
"i. c #D3D3D3",
"p. c #D9D9DA",
"a. c #DEDEE1",
"s. c #E1E1E3",
"d. c #E5E5E8",
"f. c #EDEDEE",
"g. c gray95",
"h. c #FEFEFE",
"j. c None",
/* pixels */
"j.j.j.j.j.j.j.j.j.j.j.j.j.j.j.j.j.j.j.j.j.j.j.j.j.j.j.j.j.j.j.j.j.j.j.j.j.",
"j.j.j.j.j.j.j.j.j.j.j.j.j.j.j.j.j.j.j.j.j.j.j.j.j.j.j.j.j.j.j.j.j.j.j.j.j.",
"j.j.j.j.j.j.j.j.j.j.j.j.j.j.j.j.j.j.j.j.j.j.j.j.j.j.j.j.j.j.j.j.j.j.j.j.j.",
"j.j.j.j.j.j.j.j.j.j.j.j.j.j.j.j.j.j.j.j.j.j.j.j.j.j.j.j.j.j.j.j.j.j.j.j.j.",
"j.j.j.j.j.j.j.j.j.j.j.j.j.j.j.j.j.j.j.j.j.j.j.j.j.j.j.j.j.j.j.j.j.j.j.j.j.",
"j.j.j.j.j.j.j.j.j.j.j.j.j.j.j.j.j.! C C V C C C y.j.j.j.j.j.j.j.j.j.j.j.j.",
"j.j.j.j.j.j.j.j.j.j.j.j.j.j.j.j.! N T o.+.+.[ P g y.j.j.j.j.j.j.j.j.j.j.j.",
"j.j.j.j.j.j.j.j.j.j.j.j.j.j.j.! N { -.,.,.,.>.@.E g y.j.j.j.j.j.j.j.j.j.j.",
"j.j.j.j.j.j.j.j.j.j.j.j.j.j.! N { -.>.,.,.,.,.:.@.R Z y.j.j.j.j.j.j.j.j.j.",
"j.j.j.j.j.j.j.j.j.j.j.j.! C > J O.=.:.,.,.,.,.-.@...: y C y.j.j.j.j.j.j.j.",
"j.j.j.j.j.j.j.j.j.j.j.! E [ s z W O.=.:.-.:.-.+.X.R s K o.D y.j.j.j.j.j.j.",
"j.j.j.j.j.j.j.j.j.j.! L O.X.K J l a 0 [ X.@.k 0 d z z W @.} g y.j.j.j.j.j.",
"j.j.j.j.j.j.j.j.j.j.i.Z e m j J z l ^ q o.k ~ b l J l z s : 5.f.j.j.j.j.j.",
"j.j.j.j.j.j.j.j.j.j.j.i.t.C = h R ..|  .;.#.| } W P : = * 4.f.j.j.j.j.j.j.",
"j.j.j.j.j.j.j.j.j.j.j.j.j.A . h E [ s [ >.-.h P W P - : d g y.j.j.j.j.j.j.",
"j.j.j.j.j.j.j.j.j.j.j.j.! f j : l w.&.s 0 0 z w.*.a : j U z g y.j.j.j.j.j.",
"j.j.j.j.j.j.j.j.j.j.j.! z R K l : Q z * . & - Q j d s ; R W : q.j.j.j.j.j.",
"j.j.j.j.j.j.j.j.j.j.! ' O...P J l e z z h h J a s J J - ..@.e q.j.j.j.j.j.",
"j.j.j.j.j.j.j.j.j.! ' @.X.[ a l R z e - - = ; d P P : s X.W ; q.j.j.j.j.j.",
"j.j.j.j.j.j.j.j.j.A W X.J e * m ..W J a 0 a s P X.s * P { s 2.f.j.j.j.j.j.",
"j.j.j.j.j.j.j.j.! ' -.;.+.0 2.Z U X.o.K d l W o.X.0 E #.@.0 q.j.j.j.j.j.j.",
"j.j.j.j.j.j.j.j.A o.M 0 +.a q.y.G 8 n l s d K r , 9.Q #.n 5.f.j.j.j.j.j.j.",
"j.j.j.j.j.j.j.j.A 9 w O 8 0.p.2.% + # O   @ @ # X r.i.Q 0.a.j.j.j.j.j.j.j.",
"j.j.j.j.j.j.j.) v i + 3.r.a.2.Q M , + 2 i u 3 u o V y.u.a.f.j.j.j.j.j.j.j.",
"j.j.j.j.j.j.) v 7 5 < e.d.d.H T =.U 1 p B B 1 p + . r.d.d.s.f.j.j.j.j.j.j.",
"j.j.j.j.j.) ( 7 6.t.t.p.d.d.H } ;.+.e O B u . O . 7.a.d.d.d.f.j.j.j.j.j.j.",
"j.j.j.j.) ( 7 6.f.j.j.a.d.d.i.Q t e 0.y.F 8.y.t.t.a.d.d.d.d.f.j.j.j.j.j.j.",
"j.j.j.) ( ` 7 e.j.j.j.g.s.d.d.i.t.y.a.d.i.a.d.d.d.d.d.d.d.d.g.j.j.j.j.j.j.",
"j.j.) ( ` <.7 e.j.j.j.j.a.d.d.d.d.d.d.d.d.d.d.d.d.d.d.d.d.f.j.j.j.j.j.j.j.",
"j.) ( ` 1./ 6.g.j.j.j.j.g.a.d.d.d.d.d.d.d.d.d.d.d.d.d.d.d.g.j.j.j.j.j.j.j.",
") 6 7 7 c 6.g.j.j.j.j.j.j.g.f.a.d.d.d.d.s.d.d.d.d.d.d.f.h.j.j.j.j.j.j.j.j.",
"i.t.t.t.t.f.j.j.j.j.j.j.j.j.j.g.f.f.f.f.f.f.f.f.f.f.g.j.j.j.j.j.j.j.j.j.j.",
"j.j.j.j.j.j.j.j.j.j.j.j.j.j.j.j.j.j.j.j.j.j.j.j.j.j.j.j.j.j.j.j.j.j.j.j.j.",
"j.j.j.j.j.j.j.j.j.j.j.j.j.j.j.j.j.j.j.j.j.j.j.j.j.j.j.j.j.j.j.j.j.j.j.j.j.",
"j.j.j.j.j.j.j.j.j.j.j.j.j.j.j.j.j.j.j.j.j.j.j.j.j.j.j.j.j.j.j.j.j.j.j.j.j.",
"j.j.j.j.j.j.j.j.j.j.j.j.j.j.j.j.j.j.j.j.j.j.j.j.j.j.j.j.j.j.j.j.j.j.j.j.j.",
"j.j.j.j.j.j.j.j.j.j.j.j.j.j.j.j.j.j.j.j.j.j.j.j.j.j.j.j.j.j.j.j.j.j.j.j.j."
};
