/* XPM */
static char *d_3[] = {
/* columns rows colors chars-per-pixel */
"37 37 84 1",
"  c #291A14",
". c #341F17",
"X c #282414",
"o c #283614",
"O c #312118",
"+ c #34241A",
"@ c #322E18",
"# c #3D2D1E",
"$ c #303D18",
"% c #3F3B1D",
"& c #274014",
"* c #33411A",
"= c #314A18",
"- c #36511A",
"; c #3D571D",
": c #513A17",
"> c #412F20",
", c #4B3927",
"< c #4C3926",
"1 c #552E21",
"2 c #563E2A",
"3 c #673B2A",
"4 c #44541F",
"5 c #435E1F",
"6 c #445B1F",
"7 c #444821",
"8 c #5E4C31",
"9 c #4D6221",
"0 c #4D6823",
"q c #536F26",
"w c #556827",
"e c #557127",
"r c #5A7528",
"t c #5E7B2A",
"y c #6B412D",
"u c #625333",
"i c #60792A",
"p c #72653D",
"a c #76663D",
"s c #584F4C",
"d c #57654C",
"f c #705A54",
"g c #69605F",
"h c #69785F",
"j c #7B6C41",
"k c #64822D",
"l c #69852E",
"z c #6B8930",
"x c #718D31",
"c c #728F32",
"v c #7B9133",
"b c #789534",
"n c #7F9C37",
"m c #88543D",
"M c #B84627",
"N c #956643",
"B c #9E6748",
"V c #A07149",
"C c #AF7D51",
"Z c #859B37",
"A c #85A039",
"S c #8BA13A",
"D c #8FA73B",
"F c #92A83C",
"G c #98A43B",
"H c #98AC3E",
"J c #B08651",
"K c #B48454",
"L c #A2B341",
"P c #A7B541",
"I c #B4BF45",
"U c #B1BF68",
"Y c #BEC648",
"T c #C4965B",
"R c #C09C56",
"E c #C1C2BF",
"W c #CDD3B3",
"Q c #C4C1C0",
"! c #C6CAC7",
"~ c #E0E0E1",
"^ c #E5E5E8",
"/ c #ECECEC",
"( c gray100",
") c None",
/* pixels */
")))))))))))))))))))))))))))))))))))))",
")))))))))))))))))))EEEEE)))))))))))))",
"))))))))))))))))))E;666;E))))))))))))",
")))))))))))))))))E;ALLLA;E)))))))))))",
"))))))))))))))))E;ALYYYLA;E))))))))))",
")))))))))))))))E;ALYYYYYLA;E)))))))))",
")))))))))))))EE&nHIYYYYYIHn&EE)))))))",
"))))))))))))E96=bFHIYIYIHFb=69E))))))",
")))))))))))E6IFqkcvvIFIvvckeFI6E)))))",
")))))))))))dvvbtkq-:vDv:-qktbvvd)))))",
"))))))))))))dde5klcM9Y9Mclk5edd))))))",
"))))))))))))))d&knHlIYIlHnk&&E)))))))",
")))))))))))))))&knU;vGv;Unk&==E))))))",
")))))))))))))EE=ebWl&&&lWbe=00-E)))))",
"))))))))))))E-=q=er69996re=05qz&)))))",
")))))))))))E;zqke=lFPPPFl=q0&zA;E))))",
"))))))))))E9Anzkkq=leeel=qk5dlZn&))))",
")))))))))E9IFnlekzq=====elk&)&eA;E)))",
")))))))))&IFcld&zAzq000ezAz&)&zHA&)))",
"))))))))E9LDi&)dlFZcq0ezAFld)dvHvd)))",
"))))))))&YGGL&))&cSSt0tSSc&)))dvd))))",
"))))))))&G$oGd))d4wte0qtw4d))))d)))))",
")))))))Q7*>sd))// O4w4w4O )))))))))))",
"))))))Q3m2.))//^!@>O+#++< //)))))))))",
")))))Q3mfff)/^^^&0@>8a8,8 ^^/))))))))",
"))))Q3mf))))^^^!;q0Xuju@ug^^^))))))))",
")))QyB1))))/^^^&Azq&gp@q%!^^^/)))))))",
"))QyCK1))))^^^!6HAeh^g5elh^^^^)))))))",
")QyCTJf))))^^^hvvvh^^^hhh^^^^^)))))))",
"Q1NVRf)))))~^^^hhh^^^^^^^^^^^~)))))))",
"fffff)))))))^^^^^^^^^^^^^^^^^))))))))",
"))))))))))))~^^^^^^^^^^^^^^^~))))))))",
")))))))))))))~~^^^^^^^^^^^~~)))))))))",
")))))))))))))))~~~~~~~~~~~)))))))))))",
")))))))))))))))))))))))))))))))))))))",
")))))))))))))))))))))))))))))))))))))",
")))))))))))))))))))))))))))))))))))))"
};
