/* XPM */
static char *d_4[] = {
/* columns rows colors chars-per-pixel */
"37 37 133 2",
"   c #2D2515",
".  c #2A2E15",
"X  c #2E3117",
"o  c #35251A",
"O  c #38271B",
"+  c #382C1B",
"@  c #37361B",
"#  c #323818",
"$  c #3F3E21",
"%  c #2B4315",
"&  c #2E4817",
"*  c #314B18",
"=  c #3C421C",
"-  c #3F4A1D",
";  c #3B541B",
":  c #3E591D",
">  c #334624",
",  c #344A25",
"<  c #403221",
"1  c #493725",
"2  c #4C3C27",
"3  c #4F3D29",
"4  c #522E21",
"5  c #5B3324",
"6  c #5D3C31",
"7  c #7B3D1D",
"8  c #633A28",
"9  c #41471E",
"0  c #415C1E",
"q  c #455F20",
"w  c #43592A",
"e  c #435535",
"r  c #5A4B2F",
"t  c #5E4D31",
"y  c #53522B",
"u  c #466120",
"i  c #496421",
"p  c #4D652D",
"a  c #4E6923",
"s  c #4B6234",
"d  c #516D25",
"f  c #50682F",
"g  c #556B32",
"h  c #557126",
"j  c #587227",
"k  c #597428",
"l  c #5D7929",
"z  c #5A7133",
"x  c #70401C",
"c  c #67402A",
"v  c #625434",
"b  c #6E5035",
"n  c #734E3D",
"m  c #7A4935",
"M  c #637429",
"N  c #617C2B",
"B  c #6A7D2C",
"V  c #657835",
"C  c #6B7A38",
"Z  c #73633C",
"A  c #7B5641",
"S  c #736D6B",
"D  c #737D6A",
"F  c #64812C",
"G  c #6A822D",
"H  c #688237",
"J  c #688138",
"K  c #6D8A30",
"L  c #71842E",
"P  c #768730",
"I  c #75833A",
"U  c #708D31",
"Y  c #7C8D32",
"T  c #749032",
"R  c #7B9434",
"E  c #7D9A36",
"W  c #76806C",
"Q  c #79816C",
"!  c #7F877A",
"~  c #8B4F24",
"^  c #835625",
"/  c #835539",
"(  c #956B42",
")  c #867670",
"_  c #807D7A",
"`  c #897A72",
"'  c #A3714B",
"]  c #A9794E",
"[  c #839234",
"{  c #809A36",
"}  c #849C38",
"|  c #989C39",
" . c #86A039",
".. c #8BA43A",
"X. c #93A63B",
"o. c #92A83C",
"O. c #9AA03A",
"+. c #9AAC3E",
"@. c #848B7C",
"#. c #8C817D",
"$. c #A9824B",
"%. c #BF9059",
"&. c #A5B340",
"*. c #A8B742",
"=. c #ADBB43",
"-. c #B2BB44",
";. c #ADBE79",
":. c #B6C146",
">. c #BAC346",
",. c #BEC648",
"<. c #B0C07A",
"1. c #C99D5C",
"2. c #8D8683",
"3. c #8D9882",
"4. c #91968D",
"5. c #93988F",
"6. c #9B9694",
"7. c #9AA393",
"8. c #A0A69E",
"9. c #A3A7A0",
"0. c #AAA4A2",
"q. c #B2B7B0",
"w. c #B8C687",
"e. c #BAC888",
"r. c #D4D4D6",
"t. c #DADADA",
"y. c #DEDDE0",
"u. c #E2E2E3",
"i. c #E5E5E8",
"p. c #EBEBEB",
"a. c #F2F2F3",
"s. c #FEFEFE",
"d. c None",
/* pixels */
"d.d.d.d.d.d.d.d.d.d.d.d.d.d.d.d.d.d.d.d.d.d.d.d.d.d.d.d.d.d.d.d.d.d.d.d.d.",
"d.d.d.d.d.d.d.d.d.d.d.d.d.d.d.d.d.d.d.9.e e e e 4.d.d.d.d.d.d.d.d.d.d.d.d.",
"d.d.d.d.d.d.d.d.d.d.d.d.d.d.d.d.d.d.9.g R } } R z 4.d.d.d.d.d.d.d.d.d.d.d.",
"d.d.d.d.d.d.d.d.d.d.d.d.d.d.d.d.d.9.g { *.:.>.*.} z 4.d.d.d.d.d.d.d.d.d.d.",
"d.d.d.d.d.d.d.d.d.d.d.d.d.d.d.d.9.g E *.>.,.,.>.*.} z 4.d.d.d.d.d.d.d.d.d.",
"d.d.d.d.d.d.d.d.d.d.d.d.d.d.d.9.g { *.>.,.,.,.,.,.*.} z 4.d.d.d.d.d.d.d.d.",
"d.d.d.d.d.d.d.d.d.d.d.d.d.9.e , a ..+.=.,.,.,.,.=.+...k , e 4.d.d.d.d.d.d.",
"d.d.d.d.d.d.d.d.d.d.d.d.9.C o.G N { ..+.=.=.=.=.+...{ F N X.I 4.d.d.d.d.d.",
"d.d.d.d.d.d.d.d.d.d.d.9.z ..o.T F l q ; N o.o.L ; q l F K ..o.V 4.d.d.d.d.",
"d.d.d.d.d.d.d.d.d.d.d.p.@.; a G F F l ^ 7 L Y x ~ l F F F h ; W p.d.d.d.d.",
"d.d.d.d.d.d.d.d.d.d.d.d.p.t.@.: k F K [ | -.-.O.[ K F l 0 W t.p.d.d.d.d.d.",
"d.d.d.d.d.d.d.d.d.d.d.d.d.d.p.@.i K  .G M =.-.G M ..T i D i.d.d.d.d.d.d.d.",
"d.d.d.d.d.d.d.d.d.d.d.d.d.d.9., 0 U ..R i ; ; i T ..T i , 4.d.d.d.d.d.d.d.",
"d.d.d.d.d.d.d.d.d.d.d.d.9.e w ; 0 U <.w.K l k G <.e.U i * w e 4.d.d.d.d.d.",
"d.d.d.d.d.d.d.d.d.d.d.9.p d i i : i H f * * * * p H a ; i i a f 4.d.d.d.d.",
"d.d.d.d.d.d.d.d.d.d.9.g T K N F h : a E X.&.&.X.E h ; i a h K K p 4.d.d.d.",
"d.d.d.d.d.d.d.d.d.8.C +...E U F F h : h E K U R l : i i : ; l F h w 4.d.d.",
"d.d.d.d.d.d.d.d.8.C &.o.{ l * q F l h : * & * * ; h F k ; % & : a d f 4.d.",
"d.d.d.d.d.d.d.d.5.k o.K i W t.@.i K K h u u i u h K K k ; D t.@.q K d @.d.",
"d.d.d.d.d.d.d.9.C -.:.&.k ! d.5.a  ...K k a i k K }  .k D p.d.5.a } R p 4.",
"d.d.d.d.d.d.d.5.B [ 0 B L @.d.p.@.h ..o.R k h T o...l D i.d.d.p.@.k l D p.",
"d.d.d.d.d.d.d.4.* 9 + @ D p.d.d.4.: M K l a a l K N : 2.d.d.d.d.p.@.D p.d.",
"d.d.d.d.d.d.8.n b < S t.p.d.d.d.p.@.; a k k k k d : D p.d.d.d.d.d.p.p.d.d.",
"d.d.d.d.d.0.n m 5 4 #.d.d.d.d.d.d.4.  = a a a a ,   D d.d.d.d.d.d.d.d.d.d.",
"d.d.d.d.0.n m ) t.t.p.d.d.d.d.d.d.6.o +         + @ > e 4.d.d.d.d.d.d.d.d.",
"d.d.d.0.n m ) p.d.d.d.d.d.d.d.i.u.7.. O 1 t t 3 $ M &.B @.d.d.d.d.d.d.d.d.",
"d.d.0.A ' / #.d.d.d.d.d.d.i.u.u.q.s q $ 2 Z Z y M -.-.B ! d.d.d.d.d.d.d.d.",
"d.0.A ] %.( #.d.d.d.d.d.i.u.i.i.u.5.% % . t v @ B -.L 3.t.u.d.d.d.d.d.d.d.",
"0.n ] 1.$.` p.d.d.d.d.d.u.i.i.i.i.y.r.r.r.6.2.r.7.; 3.y.u.u.d.d.d.d.d.d.d.",
"c 5 8 8 ` p.d.d.d.d.d.i.u.i.i.i.i.i.i.i.i.y.t.i.y.r.t.i.u.u.u.d.d.d.d.d.d.",
"t.t.t.t.p.d.d.d.d.d.d.u.i.i.i.i.i.i.i.i.i.i.i.i.i.i.i.i.i.i.u.d.d.d.d.d.d.",
"d.d.d.d.d.d.d.d.d.d.d.u.i.i.i.i.i.i.i.i.i.i.i.i.i.i.i.i.i.u.u.d.d.d.d.d.d.",
"d.d.d.d.d.d.d.d.d.d.d.s.t.i.i.i.i.i.i.i.i.i.i.i.i.i.i.i.i.u.a.d.d.d.d.d.d.",
"d.d.d.d.d.d.d.d.d.d.d.d.i.i.i.i.i.i.i.i.i.i.i.i.i.i.i.i.i.t.d.d.d.d.d.d.d.",
"d.d.d.d.d.d.d.d.d.d.d.d.s.t.i.i.i.i.i.i.i.i.i.i.i.i.i.i.t.s.d.d.d.d.d.d.d.",
"d.d.d.d.d.d.d.d.d.d.d.d.d.s.a.u.i.i.i.i.i.i.i.i.i.i.u.a.s.d.d.d.d.d.d.d.d.",
"d.d.d.d.d.d.d.d.d.d.d.d.d.d.d.a.a.a.a.a.a.a.a.a.a.a.a.d.d.d.d.d.d.d.d.d.d."
};
