/* XPM */
static char *l_1[] = {
/* columns rows colors chars-per-pixel */
"37 37 250 2",
"   c #2B2D16",
".  c #2C2B16",
"X  c #2B3F15",
"o  c #37261B",
"O  c #39231A",
"+  c #3B2A1D",
"@  c #382C1C",
"#  c #3C2B1E",
"$  c #393D1B",
"%  c #3B3F1C",
"&  c #2B4415",
"*  c #2C4516",
"=  c #2D4616",
"-  c #2F4417",
";  c #2E4817",
":  c #2F4917",
">  c #324B18",
",  c #344E19",
"<  c #3B401E",
"1  c #38521B",
"2  c #39531B",
"3  c #3A541C",
"4  c #3C561C",
"5  c #3C571D",
"6  c #3D571C",
"7  c #3D581D",
"8  c #3F591D",
"9  c #3F4521",
"0  c #3D502F",
"q  c #4A2C20",
"w  c #463524",
"e  c #4D3F3B",
"r  c #43441E",
"t  c #43481F",
"y  c #40581D",
"u  c #405A1E",
"i  c #415D1F",
"p  c #425D1F",
"a  c #435D1F",
"s  c #445B1E",
"d  c #434522",
"f  c #4D4122",
"g  c #424A32",
"h  c #4D5723",
"j  c #4E5028",
"k  c #485C33",
"l  c #4C5A3B",
"z  c #54442B",
"x  c #56472C",
"c  c #58472D",
"v  c #504430",
"b  c #456020",
"n  c #476321",
"m  c #486321",
"M  c #496522",
"N  c #4A6522",
"B  c #4C6623",
"V  c #4C6823",
"C  c #4D6823",
"Z  c #4E6924",
"A  c #4F6B24",
"S  c #4F6436",
"D  c #506B24",
"F  c #516D25",
"G  c #526E25",
"H  c #526E26",
"J  c #596627",
"K  c #5B6E28",
"L  c #54693E",
"P  c #586C39",
"I  c #557026",
"U  c #557126",
"Y  c #567127",
"T  c #577427",
"R  c #597027",
"E  c #587327",
"W  c #587428",
"Q  c #597628",
"!  c #5B7528",
"~  c #5A7629",
"^  c #5A7729",
"/  c #5B7629",
"(  c #5C7328",
")  c #5C792A",
"_  c #5E792A",
"`  c #5F7B2A",
"'  c #7A411E",
"]  c #655434",
"[  c #6C5E39",
"{  c #754632",
"}  c #784D33",
"|  c #7D4D37",
" . c #627A2A",
".. c #637A2A",
"X. c #637B2B",
"o. c #607C2B",
"O. c #617F2C",
"+. c #627F2C",
"@. c #667C2B",
"#. c #667F2C",
"$. c #69762B",
"%. c #6E732A",
"&. c #687A2B",
"*. c #6A7F2D",
"=. c #657839",
"-. c #6B793F",
";. c #4F5F44",
":. c #6C544C",
">. c #7A5342",
",. c #647945",
"<. c #697461",
"1. c #6E7A63",
"2. c #707C64",
"3. c #727D65",
"4. c #767F65",
"5. c #64822D",
"6. c #67802D",
"7. c #66832D",
"8. c #67852E",
"9. c #68832D",
"0. c #6A812D",
"q. c #6B802D",
"w. c #6A832E",
"e. c #6B832E",
"r. c #69862E",
"t. c #6A872F",
"y. c #6C872F",
"u. c #6E862F",
"i. c #6A882F",
"p. c #6B882F",
"a. c #6B833B",
"s. c #6D8A30",
"d. c #6D8B30",
"f. c #6E8C31",
"g. c #768730",
"h. c #74823E",
"j. c #708C31",
"k. c #708E31",
"l. c #718E32",
"z. c #728F32",
"x. c #748930",
"c. c #758A31",
"v. c #778F33",
"b. c #798930",
"n. c #739133",
"m. c #769233",
"M. c #769334",
"N. c #799534",
"B. c #799635",
"V. c #7D9635",
"C. c #7C9936",
"Z. c #7F9C37",
"A. c #78874A",
"S. c #76865F",
"D. c #7E8676",
"F. c #7E8578",
"G. c #7E8877",
"H. c #825639",
"J. c #84553A",
"K. c #89603C",
"L. c #8C603E",
"P. c #916B2C",
"I. c #805C46",
"U. c #856249",
"Y. c #936D40",
"T. c #9B7245",
"R. c #829635",
"E. c #829B37",
"W. c #839A37",
"Q. c #819E38",
"!. c #829E38",
"~. c #849E38",
"^. c #849F39",
"/. c #859F38",
"(. c #919838",
"). c #87A039",
"_. c #88A23A",
"`. c #8AA039",
"'. c #8AA33A",
"]. c #8BA43A",
"[. c #8DA53B",
"{. c #8EA63B",
"}. c #8FA63C",
"|. c #90A039",
" X c #93A43B",
".X c #91A83C",
"XX c #96AA3D",
"oX c #9AAB3D",
"OX c #9BAA3D",
"+X c #98AC3E",
"@X c #9DA93D",
"#X c #9DAD3E",
"$X c #9CAF3F",
"%X c #9DAF3F",
"&X c #A2B03F",
"*X c #828A77",
"=X c #828A78",
"-X c #848B78",
";X c #8C807C",
":X c #839179",
">X c #99AE4F",
",X c #B48653",
"<X c #B98B56",
"1X c #A2B341",
"2X c #A6B642",
"3X c #A8B742",
"4X c #A9B842",
"5X c #AEBB44",
"6X c #B1BD45",
"7X c #BAC347",
"8X c #BEC648",
"9X c #CFA45F",
"0X c #939D8C",
"qX c #949F8D",
"wX c #959A91",
"eX c #979C94",
"rX c #9E9694",
"tX c #96A08E",
"yX c #A79693",
"uX c #A09996",
"iX c #AC9D96",
"pX c #A7AEA5",
"aX c #ACA1A1",
"sX c #A9ACA7",
"dX c #ABAEA8",
"fX c #B0ACAA",
"gX c #B4A9A9",
"hX c #B8BDB7",
"jX c #B9C683",
"kX c #C1C1C1",
"lX c #C9CAC8",
"zX c #CBCECD",
"xX c #D0D1D1",
"cX c #D8D9DA",
"vX c #DADCDD",
"bX c #DCDBDE",
"nX c #E0E0E1",
"mX c #E1E1E0",
"MX c #E0E0E2",
"NX c #E1E1E2",
"BX c #E1E1E4",
"VX c #E4E4E4",
"CX c #E6E7E6",
"ZX c #E5E5E8",
"AX c gray91",
"SX c #EFEFEF",
"DX c gray96",
"FX c gray97",
"GX c gray100",
"HX c None",
/* pixels */
"HXHXHXHXHXHXHXHXHXHXHXHXHXHXHXHXHXHXHXHXHXHXHXHXHXHXHXHXHXHXHXHXHXHXHXHXHX",
"HXHXHXHXHXHXHXHXHXHXHXHXHXHXHXHXHXHXHXHXHXHXHXHXHXHXHXHXHXHXHXHXHXHXHXHXHX",
"HXHXHXHXHXHXHXHXHXHXHXHXHXHXHXHXHXHXHXHXHXHXHXHXHXHXHXHXHXHXHXHXHXHXHXHXHX",
"HXHXHXHXHXHXHXHXHXHXHXHXHXHXHXHXeXF.F.D.F.F.mXHXHXHXHXHXHXHXHXHXHXHXHXHXHX",
"HXHXHXHXHXHXHXHXHXHXHXHXHXHXHXeX=.@.@.~ E V 1.mXHXHXHXHXHXHXHXHXHXHXHXHXHX",
"HXHXHXHXHXHXHXHXHXHXHXHXHXHXeX=.#X#X+X}.!.M.H 1.mXHXHXHXHXHXHXHXHXHXHXHXHX",
"HXHXHXHXHXHXHXHXHXHXHXHXHXeX=.#X7X6X%X+X^.Z.i.A 1.mXHXHXHXHXHXHXHXHXHXHXHX",
"HXHXHXHXHXHXHXHXHXHXHXHXeX=.#X7X8X5X%X[.!.n.8.~ > lXHXHXHXHXHXHXHXHXHXHXHX",
"HXHXHXHXHXHXHXHXHXHXHXeX=.#X7X5X4X$X].).n.8.^ 8 & lXHXHXHXHXHXHXHXHXHXHXHX",
"HXHXHXHXHXHXHXHXHXHXHX;.|.7X5X%X].].Z.m.8.^ Q X.g.4.mXHXHXHXHXHXHXHXHXHXHX",
"HXHXHXHXHXHXHXHXHXHXHXdX-.@X*.w.f.n.p.i.^ Q p.).1Xg.3.mXHXHXHXHXHXHXHXHXHX",
"HXHXHXHXHXHXHXHXHXHXHXeX=.( ' %.f.8.5.^ A Y i.C. .E *XCXHXHXHXHXHXHXHXHXHX",
"HXHXHXHXHXHXHXHXHXHXeXh.&Xw.P.(.[.B.8.G D B Y D 8 & lXHXHXHXHXHXHXHXHXHXHX",
"HXHXHXHXHXHXHXHXHXHX;.@X5X_._.XX[.m.8.G V V B s 3 D.CXHXHXHXHXHXHXHXHXHXHX",
"HXHXHXHXHXHXHXHXHXHXdX-.v.z.jX>X).i.^ A V V 5 1 D.CXHXHXHXHXHXHXHXHXHXHXHX",
"HXHXHXHXHXHXHXHXHXHXHXdXS p S.a.m.i.) A V 5 b ; <.mXHXHXHXHXHXHXHXHXHXHXHX",
"HXHXHXHXHXHXHXHXHXHXHXHX;.&.5.8.f.8.^ 8 1 b i.)  .3.mXHXHXHXHXHXHXHXHXHXHX",
"HXHXHXHXHXHXHXHXHXHXHXHX;.R.{.n.8.M 4 b U X.N.].2Xc.3.mXHXHXHXHXHXHXHXHXHX",
"HXHXHXHXHXHXHXHXHXHXHXHXsXP A h p n U i.).B.z./.1X%X5.1.mXHXHXHXHXHXHXHXHX",
"HXHXHXHXHXHXHXHXHXHXHXHXHXsXwX0 p i.).[.[.y.m B V._.!. .3.mXHXHXHXHXHXHXHX",
"HXHXHXHXHXHXHXHXHXHXHXHXHXHXHX;.5.).+X[.m.X.p 4 m r.C.E.w.4.mXHXHXHXHXHXHX",
"HXHXHXHXHXHXHXHXHXHXHXHXHXHXHXdXP 6.u.p.8.Q D B ; 5 6._.XX5 lXHXHXHXHXHXHX",
"HXHXHXHXHXHXHXHXHXHXHXHXHXHXHXHX;.V ^ Q T A V 4 G.0 B _.3Xs lXHXHXHXHXHXHX",
"HXHXHXHXHXHXHXHXHXHXHXHXHXHXHXuXv r t < $ $ $ & lXdXk  Xb.*XCXHXHXHXHXHXHX",
"HXHXHXHXHXHXHXHXHXHXHXHXHXuX;X>.q x x z w # #   kXDXdX,.-XCXHXHXHXHXHXHXHX",
"HXHXHXHXHXHXHXHXHXHXHXuX;XI.| { O [ ] j d @ o   G.xXmXsXCXHXHXHXHXHXHXHXHX",
"HXHXHXHXHXHXHXHXHXuX;XU.L.,XJ.yXe d < K ~ J h - p :XcXmXDXHXHXHXHXHXHXHXHX",
"HXHXHXHXHXHXHXHXuXU.L.<X9XT.f =Xg $.*.E.!.n.m 8 H > zXCXSXHXHXHXHXHXHXHXHX",
"HXHXHXHXHXHXHXHX:.} H.K.Y.iXl &.*.@X.Xm.Y b = , m ; zXZXnXDXHXHXHXHXHXHXHX",
"HXHXHXHXHXHXHXHXfXrXaXgXgXbXhXA.E._.~ b qXpXpXpXL 0XbXZXCXSXHXHXHXHXHXHXHX",
"HXHXHXHXHXHXHXHXHXHXmXZXZXZXZXhX,.A tXpXvXZXZXZXhXvXZXZXZXSXHXHXHXHXHXHXHX",
"HXHXHXHXHXHXHXHXHXHXZXBXZXZXZXZXhXpXvXZXZXZXZXZXZXZXZXZXmXDXHXHXHXHXHXHXHX",
"HXHXHXHXHXHXHXHXHXHXHXmXZXZXZXZXZXZXZXZXZXZXZXZXZXZXZXZXSXHXHXHXHXHXHXHXHX",
"HXHXHXHXHXHXHXHXHXHXHXAXBXZXZXZXZXZXZXZXZXZXZXZXZXZXZXmXDXHXHXHXHXHXHXHXHX",
"HXHXHXHXHXHXHXHXHXHXHXHXZXVXBXZXZXZXZXCXZXZXZXZXZXmXVXFXHXHXHXHXHXHXHXHXHX",
"HXHXHXHXHXHXHXHXHXHXHXHXHXHXCXCXVXVXBXCXVXVXVXVXVXFXHXHXHXHXHXHXHXHXHXHXHX",
"HXHXHXHXHXHXHXHXHXHXHXHXHXHXHXHXHXHXHXHXHXHXHXHXHXHXHXHXHXHXHXHXHXHXHXHXHX"
};
