/* XPM */
static char *l_2[] = {
/* columns rows colors chars-per-pixel */
"37 37 226 2",
"   c #291D14",
".  c #2A1D14",
"X  c #2B2616",
"o  c #2B2915",
"O  c #2C2915",
"+  c #3F311F",
"@  c #294215",
"#  c #2A4315",
"$  c #2D4616",
"%  c #2E4717",
"&  c #2D461C",
"*  c #2E4817",
"=  c #2F4817",
"-  c #334219",
";  c #35431A",
":  c #304917",
">  c #314918",
",  c #304A18",
"<  c #334818",
"1  c #334A18",
"2  c #334A19",
"3  c #334B18",
"4  c #334C19",
"5  c #344E19",
"6  c #3C4A19",
"7  c #39521B",
"8  c #3F591E",
"9  c #324721",
"0  c #364B26",
"q  c #374E27",
"w  c #3E542E",
"e  c #47281D",
"r  c #4A3A25",
"t  c #583123",
"y  c #5B3224",
"u  c #5C3425",
"i  c #5D3525",
"p  c #5D3C31",
"a  c #5F3E32",
"s  c #6A3E2C",
"d  c #41591E",
"f  c #405A1E",
"g  c #415B1E",
"h  c #435D1F",
"j  c #445E1F",
"k  c #465D1F",
"l  c #56421A",
"z  c #494126",
"x  c #405727",
"c  c #445E20",
"v  c #445E23",
"b  c #465F20",
"n  c #4C5E21",
"m  c #56432F",
"M  c #476121",
"N  c #496121",
"B  c #4A6221",
"V  c #4A6222",
"C  c #4A6522",
"Z  c #4D6221",
"A  c #4D6422",
"S  c #4C6723",
"D  c #4F6422",
"F  c #4F6523",
"G  c #4C632F",
"H  c #4D6823",
"J  c #4E6A24",
"K  c #4F6B24",
"L  c #54672C",
"P  c #506824",
"I  c #506C25",
"U  c #516D25",
"Y  c #536E25",
"T  c #526E26",
"R  c #526F26",
"E  c #556A24",
"W  c #526730",
"Q  c #557126",
"!  c #557227",
"~  c #577327",
"^  c #5A7329",
"/  c #597629",
"(  c #5C7929",
")  c #5D7829",
"_  c #5D7A2A",
"`  c #5F7829",
"'  c #5F792B",
"]  c #5E7B2A",
"[  c #5E7C2B",
"{  c #5F7D2B",
"}  c #6D442E",
"|  c #664439",
" . c #734831",
".. c #764C33",
"X. c #784C36",
"o. c #617F2C",
"O. c #637F2C",
"+. c #57654B",
"@. c #58674B",
"#. c #59664F",
"$. c #59684C",
"%. c #5C684C",
"&. c #65705C",
"*. c #697560",
"=. c #6B7B62",
"-. c #63812D",
";. c #64822D",
":. c #67832E",
">. c #66842E",
",. c #68842E",
"<. c #68852E",
"1. c #69852E",
"2. c #69872F",
"3. c #6A862F",
"4. c #6E8B31",
"5. c #718E32",
"6. c #738E32",
"7. c #778831",
"8. c #758A35",
"9. c #7A8F33",
"0. c #788D37",
"q. c #749033",
"w. c #759233",
"e. c #769334",
"r. c #769434",
"t. c #789534",
"y. c #7A9735",
"u. c #7E9334",
"i. c #7C9936",
"p. c #7D9A36",
"a. c #7F9936",
"s. c #7F9C37",
"d. c #798671",
"f. c #B34F28",
"g. c #885640",
"h. c #945D43",
"j. c #917D78",
"k. c #A7744D",
"l. c #809735",
"z. c #809B37",
"x. c #829936",
"c. c #809C37",
"v. c #819D38",
"b. c #839E38",
"n. c #899F39",
"m. c #929F3E",
"M. c #87A139",
"N. c #86A03C",
"B. c #8BA13A",
"V. c #8CA33A",
"C. c #8FA33B",
"Z. c #8EA53B",
"A. c #8FA63C",
"S. c #90A43B",
"D. c #90A53B",
"F. c #90A73C",
"G. c #92A63C",
"H. c #96A33A",
"J. c #91A83C",
"K. c #92A83C",
"L. c #94AA3D",
"P. c #96AB3D",
"I. c #97AC3E",
"U. c #98AB3E",
"Y. c #98AC3E",
"T. c #99AD3E",
"R. c #9AAE3F",
"E. c #839958",
"W. c #9DB048",
"Q. c #AA8253",
"!. c #B18152",
"~. c #B68754",
"^. c #BB8B57",
"/. c #B99657",
"(. c #BF9059",
"). c #A0B140",
"_. c #A4B441",
"`. c #A8B541",
"'. c #AAB642",
"]. c #ABB943",
"[. c #ADB943",
"{. c #AFBB44",
"}. c #B0BC44",
"|. c #B0BD44",
" X c #B2BE45",
".X c #B4BD45",
"XX c #B5C046",
"oX c #BBC447",
"OX c #BDC548",
"+X c #BEC648",
"@X c #CAA15D",
"#X c #B1B3AE",
"$X c #B1B4AF",
"%X c #B6B2B0",
"&X c #BDBFBC",
"*X c #BDC1BC",
"=X c #BEC0BC",
"-X c #C1BEBD",
";X c #C5BDBE",
":X c #C0C2BF",
">X c #CBD3A9",
",X c #C3C5C2",
"<X c #C6C4C3",
"1X c #C8CBC9",
"2X c #DDDCDC",
"3X c #DDDCDF",
"4X c #DFDFE1",
"5X c #E0E0E1",
"6X c #E0E0E2",
"7X c #E2E2E5",
"8X c #E3E3E5",
"9X c #E3E3E6",
"0X c #E4E4E7",
"qX c #E5E5E6",
"wX c #E5E5E8",
"eX c #EAEAEA",
"rX c #EBEAEA",
"tX c #ECECEC",
"yX c gray93",
"uX c gray94",
"iX c #F8F8F8",
"pX c #F9F9F9",
"aX c gray98",
"sX c #FDFDFD",
"dX c gray100",
"fX c None",
/* pixels */
"fXfXfXfXfXfXfXfXfXfXfXfXfXfXfXfXfXfXfXfXfXfXfXfXfXfXfXfXfXfXfXfXfXfXfXfXfX",
"fXfXfXfXfXfXfXfXfXfXfXfXfXfXfXfXfXfXfXfXfXfXfXfXfXfXfXfXfXfXfXfXfXfXfXfXfX",
"fXfXfXfXfXfXfXfXfXfXfXfXfXfXfXfXfXfXfXfXfXfXfXfXfXfXfXfXfXfXfXfXfXfXfXfXfX",
"fXfXfXfXfXfXfXfXfXfXfXfXfXfXfXfXfXfXfXfXfXfXfXfXfXfXfXfXfXfXfXfXfXfXfXfXfX",
"fXfXfXfXfXfXfXfXfXfXfXfXfXfXfXfXfXfXfXfXfXfXfXfXfXfXfXfXfXfXfXfXfXfXfXfXfX",
"fXfXfXfXfXfXfXfXfXfXfXfXfXfXfXfXfXfXfXfXfXfXfXfXfXfXfXfXfXfXfXfXfXfXfXfXfX",
"fXfXfXfXfXfXfXfXfXfXfXfXfXfXfXfXfXfXfXfXfXfXfXfXfXfXfXfXfXfXfXfXfXfXfXfXfX",
"fXfXfXfXfXfXfXfXfXfXfXfXfXfXfXfXfXfXfXfXfXfXfXfXfXfXfXfXfXfXfXfXfXfXfXfXfX",
"fXfXfXfXfXfXfXfXfXfXfXfXfXfXfXfXfXfXfXfXfXfXfXfXfXfXfXfXfXfXfXfXfXfXfXfXfX",
"fXfXfXfXfXfXfXfXfXfXfXfXfXfXfXfXfXfXfXfXfXfXfXfXfXfXfXfXfXfXfXfXfXfXfXfXfX",
"fXfXfXfXfXfXfXfXfXfXfXfXfXfXpXrXrXrXrXrXrXrXuXfXfXfXfXfXfXfXfXfXfXfXfXfXfX",
"fXfXfXfXfXfXfXfXfXfXfXfXfXpX#X> > * : * * $ +.uXfXfXfXfXfXfXfXfXfXfXfXfXfX",
"fXfXfXfXfXfXfXfXfXfXfXfXpX#XA _.XXR.R.F.s.t.Q +.uXfXfXfXfXfXfXfXfXfXfXfXfX",
"fXfXfXfXfXfXfXfXfXfXfXpX#XA _.OXOX XI.A.p.e.-.K #.fXfXfXfXfXfXfXfXfXfXfXfX",
"fXfXfXfXfXfXfXfXfXfXpX#XA _.OXoX XR.A.r.-._ M > %.uXfXfXfXfXfXfXfXfXfXfXfX",
"fXfXfXfXfXfXfXfXfXfX=Xk _.OX XI.P.F.r.-._ Q 6.).H.$.uXfXfXfXfXfXfXfXfXfXfX",
"fXfXfXfXfXfXfXfXfXfX,XL .X[.A.A.p.p.r._ Y 1.p.c.D.7.&.fXfXfXfXfXfXfXfXfXfX",
"fXfXfXfXfXfXfXfXfXfXpX#XN 7.6 ~ ;.;.] H H Y <.-.# #.fXfXfXfXfXfXfXfXfXfXfX",
"fXfXfXfXfXfXfXfXfXpX#XA u.l f.c.y.;.] H H H j 3 c &.fXfXfXfXfXfXfXfXfXfXfX",
"fXfXfXfXfXfXfXfXfX=XA OX[.c.c.W.F.r._ H H H C g #.fXfXfXfXfXfXfXfXfXfXfXfX",
"fXfXfXfXfXfXfXfXfX,XL `.Z.n.W.Z.t.] K H C c : : +.uXfXfXfXfXfXfXfXfXfXfXfX",
"fXfXfXfXfXfXfXfXfXfX,Xx o.E.>Xi.t.-.( C h V T.L.2.+.uXfXfXfXfXfXfXfXfXfXfX",
"fXfXfXfXfXfXfXfXfXfXfX=X# > 7 ) w./ k $ 8 M.W. XB.Q #.fXfXfXfXfXfXfXfXfXfX",
"fXfXfXfXfXfXfXfXfXfXfX,XL `.n.4.R * b q.Q ;.c.D.A.2.#.fXfXfXfXfXfXfXfXfXfX",
"fXfXfXfXfXfXfXfXfXfXfXfX:X0 9 # c B.R.F.:.5 g g 4.;.#.fXfXfXfXfXfXfXfXfXfX",
"fXfXfXfXfXfXfXfXfXfXfXfXfXdX:XG p.F.B.e.;.R k R.G.2.#.fXfXfXfXfXfXfXfXfXfX",
"fXfXfXfXfXfXfXfXfXfXfXdXiX9X2X&X< V F _ ^ d Z [.R.9.#.fXfXfXfXfXfXfXfXfXfX",
"fXfXfXfXfXfXfXfXfXfXdXqX2X;Xy y e . . . . X : ) U.0.&.dXfXfXfXfXfXfXfXfXfX",
"fXfXfXfXfXfXfXfXfXpX2X;Xu s h.X.X : 3 : ; r z k m.d.wX5XfXfXfXfXfXfXfXfXfX",
"fXfXfXfXfXfXfXpXrX%Xi  .k.g.| m A OX}.A.;.- r X =.wXwX5XpXfXfXfXfXfXfXfXfX",
"fXfXfXfXfXfXpX#Xi ..^.(.Q.j.9X=XE  Xl.H ] R > g =.wXwXwX5XfXfXfXfXfXfXfXfX",
"fXfXfXfXfXfX;X} Q.~.@X/.j.wX1XL C.l.R & q > h & d.wXwXqX5XfXfXfXfXfXfXfXfX",
"fXfXfXfXfXfX,Xp p p a j.wXwXwX1Xw w w d.1Xw w d.wXwXwX9X4XfXfXfXfXfXfXfXfX",
"fXfXfXfXfXfXfXfXfXfXyXwXwXwXwXwXwXwXwXwXwXwXwXwXwXwXwX4XfXfXfXfXfXfXfXfXfX",
"fXfXfXfXfXfXfXfXfXfXyX9XwXwXwXwXwXwXwX0XwXwXwXwXwXwXwX4XfXfXfXfXfXfXfXfXfX",
"fXfXfXfXfXfXfXfXfXfXfXyX9X9XwXwXwXwXwX9XwXwXwXwX9X9X4XfXfXfXfXfXfXfXfXfXfX",
"fXfXfXfXfXfXfXfXfXfXfXfXfXyX9X9X4X9X9X9X9X9X9X5X4XfXfXfXfXfXfXfXfXfXfXfXfX"
};
