/* XPM */
static char *l_3[] = {
/* columns rows colors chars-per-pixel */
"37 37 184 2",
"   c #2B1E15",
".  c #2B1F15",
"X  c #2C2215",
"o  c #2E2216",
"O  c #2E2316",
"+  c #2E2416",
"@  c #2F2516",
"#  c #273D14",
"$  c #273E14",
"%  c #293C15",
"&  c #2A3D15",
"*  c #2A3F15",
"=  c #302517",
"-  c #372D25",
";  c #274014",
":  c #284114",
">  c #284115",
",  c #2A4315",
"<  c #2A4415",
"1  c #2B4516",
"2  c #2C4017",
"3  c #2C4516",
"4  c #2C4616",
"5  c #2D4616",
"6  c #2E4717",
"7  c #2F4717",
"8  c #2E4817",
"9  c #2F4917",
"0  c #304417",
"q  c #364116",
"w  c #374618",
"e  c #304917",
"r  c #304918",
"t  c #314B18",
"y  c #324B18",
"u  c #334B18",
"i  c #344D19",
"p  c #354D19",
"a  c #354E19",
"s  c #364E1A",
"d  c #38501A",
"f  c #39501A",
"g  c #314720",
"h  c #324521",
"j  c #334A20",
"k  c #354A25",
"l  c #364B26",
"z  c #354C21",
"x  c #364D25",
"c  c #374F25",
"v  c #394E22",
"b  c #384D26",
"n  c #394F26",
"m  c #3C5023",
"M  c #3D5127",
"N  c #3C522C",
"B  c #3E542D",
"V  c #3E542E",
"C  c #3F5331",
"Z  c #453222",
"A  c #453322",
"S  c #463423",
"D  c #503E2A",
"F  c #583323",
"G  c #5A3324",
"H  c #5C3425",
"J  c #5D3525",
"K  c #5D3C31",
"L  c #623928",
"P  c #623A28",
"I  c #4B5E3C",
"U  c #486321",
"Y  c #496322",
"T  c #4A6522",
"R  c #4B6622",
"E  c #4D6823",
"W  c #4E6923",
"Q  c #4E6924",
"!  c #4F6A24",
"~  c #506B24",
"^  c #506C24",
"/  c #526E25",
"(  c #536F26",
")  c #577127",
"_  c #5C792A",
"`  c #5C7A2A",
"'  c #5E7B2A",
"]  c #5E7B2B",
"[  c #5F7C2B",
"{  c #5F7D2B",
"}  c #634539",
"|  c #664439",
" . c #617E2C",
".. c #617F2C",
"X. c #705047",
"o. c #63812C",
"O. c #63812D",
"+. c #64812D",
"@. c #64822D",
"#. c #65832D",
"$. c #66842E",
"%. c #67852E",
"&. c #68862E",
"*. c #69862F",
"=. c #668234",
"-. c #749032",
";. c #769334",
":. c #779334",
">. c #789434",
",. c #799534",
"<. c #7A9735",
"1. c #7B9835",
"2. c #7B9836",
"3. c #7B9936",
"4. c #7D9A36",
"5. c #7E9A36",
"6. c #7E9B36",
"7. c #7F9B37",
"8. c #7F9C37",
"9. c #915C43",
"0. c #AD7B50",
"q. c #C23824",
"w. c #809C37",
"e. c #819D38",
"r. c #829E38",
"t. c #899D39",
"y. c #899E39",
"u. c #8A9E39",
"i. c #8DA23A",
"p. c #8FA33B",
"a. c #91A63B",
"s. c #92A73C",
"d. c #92A83C",
"f. c #95A93D",
"g. c #95AA3D",
"h. c #96AB3D",
"j. c #97AB3E",
"k. c #97AC3E",
"l. c #98AC3E",
"z. c #9BAE3F",
"x. c #9DAF3F",
"c. c #9FB24B",
"v. c #B18152",
"b. c #B28252",
"n. c #BB8A57",
"m. c #BD8D58",
"M. c #BF955A",
"N. c #B0BA43",
"B. c #B2BB44",
"V. c #B3BD45",
"C. c #B5BF45",
"Z. c #B7C146",
"A. c #B8C246",
"S. c #B9C247",
"D. c #B9C347",
"F. c #BBC447",
"G. c #BCC547",
"H. c #BEC648",
"J. c #C69C5C",
"K. c #D2AE60",
"L. c #DDDDDF",
"P. c #DEDEDD",
"I. c gray87",
"U. c #DFDEDE",
"Y. c #DFDFE2",
"T. c #DFE0E2",
"R. c #E2E4CA",
"E. c #E0E0E3",
"W. c #E1E1E4",
"Q. c #E2E2E5",
"!. c #E3E3E6",
"~. c #E4E4E8",
"^. c #E5E5E8",
"/. c #EAEAEA",
"(. c #EBEAEA",
"). c gray92",
"_. c #F1F1F1",
"`. c gray95",
"'. c #F8F8F8",
"]. c gray98",
"[. c #FBFBFB",
"{. c #FEFEFE",
"}. c gray100",
"|. c None",
/* pixels */
"|.|.|.|.|.|.|.|.|.|.|.|.|.|.|.|.|.|.|.|.|.|.|.|.|.|.|.|.|.|.|.|.|.|.|.|.|.",
"|.|.|.|.|.|.|.|.|.|.|.|.|.|.|.|.|.|.|.|.|.|.|.|.|.|.|.|.|.|.|.|.|.|.|.|.|.",
"|.|.|.|.|.|.|.|.|.|.|.|.|.|.|.|.|.|.|.|.|.|.|.|.|.|.|.|.|.|.|.|.|.|.|.|.|.",
"|.|.|.|.|.|.|.|.|.|.|.|.|.|.|.|.|.|.|.|.|.|.|.|.|.|.|.|.|.|.|.|.|.|.|.|.|.",
"|.|.|.|.|.|.|.|.|.|.|.|.|.|.|.}././.(.(.(./.|.|.|.|.|.|.|.|.|.|.|.|.|.|.|.",
"|.|.|.|.|.|.|.|.|.|.|.|.|.|.{.P.e e e 5 6 s ).|.|.|.|.|.|.|.|.|.|.|.|.|.|.",
"|.|.|.|.|.|.|.|.|.|.|.|.|.{.P.u z.z.g.8.4.O.z ).|.|.|.|.|.|.|.|.|.|.|.|.|.",
"|.|.|.|.|.|.|.|.|.|.|.|.{.P.u c.G.z.z.g.8.8.{ z (.|.|.|.|.|.|.|.|.|.|.|.|.",
"|.|.|.|.|.|.|.|.|.|.|.}.P.a x.H.G.D.k.f.8.7.+.] g |.|.|.|.|.|.|.|.|.|.|.|.",
"|.|.|.|.|.|.|.|.|.|.}.P.a x.H.H.D.k.f.8.3.+.{ Y g |.|.|.|.|.|.|.|.|.|.|.|.",
"|.|.|.|.|.|.|.|.|.|.).r x.H.D.l.k.k.8.3.O.O.E e m ).|.|.|.|.|.|.|.|.|.|.|.",
"|.|.|.|.|.|.|.|.|.|.).M B.Z.p.a.3.7.3.O.o.! *.l.B.v ).|.|.|.|.|.|.|.|.|.|.",
"|.|.|.|.|.|.|.|.|.|.}.P.a u.q / #.#.+.o.E +.7.8.p.u.C |.|.|.|.|.|.|.|.|.|.",
"|.|.|.|.|.|.|.|.|.}.P.f f.w q.r.8.#.o.E E E O.-., g |.|.|.|.|.|.|.|.|.|.|.",
"|.|.|.|.|.|.|.|.|.`.y H.Z.8.r.l.f.3.o.E E E R 1 Y C |.|.|.|.|.|.|.|.|.|.|.",
"|.|.|.|.|.|.|.|.|.).M B.d.7.c.f.8.O.o.E E E R Y C |.|.|.|.|.|.|.|.|.|.|.|.",
"|.|.|.|.|.|.|.|.|.|.`.N { =.R.3.7.o.E E E U 1 i ).|.|.|.|.|.|.|.|.|.|.|.|.",
"|.|.|.|.|.|.|.|.|.|.|.`., y y ( 3.o.{ R R e #.E j ).|.|.|.|.|.|.|.|.|.|.|.",
"|.|.|.|.|.|.|.|.|.|.|.).6 C.f.4.O.{ U 1 e #.8.o.R g |.|.|.|.|.|.|.|.|.|.|.",
"|.|.|.|.|.|.|.|.|.|.|.).b <.;.{ ` 4 i #.7.8.k.7.{ g |.|.|.|.|.|.|.|.|.|.|.",
"|.|.|.|.|.|.|.|.|.|.|.|.).n l ; 9 %.8.8.E z.k.7.{ g |.|.|.|.|.|.|.|.|.|.|.",
"|.|.|.|.|.|.|.|.|.|.|.|.|.|.`.1 #.i.k.y.d D.f.<.Y C |.|.|.|.|.|.|.|.|.|.|.",
"|.|.|.|.|.|.|.|.|.|.|.|.|.|.).5 ;.p.i.i k.d.3._ g |.|.|.|.|.|.|.|.|.|.|.|.",
"|.|.|.|.|.|.|.|.|.|.|.|.|.}.E.u < 9 t 8.7.3._ : C |.|.|.|.|.|.|.|.|.|.|.|.",
"|.|.|.|.|.|.|.|.|.|.|.|.|._.5 C.) l.f.3.=._ # i |.|.|.|.|.|.|.|.|.|.|.|.|.",
"|.|.|.|.|.|.|.|.|.|.|.}.(.P.5 l.f.d.:.{ _ %   g '.|.|.|.|.|.|.|.|.|.|.|.|.",
"|.|.|.|.|.|.|.|.|.}.).P.G F 0 u.:._ * $ # Z A - !.'.'.|.|.|.|.|.|.|.|.|.|.",
"|.|.|.|.|.|.|.}.(.P.J P 0.9.} V $ 2 Z o + o + l ^.^.!.'.|.|.|.|.|.|.|.|.|.",
"|.|.|.|.|.|.}.P.J P n.m.M.X.!.Y.. D + { 7.+.E l P.^.^.!.|.|.|.|.|.|.|.|.|.",
"|.|.|.|.|.|.).F b.b.J.K.X.^.^.Y.$ + R y p.;.O.R l ^.^.!.'.|.|.|.|.|.|.|.|.",
"|.|.|.|.|.|.`.K K K | X.^.^.^.!.V R R U ; y E ] I ^.^.^.!.|.|.|.|.|.|.|.|.",
"|.|.|.|.|.|.|.|.|.'.^.^.^.^.^.^.Y.V V N 1 :.{ I ^.^.^.^.!.|.|.|.|.|.|.|.|.",
"|.|.|.|.|.|.|.|.|.'.!.^.^.^.^.^.^.^.^.E.V V I ^.^.^.^.^.Y.|.|.|.|.|.|.|.|.",
"|.|.|.|.|.|.|.|.|.|.'.!.^.^.^.^.^.^.^.^.^.^.^.^.^.^.^.!.|.|.|.|.|.|.|.|.|.",
"|.|.|.|.|.|.|.|.|.|.}.!.^.^.^.^.^.^.^.^.^.^.^.^.^.^.^.!.|.|.|.|.|.|.|.|.|.",
"|.|.|.|.|.|.|.|.|.|.|.'.!.!.^.^.^.^.^.!.^.^.^.^.!.!.Y.|.|.|.|.|.|.|.|.|.|.",
"|.|.|.|.|.|.|.|.|.|.|.|.|.'.!.!.E.!.!.E.!.!.!.!.!.|.|.|.|.|.|.|.|.|.|.|.|."
};
