/* XPM */
static char *l_4[] = {
/* columns rows colors chars-per-pixel */
"37 37 75 1",
"  c #291A14",
". c #282614",
"X c #283414",
"o c #332319",
"O c #372018",
"+ c #37271C",
"@ c #353A18",
"# c #3B3A1C",
"$ c #274014",
"% c #334C19",
"& c #3A541C",
"* c #483625",
"= c #493624",
"- c #4C3023",
"; c #4D3A27",
": c #552E21",
"> c #523F2A",
", c #6A3E2C",
"< c #42501E",
"1 c #415C1E",
"2 c #425C1F",
"3 c #57452C",
"4 c #5E4F30",
"5 c #5B5F2C",
"6 c #4A6121",
"7 c #4D6823",
"8 c #526225",
"9 c #516E25",
"0 c #566924",
"q c #547026",
"w c #5C7829",
"e c #5D7A2A",
"r c #604E32",
"t c #6D5F3A",
"y c #7B5235",
"u c #76663D",
"i c #626D59",
"p c #7C6D41",
"a c #78655F",
"s c #64802C",
"d c #64822D",
"f c #6C8A30",
"g c #70852E",
"h c #708C31",
"j c #758B31",
"k c #779434",
"l c #7F9C37",
"z c #75836D",
"x c #99301D",
"c c #85513B",
"v c #977930",
"b c #906241",
"n c #9A6C46",
"m c #9F6849",
"M c #819736",
"N c #889F39",
"B c #8F9D38",
"V c #87A139",
"C c #90A73C",
"Z c #98AC3E",
"A c #B98856",
"S c #A4B441",
"D c #B2BE45",
"F c #A5B86C",
"G c #BEC648",
"H c #C89B5E",
"J c #B4B2B2",
"K c #B4B6B2",
"L c #BEC2BE",
"P c #CBD3AC",
"I c #DFDFE1",
"U c #E5E5E8",
"Y c #EAEAEA",
"T c gray100",
"R c None",
/* pixels */
"RRRRRRRRRRRRRRRRRRRRRRRRRRRRRRRRRRRRR",
"RRRRRRRRRRRRRRRRRRRRRRRRRRRRRRRRRRRRR",
"RRRRRRRRRRRRRRRRi$X$$$KRRRRRRRRRRRRRR",
"RRRRRRRRRRRRRRRijZZVlf&KRRRRRRRRRRRRR",
"RRRRRRRRRRRRRRijGZZZVlf&KRRRRRRRRRRRR",
"RRRRRRRRRRRRRijDGGSZVlfd&KRRRRRRRRRRR",
"RRRRRRRRRRRRijDGGSZVlfdq%KRRRRRRRRRRR",
"RRRRRRRRRRRijDGSZZVlfddq%KRRRRRRRRRRR",
"RRRRRRRRRRRiBGSZVllfddq%$KRRRRRRRRRRR",
"RRRRRRRRRRRRij62edddq7eND0KRRRRRRRRRR",
"RRRRRRRRRRRid2xvlfdq7eklCZ6KRRRRRRRRR",
"RRRRRRRRRRRijVlCZVfq77ek1$KRRRRRRRRRR",
"RRRRRRRRRRiBGSVCZVfq777%1%KRRRRRRRRRR",
"RRRRRRRRRRiBSVCZVfdq7777%KRRRRRRRRRRR",
"RRRRRRRRRRRi9dPFlfq777%$$KRRRRRRRRRRR",
"RRRRRRRRRRRRi$$1ffdq7%sfq%KRRRRRRRRRR",
"RRRRRRRRRRRRiBSVfdq%$jVlf&KRRRRRRRRRR",
"RRRRRRRRRRRRislfd&$$jZZVf&KRRRRRRRRRR",
"RRRRRRRRRRRRRi$$Xd1jDSVfq%KRRRRRRRRRR",
"RRRRRRRRRRRRiBgM7$dCZVfq%KRRRRRRRRRRR",
"RRRRRRRRRRRRijDSVweklfq7%KRRRRRRRRRRR",
"RRRRRRRRRRRRisCVllfdd&1%KRRRRRRRRRRRR",
"RRRRRRRRRRRRRi$9kfdd&17%KRRRRRRRRRRRR",
"RRRRRRRRRRRRRRRi$$$$.  XKRRRRRRRRRRRR",
"RRRRRRRRRRRRRa:c-tuur;=oJRRRRRRRRRRRR",
"RRRRRRRRRRRa:bm,Or3>+  8&$$KRRRRRRRRR",
"RRRRRRRRRa:nAHy@.;+ <eklCZD0KRRRRRRRR",
"RRRRRRRRanAH5$$9d#<%$$9dklC6KRRRRRRRR",
"RRRRRRRRa:::@BSVfq%LUUz$$s1LYRRRRRRRR",
"RRRRRRRRRRRIUzjV1$LUUUUUz9&LYRRRRRRRR",
"RRRRRRRRRRIUUUz$LUUUUUUUUzLUUYRRRRRRR",
"RRRRRRRRRRIUUUUUUUUUUUUUUUUUUYRRRRRRR",
"RRRRRRRRRRIUUUUUUUUUUUUUUUUUUYRRRRRRR",
"RRRRRRRRRRRIUUUUUUUUUUUUUUUUYRRRRRRRR",
"RRRRRRRRRRRIUUUUUUUUUUUUUUUUYRRRRRRRR",
"RRRRRRRRRRRRIUUUUUUUUUUUUUUYRRRRRRRRR",
"RRRRRRRRRRRRRRIUUUUUUUUUUYRRRRRRRRRRR"
};
