/* XPM */
static char *r_1[] = {
/* columns rows colors chars-per-pixel */
"37 37 72 1",
"  c #291A14",
". c #282814",
"X c #392119",
"o c #383A19",
"O c #274014",
"+ c #354E19",
"@ c #3D581D",
"# c #3F5A1E",
"$ c #44341C",
"% c #453523",
"& c #4D3323",
"* c #4C3E28",
"= c #552E21",
"- c #513E2A",
"; c #623819",
": c #454224",
"> c #5A4C25",
", c #476121",
"< c #4D6823",
"1 c #4E6A24",
"2 c #506723",
"3 c #557127",
"4 c #5D7027",
"5 c #5C7929",
"6 c #5F7B2A",
"7 c #6E402E",
"8 c #665534",
"9 c #6A5937",
"0 c #744932",
"q c #794E34",
"w c #76663D",
"e c #6C7664",
"r c #64822D",
"t c #6F852F",
"y c #6E8B31",
"u c #759333",
"i c #779133",
"p c #7F9C37",
"a c #814F39",
"s c #82563D",
"d c #B05229",
"f c #837546",
"g c #9A6146",
"h c #A5704C",
"j c #A37A4A",
"k c #AD7950",
"l c #859D38",
"z c #889635",
"x c #88A23A",
"c c #8FA63B",
"v c #98AC3E",
"b c #818D7A",
"n c #9AAC6F",
"m c #B18C4E",
"M c #B98856",
"N c #A6B542",
"B c #A7B742",
"V c #B0BD44",
"C c #BEC648",
"Z c #C1925A",
"A c #D7AE64",
"S c #A8A6A6",
"D c #A8ABA6",
"F c #B6B3B5",
"G c #B5BBB5",
"H c #BFB7B8",
"J c #CDD6A6",
"K c #E0E0E1",
"L c #E5E5E8",
"P c #E7E7E8",
"I c gray100",
"U c None",
/* pixels */
"UUUUUUUUUUUUUUUUUUUUUUUUUUUUUUUUUUUUU",
"UUUUUUUUUUUUUUUUUUUUUUUUUUUUUUUUUUUUU",
"UUUUUUUUUUUUUUUUUUUUUUUUUUUUUUUUUUUUU",
"UUUUUUUUUUUUUUUUUUUUUUUUUUUUUUUUUUUUU",
"UUUUUUUUUUUUUUUUUeOOOOODUUUUUUUUUUUUU",
"UUUUUUUUUUUUUUUUe1upcvv2DUUUUUUUUUUUU",
"UUUUUUUUUUUUUUUe1upcvvVN2DUUUUUUUUUUU",
"UUUUUUUUUUUUUUe1rupcvVCCN2DUUUUUUUUUU",
"UUUUUUUUUUUUUUe#5rupcvVCCN2DUUUUUUUUU",
"UUUUUUUUUUUUUUeO#5rupcvvVCN2DUUUUUUUU",
"UUUUUUUUUUUUUezNu35ruppcvVC4DUUUUUUUU",
"UUUUUUUUUUUUetvxpy35rrr3+t2DUUUUUUUUU",
"UUUUUUUUUUUUUeO6y32<5rupd;t2DUUUUUUUU",
"UUUUUUUUUUUUUe#+#2<<5ucvxpNC4DUUUUUUU",
"UUUUUUUUUUUUUUe#<<<<5rucvxcV4DUUUUUUU",
"UUUUUUUUUUUUUUeOo#<<<5upJnr#DUUUUUUUU",
"UUUUUUUUUUUUUe6pr@#13rur+OODUUUUUUUUU",
"UUUUUUUUUUUUe6cvvu@O@rruxB3DUUUUUUUUU",
"UUUUUUUUUUUe6cVNvuuy@O<rup,DUUUUUUUUU",
"UUUUUUUUUUUe6cvvxypxpy@oOODUUUUUUUUUU",
"UUUUUUUUUUUe1ucx,1ucvxy@DUUUUUUUUUUUU",
"UUUUUUUUUUe1rup,#5rucvx,DUUUUUUUUUUUU",
"UUUUUUUUUUe1u6+#1<5r3<+DUUUUUUUUUUUUU",
"UUUUUUUUUUe1uc2O#1<<5r@DUUUUUUUUUUUUU",
"UUUUUUUUUUUervv1.     SUUUUUUUUUUUUUU",
"UUUUUUUUUUUetvV4$&-9wf*FPUUUUUUUUUUUU",
"UUUUUUUUUUUKbz4:s7==&8%FPPPUUUUUUUUUU",
"UUUUUUUUUUKLLbO$=jkg7=XFPKPPUUUUUUUUU",
"UUUUUUUUUUKLLb@<+o==sh0=oGLPUUUUUUUUU",
"UUUUUUUUUKLLLb#+oOo<>jZMq=HLPUUUUUUUU",
"UUUUUUUUUKLLLLbGLLKbO$mAMMqHPUUUUUUUU",
"UUUUUUUUUKLLLLLLLLLLPb$====HPUUUUUUUU",
"UUUUUUUUUUKLLLLLLLLLLLLLLLLLUUUUUUUUU",
"UUUUUUUUUUKLLLLLLLLLLLLLLLLPUUUUUUUUU",
"UUUUUUUUUUUKLLLLLLLLLLLLLLPUUUUUUUUUU",
"UUUUUUUUUUUUUKLLLLLLLLLLLUUUUUUUUUUUU",
"UUUUUUUUUUUUUUUUUUUUUUUUUUUUUUUUUUUUU"
};
