/* XPM */
static char *r_2[] = {
/* columns rows colors chars-per-pixel */
"37 37 226 2",
"   c #282914",
".  c #2B3A15",
"X  c #362318",
"o  c #313F18",
"O  c #393919",
"+  c #274014",
"@  c #2A4315",
"#  c #2C4516",
"$  c #2F4817",
"%  c #304117",
"&  c #344E19",
"*  c #3F4A1D",
"=  c #37511A",
"-  c #39531B",
";  c #3B551C",
":  c #3C571C",
">  c #3E551D",
",  c #3E561D",
"<  c #3E581D",
"1  c #364B26",
"2  c #43351C",
"3  c #4F3A22",
"4  c #5E3F2B",
"5  c #41451C",
"6  c #424D1E",
"7  c #415C1E",
"8  c #415C1F",
"9  c #425C1F",
"0  c #454121",
"q  c #4F4121",
"w  c #4A493B",
"e  c #42502E",
"r  c #445F20",
"t  c #4A5622",
"y  c #4D5923",
"u  c #4E5A34",
"i  c #564225",
"p  c #476221",
"a  c #496422",
"s  c #4A6522",
"d  c #4B6522",
"f  c #4F6623",
"g  c #4C6823",
"h  c #4D6823",
"j  c #4F6A24",
"k  c #4F6B24",
"l  c #566524",
"z  c #516924",
"x  c #506B24",
"c  c #536A24",
"v  c #526D25",
"b  c #566A24",
"n  c #546C25",
"m  c #566C25",
"M  c #516931",
"N  c #5C6E3A",
"B  c #557026",
"V  c #557127",
"C  c #567127",
"Z  c #567227",
"A  c #577327",
"S  c #587528",
"D  c #597428",
"F  c #597528",
"G  c #5F7228",
"H  c #5D7528",
"J  c #5C7829",
"K  c #5D7A2A",
"L  c #5E7929",
"P  c #68471D",
"I  c #65402B",
"U  c #70422F",
"Y  c #714430",
"T  c #7C4B36",
"R  c #7F4D38",
"E  c #785131",
"W  c #7C5136",
"Q  c #626E27",
"!  c #607A2A",
"~  c #607C2B",
"^  c #607D2B",
"/  c #667B2B",
"(  c #677D2C",
")  c #67753E",
"_  c #657D3D",
"`  c #4E5D42",
"'  c #5E5F52",
"]  c #6A524A",
"[  c #696955",
"{  c #65715A",
"}  c #6B775C",
"|  c #737C6B",
" . c #64822D",
".. c #67802D",
"X. c #66832D",
"o. c #66842E",
"O. c #67852E",
"+. c #69872F",
"@. c #6A872F",
"#. c #6C822E",
"$. c #6C8930",
"%. c #6E8A30",
"&. c #6F8C31",
"*. c #70812D",
"=. c #71852F",
"-. c #74812F",
";. c #708730",
":. c #708D31",
">. c #738E32",
",. c #748C31",
"<. c #79873D",
"1. c #788D32",
"2. c #788E32",
"3. c #7A8E32",
"4. c #749133",
"5. c #749233",
"6. c #769233",
"7. c #7B9133",
"8. c #789434",
"9. c #7A9635",
"0. c #7C9535",
"q. c #7E9635",
"w. c #7E9735",
"e. c #7B9835",
"r. c #7D9A36",
"t. c #7F9C37",
"y. c #789044",
"u. c #75836D",
"i. c #7B8970",
"p. c #805038",
"a. c #805738",
"s. c #85593B",
"d. c #8B5A3E",
"f. c #995928",
"g. c #827A32",
"h. c #876452",
"j. c #8A6954",
"k. c #926541",
"l. c #996D45",
"z. c #9D7247",
"x. c #847570",
"c. c #8C7A73",
"v. c #A87E4C",
"b. c #AC7E4F",
"n. c #849A37",
"m. c #829E38",
"M. c #849C38",
"N. c #849F38",
"B. c #8A9E39",
"V. c #8C9E38",
"C. c #909236",
"Z. c #87A139",
"A. c #88A039",
"S. c #89A23A",
"D. c #89A33A",
"F. c #8CA43B",
"G. c #8EA63B",
"H. c #8FA63B",
"J. c #90A73C",
"K. c #96A63C",
"L. c #95AA3D",
"P. c #96AB3D",
"I. c #99A93D",
"U. c #98AC3E",
"Y. c #9BAE3F",
"T. c #9FAA3D",
"R. c #9DAF3F",
"E. c #9FAF3F",
"W. c #818E71",
"Q. c #859172",
"!. c #9B857A",
"~. c #9D887B",
"^. c #98AD49",
"/. c #94A17C",
"(. c #AA844B",
"). c #B38553",
"_. c #A6B341",
"`. c #A4B441",
"'. c #A8B742",
"]. c #AAB943",
"[. c #ACB943",
"{. c #AFBC44",
"}. c #B2BE45",
"|. c #AFBE6F",
" X c #B9C347",
".X c #BEC648",
"XX c #C89C5C",
"oX c #888F81",
"OX c #879281",
"+X c #899082",
"@X c #8A9182",
"#X c #8C9183",
"$X c #8C9283",
"%X c #8D9389",
"&X c #968481",
"*X c #9C8A87",
"=X c #988F8C",
"-X c #949C90",
";X c #A1A59E",
":X c #A0A89D",
">X c #B4B6B2",
",X c #BBB2B2",
"<X c #BBB5B6",
"1X c #BEBBBE",
"2X c #C6BFC0",
"3X c #CCCDCB",
"4X c #CDCFCE",
"5X c #D7D8D9",
"6X c #D9D7DA",
"7X c #DBDCDB",
"8X c #E0E0DF",
"9X c #E0E0E1",
"0X c #E0E0E2",
"qX c #E1E1E3",
"wX c #E2E2E3",
"eX c gray89",
"rX c #E2E2E5",
"tX c #E6E6E6",
"yX c #E5E5E8",
"uX c #E9E9E9",
"iX c #EAEAEA",
"pX c gray94",
"aX c gray96",
"sX c #F8F8F8",
"dX c gray100",
"fX c None",
/* pixels */
"fXfXfXfXfXfXfXfXfXfXfXfXfXfXfXfXfXfXfXfXfXfXfXfXfXfXfXfXfXfXfXfXfXfXfXfXfX",
"fXfXfXfXfXfXfXfXfXfXfXfXfXfXfXfXfXfXfXfXfXfXfXfXfXfXfXfXfXfXfXfXfXfXfXfXfX",
"fXfXfXfXfXfXfXfXfXfXfXfXfXfXfXfXfXfXfXfXfXfXfXfXfXfXfXfXfXfXfXfXfXfXfXfXfX",
"fXfXfXfXfXfXfXfXfXfXfXfXfXfXfXfXfXfXfXfXfXfXfXfXfXfXfXfXfXfXfXfXfXfXfXfXfX",
"fXfXfXfXfXfXfXfXfXfXfXfXfXfXfXfXfXfXfXfXfXfXfXfXfXfXfXfXfXfXfXfXfXfXfXfXfX",
"fXfXfXfXfXfXfXfXfXfXfXfXfXfXfXfXfXfXfXfXfXfXfXfXfXfXfXfXfXfXfXfXfXfXfXfXfX",
"fXfXfXfXfXfXfXfXfXfXfXfXfXfXfXfXfXfXfXfXfXfXfXfXfXfXfXfXfXfXfXfXfXfXfXfXfX",
"fXfXfXfXfXfXfXfXfXfXfXfXfXfXfXfXfXfXfXfXfXfXfXfXfXfXfXfXfXfXfXfXfXfXfXfXfX",
"fXfXfXfXfXfXfXfXfXfXfXfXfXfXfXfXfXfXfXfXfXfXfXfXfXfXfXfXfXfXfXfXfXfXfXfXfX",
"fXfXfXfXfXfXfXfXfXfXfXfXfXfXfXfXfXfXfXfXfXfXfXfXfXfXfXfXfXfXfXfXfXfXfXfXfX",
"fXfXfXfXfXfXfXfXfXfXfXfXfXfXiX;X;X;X;X;X;X;X>XfXfXfXfXfXfXfXfXfXfXfXfXfXfX",
"fXfXfXfXfXfXfXfXfXfXfXfXfXiXoX9 d d c c n G N >XfXfXfXfXfXfXfXfXfXfXfXfXfX",
"fXfXfXfXfXfXfXfXfXfXfXfXiXoXp +.r.N.U.U.[. XK.N >XfXfXfXfXfXfXfXfXfXfXfXfX",
"fXfXfXfXfXfXfXfXfXfXfXfX3X$ k ^ 5.9.G.`.}..X XK.N >XfXfXfXfXfXfXfXfXfXfXfX",
"fXfXfXfXfXfXfXfXfXfXfXiX$XG n A K O.9.G.R.{.}. XK.N >XfXfXfXfXfXfXfXfXfXfX",
"fXfXfXfXfXfXfXfXfXfXiX@X/ '.A.+.A K @.m.G.J.R.}. XV.` fXfXfXfXfXfXfXfXfXfX",
"fXfXfXfXfXfXfXfXfXfXqX} #.%.r.&.S x ^ 5.5.5.3.3._.<.%XfXfXfXfXfXfXfXfXfXfX",
"fXfXfXfXfXfXfXfXfXfXfX4X@ > J S k d v  .O.%.Q P ( N >XfXfXfXfXfXfXfXfXfXfX",
"fXfXfXfXfXfXfXfXfXfXfX7X{ > ; d k d v O.5.A.C.f.H I.) >XfXfXfXfXfXfXfXfXfX",
"fXfXfXfXfXfXfXfXfXfXfXfX4X# > r d k v K 9.J.P.A.A.}.T.` fXfXfXfXfXfXfXfXfX",
"fXfXfXfXfXfXfXfXfXfXfXiXQ.d n f 9 f k D +.m.^.|.9.n.<.%XfXfXfXfXfXfXfXfXfX",
"fXfXfXfXfXfXfXfXfXfXiX@XA G.`.B.d < r K +.0.y./.d M %XfXfXfXfXfXfXfXfXfXfX",
"fXfXfXfXfXfXfXfXfXfX3X- N.E.[.P.w.r p 9 A %.K n c ` fXfXfXfXfXfXfXfXfXfXfX",
"fXfXfXfXfXfXfXfXfXfX3X= e.J.P.M.^ 5.0.x d k ! =.<.%XfXfXfXfXfXfXfXfXfXfXfX",
"fXfXfXfXfXfXfXfXfXiXoXp  .,.M.B d 9.G.P.9.9 1 | %XfXfXfXfXfXfXfXfXfXfXfXfX",
"fXfXfXfXfXfXfXfXfX3X& O.%. .B < K +.5.7.,._ -XfXfXfXfXfXfXfXfXfXfXfXfXfXfX",
"fXfXfXfXfXfXfXfXfX7Xi.S G.V.f , 6 y t * u :XqXtXiXfXfXfXfXfXfXfXfXfXfXfXfX",
"fXfXfXfXfXfXfXfXsXqX4X, I.^.V.. X       w 1XyXyXqXiXfXfXfXfXfXfXfXfXfXfXfX",
"fXfXfXfXfXfXfXfXpXyX5XW.3.E.-.0 I O O 5 l ' yXyXyX9XfXfXfXfXfXfXfXfXfXfXfX",
"fXfXfXfXfXfXfXaXqXyXyX5XQ.*.o 4 R a.U E g.[ yXyXyXqXiXfXfXfXfXfXfXfXfXfXfX",
"fXfXfXfXfXfXfXpXyXyXyXyX4X+ % q i l.R T Y h.,X2XyXyX9XfXfXfXfXfXfXfXfXfXfX",
"fXfXfXfXfXfXfXpXyXyXyXyX5Xu.# - e c.2 3 d.b.T j.,X2X9XfXfXfXfXfXfXfXfXfXfX",
"fXfXfXfXfXfXfXaXqXtXyXyXyX5XOXOX:X5XOXoX!.v.XX).R j.<XfXfXfXfXfXfXfXfXfXfX",
"fXfXfXfXfXfXfXfXpXyXyXyXyXyXyXyXyXyXyXyX6X~.(.z.d.d.] fXfXfXfXfXfXfXfXfXfX",
"fXfXfXfXfXfXfXfXaX9XyXyXyXyXyXyXyXyXyXtXyX6X*X*X!.x.=XfXfXfXfXfXfXfXfXfXfX",
"fXfXfXfXfXfXfXfXfXaX9X9XyXyXyXyXyXyXyXtXyXyXrXqXrXfXfXfXfXfXfXfXfXfXfXfXfX",
"fXfXfXfXfXfXfXfXfXfXfXaX9X9X9X9X7XqXqXqXqXqXqXfXfXfXfXfXfXfXfXfXfXfXfXfXfX"
};
