/* XPM */
static char *r_3[] = {
/* columns rows colors chars-per-pixel */
"37 37 245 2",
"   c #2D3516",
".  c #39241A",
"X  c #3E2E1F",
"o  c #373E1B",
"O  c #2C4516",
"+  c #2F4917",
"@  c #344E19",
"#  c #36501A",
"$  c #37511A",
"%  c #39531B",
"&  c #3C561C",
"*  c #3C561D",
"=  c #3C571D",
"-  c #3D571D",
";  c #3F541D",
":  c #3E581D",
">  c #3E591D",
",  c #3F591D",
"<  c #3F5230",
"1  c #493A1E",
"2  c #463623",
"3  c #483925",
"4  c #663F2D",
"5  c #404B1D",
"6  c #414D1D",
"7  c #424E1E",
"8  c #415C1F",
"9  c #425C1F",
"0  c #425D1F",
"q  c #435E1F",
"w  c #445E1F",
"e  c #4B4123",
"r  c #455120",
"t  c #445F20",
"y  c #455F20",
"u  c #4E5B24",
"i  c #495D3C",
"p  c #524422",
"a  c #59412A",
"s  c #5D432C",
"d  c #5E5027",
"f  c #456020",
"g  c #466120",
"h  c #486221",
"j  c #4B6321",
"k  c #496422",
"l  c #4B6422",
"z  c #4B6622",
"x  c #4B6723",
"c  c #4C6121",
"v  c #4E6522",
"b  c #4D6823",
"n  c #4D6A24",
"m  c #4E6A24",
"M  c #556225",
"N  c #516824",
"B  c #506B24",
"V  c #526B24",
"C  c #536B25",
"Z  c #506C25",
"A  c #516C25",
"S  c #526E25",
"D  c #536E26",
"F  c #536F26",
"G  c #566B25",
"H  c #5A6E26",
"J  c #556139",
"K  c #546939",
"L  c #557126",
"P  c #557227",
"I  c #567227",
"U  c #567327",
"Y  c #587428",
"T  c #597628",
"R  c #5B7528",
"E  c #5B7729",
"W  c #5B7829",
"Q  c #5C792A",
"!  c #5D792A",
"~  c #5D7A2A",
"^  c #5E7829",
"/  c #5E7A2A",
"(  c #5E7C2B",
")  c #5E733D",
"_  c #624729",
"`  c #64422E",
"'  c #644C2C",
"]  c #6F412F",
"[  c #6D4730",
"{  c #685220",
"}  c #645635",
"|  c #6A5133",
" . c #714430",
".. c #7A4A35",
"X. c #7A4F35",
"o. c #735E39",
"O. c #7C5135",
"+. c #7E5337",
"@. c #616424",
"#. c #657729",
"$. c #617D2B",
"%. c #627D2B",
"&. c #647A2B",
"*. c #6B782D",
"=. c #687F2C",
"-. c #7A6234",
";. c #5B694C",
":. c #5F6E4E",
">. c #635A4E",
",. c #64734B",
"<. c #6C784D",
"1. c #677450",
"2. c #697461",
"3. c #6F7867",
"4. c #7D6C66",
"5. c #7E7676",
"6. c #64802C",
"7. c #64822D",
"8. c #66832D",
"9. c #67852E",
"0. c #68842E",
"q. c #69862F",
"w. c #6E842E",
"e. c #6A882F",
"r. c #6C8930",
"t. c #6D8B30",
"y. c #6E8A30",
"u. c #72852F",
"i. c #728A31",
"p. c #748C31",
"a. c #758E32",
"s. c #778E32",
"d. c #798F33",
"f. c #7A8D32",
"g. c #7B8E32",
"h. c #749133",
"j. c #759233",
"k. c #779234",
"l. c #779334",
"z. c #799534",
"x. c #789635",
"c. c #7A9635",
"v. c #7C9334",
"b. c #7E9735",
"n. c #7C9936",
"m. c #7E9936",
"M. c #7F9A37",
"N. c #7F9C37",
"B. c #758243",
"V. c #718260",
"C. c #7B8A63",
"Z. c #7B8472",
"A. c #7D8672",
"S. c #7F8773",
"D. c #804E38",
"F. c #8C5926",
"G. c #815238",
"H. c #946242",
"J. c #946742",
"K. c #966A43",
"L. c #9D7247",
"P. c #867A78",
"I. c #8E7D79",
"U. c #907467",
"Y. c #947769",
"T. c #A3754A",
"R. c #A97B4D",
"E. c #809535",
"W. c #819535",
"Q. c #859736",
"!. c #809A36",
"~. c #859A37",
"^. c #839D38",
"/. c #829E38",
"(. c #849F39",
"). c #899B37",
"_. c #8A9836",
"`. c #8E9E39",
"'. c #968734",
"]. c #85A039",
"[. c #88A139",
"{. c #88A23A",
"}. c #8EA53B",
"|. c #8FA63B",
" X c #90A73C",
".X c #92A83C",
"XX c #93A93C",
"oX c #95AA3D",
"OX c #97AC3E",
"+X c #9BAA3D",
"@X c #98AC3E",
"#X c #9DAF3F",
"$X c #A1AF3F",
"%X c #829753",
"&X c #818E65",
"*X c #828974",
"=X c #838F7D",
"-X c #8A8C7F",
";X c #8B9A6F",
":X c #9D8571",
">X c #9EB251",
",X c #AB844C",
"<X c #AF8550",
"1X c #A0B240",
"2X c #A1B240",
"3X c #A4B541",
"4X c #A8B742",
"5X c #AEBB44",
"6X c #B0BC44",
"7X c #A4B563",
"8X c #B5C046",
"9X c #B6C046",
"0X c #BEC648",
"qX c #C7995C",
"wX c #998783",
"eX c #9DA199",
"rX c #A49E9C",
"tX c #A5A9A3",
"yX c #ABAFA9",
"uX c #ADB3AB",
"iX c #BEB5B6",
"pX c #B9BDB8",
"aX c #BFBEBE",
"sX c #C1BDBD",
"dX c #C1C3C1",
"fX c #C3C5C2",
"gX c #C4C0C0",
"hX c #CACBC9",
"jX c #CDC8CA",
"kX c #CCCECD",
"lX c #D0CCCE",
"zX c #DFDFDE",
"xX c #E0E0E1",
"cX c #E0E0E2",
"vX c #E1E1E2",
"bX c #E1E1E3",
"nX c gray90",
"mX c #E7E7E7",
"MX c #E5E5E8",
"NX c gray91",
"BX c gray93",
"VX c #EFEFEF",
"CX c gray96",
"ZX c gray100",
"AX c None",
/* pixels */
"AXAXAXAXAXAXAXAXAXAXAXAXAXAXAXAXAXAXAXAXAXAXAXAXAXAXAXAXAXAXAXAXAXAXAXAXAX",
"AXAXAXAXAXAXAXAXAXAXAXAXAXAXAXAXAXAXAXAXAXAXAXAXAXAXAXAXAXAXAXAXAXAXAXAXAX",
"AXAXAXAXAXAXAXAXAXAXAXAXAXAXAXAXAXAXAXAXAXAXAXAXAXAXAXAXAXAXAXAXAXAXAXAXAX",
"AXAXAXAXAXAXAXAXAXAXAXAXAXAXAXAXAXAXAXAXAXAXAXAXAXAXAXAXAXAXAXAXAXAXAXAXAX",
"AXAXAXAXAXAXAXAXAXAXAXAXAXAXAXzXtXtXtXtXtXfXAXAXAXAXAXAXAXAXAXAXAXAXAXAXAX",
"AXAXAXAXAXAXAXAXAXAXAXAXAXAXzXZ.q g l b N ,.fXAXAXAXAXAXAXAXAXAXAXAXAXAXAX",
"AXAXAXAXAXAXAXAXAXAXAXAXAXzXS.n a.^.|.OX1X).,.fXAXAXAXAXAXAXAXAXAXAXAXAXAX",
"AXAXAXAXAXAXAXAXAXAXAXAXzXZ.x r.N.].OX1X5X6X).,.fXAXAXAXAXAXAXAXAXAXAXAXAX",
"AXAXAXAXAXAXAXAXAXAXAXAXyX% ( e.x.]..X2X9X0X9X).,.fXAXAXAXAXAXAXAXAXAXAXAX",
"AXAXAXAXAXAXAXAXAXAXAXAXyX+ k ( r.x.]..X2X6X9X9X).,.fXAXAXAXAXAXAXAXAXAXAX",
"AXAXAXAXAXAXAXAXAXAXAXzX*XH C Y ~ r.x.^.|..X2X9X9Xf.2.AXAXAXAXAXAXAXAXAXAX",
"AXAXAXAXAXAXAXAXAXAXzXS.u.3X^.8.U ( e.j.j.k.p.Q.$XB.eXAXAXAXAXAXAXAXAXAXAX",
"AXAXAXAXAXAXAXAXAXAXhX1.w.p.n.r.P S ( 7.9.q.@.{ &.,.fXAXAXAXAXAXAXAXAXAXAX",
"AXAXAXAXAXAXAXAXAXAXAXyXO q / U n x U 9.c.{.'.F.=.`.<.fXAXAXAXAXAXAXAXAXAX",
"AXAXAXAXAXAXAXAXAXAXAXhX;.& & b b b U q.n.XXXX]. X6X).2.AXAXAXAXAXAXAXAXAX",
"AXAXAXAXAXAXAXAXAXAXAXAXhX;., w b x S / r.(.>X7Xc.).B.eXAXAXAXAXAXAXAXAXAX",
"AXAXAXAXAXAXAXAXAXAXAXAXzXS.l f w b B E r.c.%X;Xb K eXAXAXAXAXAXAXAXAXAXAX",
"AXAXAXAXAXAXAXAXAXAXAXzXS./ ].p.k , k ( e.r.R G c 2.AXAXAXAXAXAXAXAXAXAXAX",
"AXAXAXAXAXAXAXAXAXAXzXS.R XX$X#Xf., , w U e.n.OXg.2.AXAXAXAXAXAXAXAXAXAXAX",
"AXAXAXAXAXAXAXAXAXAXyXf {.$X4XXXn.9.$.g w n D / ) eXAXAXAXAXAXAXAXAXAXAXAX",
"AXAXAXAXAXAXAXAXAXAXyXq !.XXOXn.8.k.{.n.( $ < 3.eXAXAXAXAXAXAXAXAXAXAXAXAX",
"AXAXAXAXAXAXAXAXAXzXZ.k e.].b.S S n..X.XM.U 2.AXAXAXAXAXAXAXAXAXAXAXAXAXAX",
"AXAXAXAXAXAXAXAXAXyX= 9.e.q.m q / q.k.v.i.) eXAXAXAXAXAXAXAXAXAXAXAXAXAXAX",
"AXAXAXAXAXAXAXAXAXyX, e.l.V @ b S ~ Y U g 2.AXAXAXAXAXAXAXAXAXAXAXAXAXAXAX",
"AXAXAXAXAXAXAXAXAXhX:.$.|.E.v ; 5 5 r u J eXAXAXAXAXAXAXAXAXAXAXAXAXAXAXAX",
"AXAXAXAXAXAXAXAXAXAXyXv @X#Xg.  . X 2 3 >.aXBXAXAXAXAXAXAXAXAXAXAXAXAXAXAX",
"AXAXAXAXAXAXAXAXAXCXdXC.E.+X*.3 4 s | o.} 5.bXnXBXAXAXAXAXAXAXAXAXAXAXAXAX",
"AXAXAXAXAXAXAXAXCXbXMXkX&X#.o ` G.O.] [ a P.MXMXcXBXAXAXAXAXAXAXAXAXAXAXAX",
"AXAXAXAXAXAXAXAXNXMXMXMXpXO 6 d -.K.D...[ U.iXjXnXcXAXAXAXAXAXAXAXAXAXAXAX",
"AXAXAXAXAXAXAXCXbXMXMXMXpX$ Y / M 1 p _ H.L.X.Y.iXgXBXAXAXAXAXAXAXAXAXAXAX",
"AXAXAXAXAXAXAXmXMXMXMXMXkXV.n S & + , 6 d <XqXR.X.Y.sXAXAXAXAXAXAXAXAXAXAX",
"AXAXAXAXAXAXAXNXMXMXMXnXnXkXV.U k i =X=XwX:X,XL.J.+.4.AXAXAXAXAXAXAXAXAXAX",
"AXAXAXAXAXAXAXBXcXnXMXMXMXMXkXwXS.uXNXMXMXkXwXwXwXP.rXAXAXAXAXAXAXAXAXAXAX",
"AXAXAXAXAXAXAXAXNXnXMXnXMXMXMXbXMXMXNXMXMXMXMXMXMXcXAXAXAXAXAXAXAXAXAXAXAX",
"AXAXAXAXAXAXAXAXVXbXnXnXMXMXMXMXMXMXMXMXMXMXMXMXcXnXAXAXAXAXAXAXAXAXAXAXAX",
"AXAXAXAXAXAXAXAXAXVXbXbXMXMXMXMXMXMXMXbXMXMXMXcXnXAXAXAXAXAXAXAXAXAXAXAXAX",
"AXAXAXAXAXAXAXAXAXAXAXBXcXcXcXcXcXcXcXcXcXcXbXAXAXAXAXAXAXAXAXAXAXAXAXAXAX"
};
