/* XPM */
static char *r_4[] = {
/* columns rows colors chars-per-pixel */
"37 37 231 2",
"   c #2A3F15",
".  c #332118",
"X  c #35241A",
"o  c #312817",
"O  c #3B2A1D",
"+  c #3C2D1E",
"@  c #3E2F1F",
"#  c #343418",
"$  c #343B18",
"%  c #2D4717",
"&  c #2F4817",
"*  c #324A18",
"=  c #334C19",
"-  c #354F1A",
";  c #364F1A",
":  c #3C4E1C",
">  c #36501A",
",  c #39531B",
"<  c #3B551C",
"1  c #3C561C",
"2  c #3D581D",
"3  c #3F5A1E",
"4  c #44291D",
"5  c #443E1E",
"6  c #413221",
"7  c #433422",
"8  c #493E24",
"9  c #543625",
"0  c #533B28",
"q  c #5B3D27",
"w  c #683C2B",
"e  c #683F2B",
"r  c #43521F",
"t  c #40591E",
"y  c #415B1E",
"u  c #425C1F",
"i  c #425D1F",
"p  c #435D1F",
"a  c #435E1F",
"s  c #44591E",
"d  c #455D1F",
"f  c #564A1C",
"g  c #475721",
"h  c #465E20",
"j  c #475E20",
"k  c #475E2C",
"l  c #4D5A23",
"z  c #524B23",
"x  c #594524",
"c  c #5F5520",
"v  c #466020",
"b  c #496020",
"n  c #4A6020",
"m  c #4A6522",
"M  c #4E6322",
"N  c #4F6322",
"B  c #4F6024",
"V  c #4C6422",
"C  c #4E6723",
"Z  c #4D6823",
"A  c #4E6A24",
"S  c #4F6A24",
"D  c #4F6B24",
"F  c #506B24",
"G  c #516A24",
"H  c #516D25",
"J  c #526C25",
"K  c #526D25",
"L  c #536F26",
"P  c #576F26",
"I  c #537026",
"U  c #547126",
"Y  c #567227",
"T  c #577327",
"R  c #577428",
"E  c #587528",
"W  c #597428",
"Q  c #587628",
"!  c #597628",
"~  c #5A7628",
"^  c #5A7629",
"/  c #5E7428",
"(  c #5B7829",
")  c #5E7B2A",
"_  c #5F7B2A",
"`  c #5A7338",
"'  c #6C412D",
"]  c #644D31",
"[  c #675032",
"{  c #6A5836",
"}  c #704230",
"|  c #714730",
" . c #7A4D37",
".. c #7B5035",
"X. c #607D2B",
"o. c #617E2B",
"O. c #627E2C",
"+. c #627F2C",
"@. c #667A2A",
"#. c #6F782B",
"$. c #6C7F39",
"%. c #4D5D41",
"&. c #526143",
"*. c #546541",
"=. c #566645",
"-. c #58664E",
";. c #596A43",
":. c #5A6A46",
">. c #5D6C44",
",. c #5B6851",
"<. c #5D6E52",
"1. c #637046",
"2. c #647149",
"3. c #667955",
"4. c #7E6F43",
"5. c #7C715B",
"6. c #6A7960",
"7. c #6E7D65",
"8. c #62802C",
"9. c #64822D",
"0. c #65822D",
"q. c #67822D",
"w. c #68842E",
"e. c #68852E",
"r. c #6A872F",
"t. c #6B872F",
"y. c #6D872F",
"u. c #6D8930",
"i. c #6E8830",
"p. c #708830",
"a. c #708C31",
"s. c #728C31",
"d. c #738E32",
"f. c #798E32",
"g. c #729032",
"h. c #759133",
"j. c #749233",
"k. c #7A9033",
"l. c #7B9133",
"z. c #789534",
"x. c #799735",
"c. c #7A9735",
"v. c #7D9836",
"b. c #7D9A36",
"n. c #7F9A37",
"m. c #7F9C37",
"M. c #6F8649",
"N. c #758840",
"B. c #835739",
"V. c #87533C",
"C. c #855A3B",
"Z. c #AA602C",
"A. c #875B49",
"S. c #916041",
"D. c #9D6F47",
"F. c #977344",
"G. c #89726C",
"H. c #A17449",
"J. c #A9784E",
"K. c #A27D56",
"L. c #839134",
"P. c #809836",
"I. c #839937",
"U. c #859D38",
"Y. c #849F38",
"T. c #859E38",
"R. c #8F9E38",
"E. c #86A039",
"W. c #8AA33A",
"Q. c #8BA33A",
"!. c #8CA53B",
"~. c #8EA63B",
"^. c #91A13A",
"/. c #97A53B",
"(. c #91A83C",
"). c #93A93D",
"_. c #96AB3D",
"`. c #98A63B",
"'. c #98A93D",
"]. c #98AC3E",
"[. c #9AAE3E",
"{. c #9BAE3F",
"}. c #9CA93D",
"|. c #82897D",
" X c #87A043",
".X c #9FB140",
"XX c #AD8C5A",
"oX c #B18951",
"OX c #BF9258",
"+X c #A0B140",
"@X c #A4B240",
"#X c #A5B541",
"$X c #AAB843",
"%X c #AAB943",
"&X c #ACBA43",
"*X c #AABA5F",
"=X c #B3BF45",
"-X c #B7C146",
";X c #BBC447",
":X c #BEC648",
">X c #C1925A",
",X c #8B9386",
"<X c #91918C",
"1X c #92968D",
"2X c #94918E",
"3X c #94998E",
"4X c #949A8E",
"5X c #969B8E",
"6X c #969F92",
"7X c #A79997",
"8X c #AAB68B",
"9X c #BBBDBA",
"0X c #BEBABA",
"qX c #BFBEBD",
"wX c #BFC0BD",
"eX c #C0C0BE",
"rX c #CDCECC",
"tX c #CFD1D1",
"yX c #D0D1D0",
"uX c #D3D0D2",
"iX c #DFDFE1",
"pX c #E0E0E1",
"aX c #E0E0E2",
"sX c #E2E2E3",
"dX c #E2E2E5",
"fX c #E5E5E8",
"gX c #ECECEC",
"hX c gray94",
"jX c #F9F9F9",
"kX c gray100",
"lX c None",
/* pixels */
"lXlXlXlXlXlXlXlXlXlXlXlXlXlXlXlXlXlXlXlXlXlXlXlXlXlXlXlXlXlXlXlXlXlXlXlXlX",
"lXlXlXlXlXlXlXlXlXlXlXlXlXlXlXlXlXrX9X9X9X9X9XgXlXlXlXlXlXlXlXlXlXlXlXlXlX",
"lXlXlXlXlXlXlXlXlXlXlXlXlXlXlXlXrX*.2 2 a h a 4XgXlXlXlXlXlXlXlXlXlXlXlXlX",
"lXlXlXlXlXlXlXlXlXlXlXlXlXlXlXrX*.) c.E.).[..X/ 3XgXlXlXlXlXlXlXlXlXlXlXlX",
"lXlXlXlXlXlXlXlXlXlXlXlXlXlXrX*.W z.b.).[..X-X%X/ 3XgXlXlXlXlXlXlXlXlXlXlX",
"lXlXlXlXlXlXlXlXlXlXlXlXlXlX-.D 8.g.b.!._.&X;X;X%X/ 3XgXlXlXlXlXlXlXlXlXlX",
"lXlXlXlXlXlXlXlXlXlXlXlXlXlX-.a ) 8.g.b.!._.&X-X;X%X/ 3XgXlXlXlXlXlXlXlXlX",
"lXlXlXlXlXlXlXlXlXlXlXlXlXlX-.< R 8.0.g.b.!.)._.&X;X%Xh qXlXlXlXlXlXlXlXlX",
"lXlXlXlXlXlXlXlXlXlXlXlXlXrX1.b F ) ) 8.d.x.x.P.l.@X}.2.yXlXlXlXlXlXlXlXlX",
"lXlXlXlXlXlXlXlXlXlXlXlXrX>./.[.h.W Z Q 8.8.r.o.f #.C 3XgXlXlXlXlXlXlXlXlX",
"lXlXlXlXlXlXlXlXlXlXlXlX|.$.f.v.c.8.H Z ) r.v.E.Z.c d.t qXlXlXlXlXlXlXlXlX",
"lXlXlXlXlXlXlXlXlXlXlXlXlX-.& W o.H Z Z ) z.~.[.E.Y.[.@.5XgXlXlXlXlXlXlXlX",
"lXlXlXlXlXlXlXlXlXlXlXlXlX|.k > v Z Z Z ) g.W._.!.!.%X;XC qXlXlXlXlXlXlXlX",
"lXlXlXlXlXlXlXlXlXlXlXlXlXlX-.< a m Z Z W o.x.!.*X XT.^.2.yXlXlXlXlXlXlXlX",
"lXlXlXlXlXlXlXlXlXlXlXlXlXlX-., 2 t m Z H o.z.h.8XM.U =.yXlXlXlXlXlXlXlXlX",
"lXlXlXlXlXlXlXlXlXlXlXlXlXrX;.d.E.P a a T 8.g.o.M M * qXlXlXlXlXlXlXlXlXlX",
"lXlXlXlXlXlXlXlXlXlXlXlXrX:.u..X.X_.F 2 a D o.g.W.#Xb wXlXlXlXlXlXlXlXlXlX",
"lXlXlXlXlXlXlXlXlXlXlXlX-.0.).&X.X).d.v.P t D H +.8.:.yXlXlXlXlXlXlXlXlXlX",
"lXlXlXlXlXlXlXlXlXlXlXlX-.8.W._.).d.8.Y._.!.H & %.,.yXlXlXlXlXlXlXlXlXlXlX",
"lXlXlXlXlXlXlXlXlXlXlXrX*.Q z.!.d.2 W g.P.P.u.:.yXlXlXlXlXlXlXlXlXlXlXlXlX",
"lXlXlXlXlXlXlXlXlXlXlX-.T u.g.u.2 v W ) T H = qXlXlXlXlXlXlXlXlXlXlXlXlXlX",
"lXlXlXlXlXlXlXlXlXlXlX-.W P.0.> a D D H ) ) > qXlXlXlXlXlXlXlXlXlXlXlXlXlX",
"lXlXlXlXlXlXlXlXlXlXlX-.y.).p.; : r r l g r &.yXlXlXlXlXlXlXlXlXlXlXlXlXlX",
"lXlXlXlXlXlXlXlXlXlXlX-.f.[..Xh o . X + @ 7 2XgXlXlXlXlXlXlXlXlXlXlXlXlXlX",
"lXlXlXlXlXlXlXlXlXlXlX|.$._.`.l q 9 0 [ { 4.6 qXlXlXlXlXlXlXlXlXlXlXlXlXlX",
"lXlXlXlXlXlXlXlXlXlXlXrX1.L.s 8  ...e w 9 ] + <XgXlXlXlXlXlXlXlXlXlXlXlXlX",
"lXlXlXlXlXlXlXlXlXlXlX-.R./ t z x D.S.V.e } 4 # 1X9X9XgXlXlXlXlXlXlXlXlXlX",
"lXlXlXlXlXlXlXlXlXlXhX,XN.v.u.W T 5.G.G.A.J.B.| 5 $   qXlXlXlXlXlXlXlXlXlX",
"lXlXlXlXlXlXlXlXlXlXiXfX6.8.< <.7.tXfXfX7XK.>X>XC.| 5 wXlXlXlXlXlXlXlXlXlX",
"lXlXlXlXlXlXlXlXlXhXaXfX6X` 3.tXfXfXfXfXfX7XXXoXH.D.e 0XjXlXlXlXlXlXlXlXlX",
"lXlXlXlXlXlXlXlXlXiXfXfXfX6XtXfXfXfXfXfXfXfX7XG.G.G.G.yXgXlXlXlXlXlXlXlXlX",
"lXlXlXlXlXlXlXlXlXiXfXfXfXfXfXfXfXfXfXfXfXfXfXfXfXfXfXfXgXlXlXlXlXlXlXlXlX",
"lXlXlXlXlXlXlXlXlXaXsXfXfXfXfXfXfXfXfXfXfXfXfXfXfXfXfXsXhXlXlXlXlXlXlXlXlX",
"lXlXlXlXlXlXlXlXlXlXaXfXfXfXfXfXfXfXfXfXfXfXfXfXfXfXfXgXlXlXlXlXlXlXlXlXlX",
"lXlXlXlXlXlXlXlXlXlXaXsXfXfXfXfXfXfXfXfXfXfXfXfXfXfXaXhXlXlXlXlXlXlXlXlXlX",
"lXlXlXlXlXlXlXlXlXlXlXsXsXsXfXfXfXfXfXfXfXfXfXfXaXaXhXlXlXlXlXlXlXlXlXlXlX",
"lXlXlXlXlXlXlXlXlXlXlXlXlXsXiXaXuXfXsXsXaXaXaXaXhXlXlXlXlXlXlXlXlXlXlXlXlX"
};
