/* XPM */
static char *u_1[] = {
/* columns rows colors chars-per-pixel */
"37 37 252 2",
"   c #2E2A17",
".  c #2C2D16",
"X  c #322218",
"o  c #332319",
"O  c #36261B",
"+  c #312D18",
"@  c #38271B",
"#  c #3A291D",
"$  c #3B2F1D",
"%  c #3B2F1E",
"&  c #3D2C1E",
"*  c #343219",
"=  c #37351A",
"-  c #38301B",
";  c #38371A",
":  c #3C3E1C",
">  c #3F3C1E",
",  c #2C4516",
"<  c #2E4717",
"1  c #324618",
"2  c #334C19",
"3  c #354F1A",
"4  c #36501A",
"5  c #37511A",
"6  c #39531B",
"7  c #3A541C",
"8  c #3C561C",
"9  c #3D571D",
"0  c #3E581D",
"q  c #3F5A1E",
"w  c #3D502F",
"e  c #4D2D20",
"r  c #433121",
"t  c #433122",
"y  c #453323",
"u  c #513E29",
"i  c #5E3828",
"p  c #653C29",
"a  c #414B1E",
"s  c #434E1E",
"d  c #40531E",
"f  c #405A1E",
"g  c #43591E",
"h  c #415C1E",
"j  c #425D1F",
"k  c #435D1F",
"l  c #474321",
"z  c #464920",
"x  c #484C21",
"c  c #475721",
"v  c #445F20",
"b  c #49593C",
"n  c #51402A",
"m  c #53402A",
"M  c #56452C",
"N  c #5B4A2C",
"B  c #466120",
"V  c #476221",
"C  c #496121",
"Z  c #486321",
"A  c #4B6321",
"S  c #4A6522",
"D  c #4B6723",
"F  c #4C6023",
"G  c #4C6323",
"H  c #4D6723",
"J  c #516924",
"K  c #506B24",
"L  c #516C25",
"P  c #516D25",
"I  c #556924",
"U  c #566F26",
"Y  c #596E26",
"T  c #566C3F",
"R  c #537026",
"E  c #577127",
"W  c #567227",
"Q  c #597128",
"!  c #5A7528",
"~  c #5A7729",
"^  c #5F7228",
"/  c #5C7729",
"(  c #5B7829",
")  c #5C792A",
"_  c #5D792A",
"`  c #5D7A2A",
"'  c #5E7A2A",
"]  c #5E7B2A",
"[  c #5F7C2B",
"{  c #5D723B",
"}  c #614238",
"|  c #754532",
" . c #724830",
".. c #754932",
"X. c #7C5434",
"o. c #61782A",
"O. c #607A2A",
"+. c #617A2A",
"@. c #607D2B",
"#. c #617C2B",
"$. c #617F2C",
"%. c #667E2C",
"&. c #6B7E2E",
"*. c #67783E",
"=. c #57694B",
"-. c #5D6F44",
";. c #5B6851",
":. c #725844",
">. c #7A5546",
",. c #616253",
"<. c #606E53",
"1. c #616D58",
"2. c #627246",
"3. c #6B7848",
"4. c #637155",
"5. c #6A7757",
"6. c #6F7465",
"7. c #75706D",
"8. c #747D6D",
"9. c #7B7673",
"0. c #7B7E73",
"q. c #63802C",
"w. c #64802C",
"e. c #65812D",
"r. c #64822D",
"t. c #66822D",
"y. c #67842E",
"u. c #67852E",
"i. c #69872F",
"p. c #6B882F",
"a. c #6D882F",
"s. c #6B8930",
"d. c #6C8A30",
"f. c #6D8A30",
"g. c #6E8A30",
"h. c #6F8C31",
"j. c #6F8D31",
"k. c #72862F",
"l. c #708E32",
"z. c #718E32",
"x. c #728E32",
"c. c #778B31",
"v. c #7F8E32",
"b. c #749133",
"n. c #749233",
"m. c #769033",
"M. c #769133",
"N. c #779334",
"B. c #779434",
"V. c #799233",
"C. c #789534",
"Z. c #7A9735",
"A. c #7C9836",
"S. c #7C9936",
"D. c #7F9836",
"F. c #7F9C37",
"G. c #748141",
"H. c #778768",
"J. c #788072",
"K. c #7B8373",
"L. c #7C8574",
"P. c #815838",
"I. c #815E49",
"U. c #9D6B48",
"Y. c #9F7747",
"T. c #8D7E79",
"R. c #A6764C",
"E. c #829133",
"W. c #809234",
"Q. c #859635",
"!. c #839A37",
"~. c #839C37",
"^. c #829E38",
"/. c #849F38",
"(. c #889B38",
"). c #8D9C38",
"_. c #8E9F39",
"`. c #909D38",
"'. c #87A139",
"]. c #89A23A",
"[. c #8BA33A",
"{. c #8EA53B",
"}. c #8EA63B",
"|. c #90A33A",
" X c #91A43B",
".X c #92A53B",
"XX c #97A73C",
"oX c #91A83C",
"OX c #92A83C",
"+X c #9AAA3D",
"@X c #98AC3E",
"#X c #9CAB3E",
"$X c #9DAF3F",
"%X c #9EB03F",
"&X c #81867A",
"*X c #808875",
"=X c #838A75",
"-X c #90837B",
";X c #92857B",
":X c #9FB140",
">X c #BE8F58",
",X c #A5B140",
"<X c #A4B441",
"1X c #A5B541",
"2X c #A7B642",
"3X c #A8B742",
"4X c #AEBB44",
"5X c #AFBC44",
"6X c #B3BF45",
"7X c #B7C146",
"8X c #B9C347",
"9X c #BEC648",
"0X c #CA9E5D",
"qX c #8D8F87",
"wX c #889482",
"eX c #8C9787",
"rX c #929D8A",
"tX c #9B9F97",
"yX c #9FA39C",
"uX c #A39C9A",
"iX c #A59F9E",
"pX c #A7A09E",
"aX c #A6A3A3",
"sX c #ACB2AA",
"dX c #AFB2AE",
"fX c #AFB5AE",
"gX c #B2B5B0",
"hX c #B5B6B3",
"jX c #B5B7B3",
"kX c #B9B5B4",
"lX c #BBBDBA",
"zX c #BEC3BF",
"xX c #C3C6C3",
"cX c #CACDCC",
"vX c #D1D2D1",
"bX c #D0D2D2",
"nX c #D3D1D1",
"mX c #D8D9DA",
"MX c #DFDFE1",
"NX c #E0E0E1",
"BX c #E1E1E0",
"VX c #E0E0E2",
"CX c #E1E1E4",
"ZX c gray90",
"AX c #E6E6E6",
"SX c #E5E5E8",
"DX c #EAEAEA",
"FX c gray92",
"GX c #F1F1F1",
"HX c gray96",
"JX c gray100",
"KX c None",
/* pixels */
"KXKXKXKXKXKXKXKXKXKXKXKXKXKXKXKXKXKXKXKXKXKXKXKXKXKXKXKXKXKXKXKXKXKXKXKXKX",
"KXKXKXKXKXKXKXKXKXKXKXKXKXKXKXKXKXKXKXKXKXKXKXKXKXKXKXKXKXKXKXKXKXKXKXKXKX",
"KXKXKXKXKXKXKXKXKXKXKXKXKXKXlX1.1.1.1.tXKXKXKXKXKXKXKXKXKXKXKXKXKXKXKXKXKX",
"KXKXKXKXKXKXKXKXKXKXKXKXKXlX2.D.`.`.Q.*.tXKXKXKXKXKXKXKXKXKXKXKXKXKXKXKXKX",
"KXKXKXKXKXKXKXKXKXKXKXKXlX2._.7X9X9X9X+X*.tXKXKXKXKXKXKXKXKXKXKXKXKXKXKXKX",
"KXKXKXKXKXKXKXKXKXKXKXlX2._.7X9X9X9X9X6X+X*.tXKXKXKXKXKXKXKXKXKXKXKXKXKXKX",
"KXKXKXKXKXKXKXKXKXKXlX-.M.2X9X9X9X9X9X9X4X!.{ tXKXKXKXKXKXKXKXKXKXKXKXKXKX",
"KXKXKXKXKXKXKXKXlX1.b S ].2X9X9X9X9X9X9X4X{./ w 1.tXKXKXKXKXKXKXKXKXKXKXKX",
"KXKXKXKXKXKXKXlX3.Q.o.! ].:X4X9X9X9X9X7X%X}.t.E W.3.tXKXKXKXKXKXKXKXKXKXKX",
"KXKXKXKXKXKXlX2.(.@XM.p.'.@X$X4X9X8X7X%X@X}.x.p.XXXX*.tXKXKXKXKXKXKXKXKXKX",
"KXKXKXKXKXKXBX*XC E q.e.^.}.@X%X1X1X%X@XOX'.p.[ ] A 5.vXKXKXKXKXKXKXKXKXKX",
"KXKXKXKXKXKXKXBXjXL.5 L F.^.}.@X@X@X@XOX~.F.[ 3 4.gXvXKXKXKXKXKXKXKXKXKXKX",
"KXKXKXKXKXKXKXKXKXBXJ.k M.F.^.'.'.'.'.~.~.C.P ;.vXKXKXKXKXKXKXKXKXKXKXKXKX",
"KXKXKXKXKXKXKXKXKXlXb 6 ) s.M.F.F.F.Z.p.p.w.k 8.KXKXKXKXKXKXKXKXKXKXKXKXKX",
"KXKXKXKXKXKXKXKXlX-.E 8 f ! u.s.p.p.i.r.] B B { tXKXKXKXKXKXKXKXKXKXKXKXKX",
"KXKXKXKXKXKXKXlX-.M.~.) 8 5 7 7 8 7 7 7 4 B M.D.{ tXKXKXKXKXKXKXKXKXKXKXKX",
"KXKXKXKXKXKXKXyXJ %X2X~.q.D k k j j q j Z ) C.[.}.3.pXKXKXKXKXKXKXKXKXKXKX",
"KXKXKXKXKXKXKXyX^ 7X2XS.b.p.) ) ` ` ` ` u.j.u.M.XX%X3.tXKXKXKXKXKXKXKXKXKX",
"KXKXKXKXKXKXKXyXY 4XXX[ j.Z.B.j.` ~ p.C.Z.M.L C a.OXk.8.KXKXKXKXKXKXKXKXKX",
"KXKXKXKXKXKXKXyXH OXc.f ) b.B.s.q.q.u.n.C.e.k C .X5X,Xk.tXKXKXKXKXKXKXKXKX",
"KXKXKXKXKXKXKXyXk j.o.8 f ) i.e.` ~ r.u.q.V < o.).I E.W.8.KXKXKXKXKXKXKXKX",
"KXKXKXKXKXKXKXBXL.k L q 3 J / e.q.` r.[ P 8 ;.*Xs + s g 8.KXKXKXKXKXKXKXKX",
"KXKXKXKXKXKXKXKXBXL.2 ;.0.* 7 ! ` ~ ` c * ;.nXBXkX9.$ N :.uXKXKXKXKXKXKXKX",
"KXKXKXKXKXKXKXKXKXBXjXcXaXo & = ; ; ; * O 7.KXKXKXuXe i | >.uXKXKXKXKXKXKX",
"KXKXKXKXKXKXKXKXDXMXVXSXdX. # t u M y # . &XVXCXKXBXkXkXT.| >.uXKXKXKXKXKX",
"KXKXKXKXKXKXKXDXCXSXSXSXfX1 : & u u t l F wXSXCXZXKXKXKXBXT.| >.uXKXKXKXKX",
"KXKXKXKXKXKXKXZXSXSXSXSXfX7 Q z O o > &.%.wXSXSXNXKXKXKXKXpX| U.I.pXKXKXKX",
"KXKXKXKXKXKXFXBXSXSXSXxX=.7 ! G 6.qX9 b.o.wXSXSXCXZXKXKXKXpXP.>XR.>.uXKXKX",
"KXKXKXKXKXKXZXSXSXSXSXmXeX, 3 H.nXfXq u.! -.sXSXSXBXKXKXKXBX-XY.0XR.>.pXKX",
"KXKXKXKXKXKXZXSXSXSXSXSXmXzXzXbXSXmXrX7 5 < wXCXSXBXKXKXKXKXBX;XX. .p } uX",
"KXKXKXKXKXKXHXBXSXSXSXSXSXSXSXSXSXSXmXzXzXzXbXSXMXGXKXKXKXKXKXBXkXkXkXkXnX",
"KXKXKXKXKXKXKXSXSXSXSXSXSXSXSXSXSXSXSXSXSXSXSXSXBXKXKXKXKXKXKXKXKXKXKXKXKX",
"KXKXKXKXKXKXKXHXBXSXSXSXSXSXSXSXSXSXSXSXSXSXSXBXGXKXKXKXKXKXKXKXKXKXKXKXKX",
"KXKXKXKXKXKXKXKXHXDXBXSXSXSXSXSXSXSXSXSXSXMXDXGXKXKXKXKXKXKXKXKXKXKXKXKXKX",
"KXKXKXKXKXKXKXKXKXKXHXDXDXDXDXDXDXDXDXDXDXGXKXKXKXKXKXKXKXKXKXKXKXKXKXKXKX",
"KXKXKXKXKXKXKXKXKXKXKXKXKXKXKXKXKXKXKXKXKXKXKXKXKXKXKXKXKXKXKXKXKXKXKXKXKX",
"KXKXKXKXKXKXKXKXKXKXKXKXKXKXKXKXKXKXKXKXKXKXKXKXKXKXKXKXKXKXKXKXKXKXKXKXKX"
};
