/* XPM */
static char *u_2[] = {
/* columns rows colors chars-per-pixel */
"37 37 229 2",
"   c #2B1B15",
".  c #2D2616",
"X  c #273B14",
"o  c #293715",
"O  c #302017",
"+  c #322219",
"@  c #34241A",
"#  c #37271B",
"$  c #352B1A",
"%  c #3B251B",
"&  c #3C2C1E",
"*  c #3E2C1E",
"=  c #3F301F",
"-  c #3E321F",
";  c #274014",
":  c #2A4315",
">  c #2D4416",
",  c #2C4616",
"<  c #2F4917",
"1  c #37421C",
"2  c #324B18",
"3  c #324C18",
"4  c #344E19",
"5  c #354E19",
"6  c #37511A",
"7  c #37521B",
"8  c #38521B",
"9  c #39531B",
"0  c #39541B",
"q  c #3D571D",
"w  c #3F561D",
"e  c #3D581D",
"r  c #3F591E",
"t  c #3F5A1E",
"y  c #364825",
"u  c #402F20",
"i  c #443222",
"p  c #4F3C28",
"a  c #633929",
"s  c #683F2B",
"d  c #41451E",
"f  c #404A1E",
"g  c #44511F",
"h  c #41591E",
"j  c #405B1E",
"k  c #415B1E",
"l  c #43591E",
"z  c #415C1F",
"x  c #445A1E",
"c  c #475720",
"v  c #465528",
"b  c #475E20",
"n  c #455D28",
"m  c #415434",
"M  c #4B5B3F",
"N  c #57452D",
"B  c #5F422D",
"V  c #58593D",
"C  c #466120",
"Z  c #486321",
"A  c #4D6221",
"S  c #4C6522",
"D  c #4F6422",
"F  c #4C642E",
"G  c #4E6A24",
"H  c #4F6A24",
"J  c #4C6038",
"K  c #516325",
"L  c #506924",
"P  c #506D25",
"I  c #516D25",
"U  c #566A27",
"Y  c #576E26",
"T  c #526C2D",
"R  c #51643A",
"E  c #57683B",
"W  c #5D6C3D",
"Q  c #537026",
"!  c #547026",
"~  c #567327",
"^  c #5B7027",
"/  c #587528",
"(  c #597528",
")  c #5A7629",
"_  c #5C772A",
"`  c #5C7829",
"'  c #5C792A",
"]  c #5F7A2A",
"[  c #5F7C2B",
"{  c #63463D",
"}  c #655434",
"|  c #607D2B",
" . c #617E2C",
".. c #627F2C",
"X. c #504642",
"o. c #544A45",
"O. c #5A5945",
"+. c #536345",
"@. c #59634F",
"#. c #59664F",
"$. c #596947",
"%. c #5B6C4E",
"&. c #5C6B48",
"*. c #5F6953",
"=. c #705044",
"-. c #735445",
";. c #73594F",
":. c #715D56",
">. c #676557",
",. c #637648",
"<. c #647555",
"1. c #6C7D58",
"2. c #796152",
"3. c #7B6453",
"4. c #6D6362",
"5. c #6B7B62",
"6. c #767F6F",
"7. c #63802C",
"8. c #63812C",
"9. c #64802C",
"0. c #64822D",
"q. c #65832E",
"w. c #6A832E",
"e. c #68842E",
"r. c #68862E",
"t. c #6A862E",
"y. c #6C882F",
"u. c #6E8A30",
"i. c #708437",
"p. c #708C31",
"a. c #718D31",
"s. c #768A3D",
"d. c #7A8F33",
"f. c #739032",
"g. c #749133",
"h. c #769133",
"j. c #769334",
"k. c #779434",
"l. c #7A9033",
"z. c #789334",
"x. c #789434",
"c. c #789534",
"v. c #799635",
"b. c #7B9434",
"n. c #7C9735",
"m. c #7E9B36",
"M. c #7F9C37",
"N. c #72805A",
"B. c #814F39",
"V. c #885A3C",
"C. c #956043",
"Z. c #9C6E47",
"A. c #867874",
"S. c #A2714A",
"D. c #808D33",
"F. c #808F33",
"G. c #829736",
"H. c #819836",
"J. c #809D37",
"K. c #839E38",
"L. c #859D38",
"P. c #849F38",
"I. c #869C38",
"U. c #89A33A",
"Y. c #8EA53B",
"T. c #90A23A",
"R. c #92A33B",
"E. c #96A23A",
"W. c #91A83C",
"Q. c #93A93D",
"!. c #97AB3E",
"~. c #98A63C",
"^. c #98AC3E",
"/. c #9EA93D",
"(. c #9DAF3F",
"). c #9EAC3E",
"_. c #9DB03F",
"`. c #A0AD3E",
"'. c #A1AC3E",
"]. c #A0B03F",
"[. c #9FB140",
"{. c #B38353",
"}. c #B38852",
"|. c #B89253",
" X c #A8B742",
".X c #ADBB44",
"XX c #AEBB44",
"oX c #B4BF45",
"OX c #B6C046",
"+X c #B7C146",
"@X c #B9C247",
"#X c #BCC547",
"$X c #BEC648",
"%X c #C09259",
"&X c #8B9585",
"*X c #9EA29A",
"=X c #A0A49B",
"-X c #A1A49B",
";X c #AEB5AC",
":X c #BEC0BC",
">X c #C6C8C6",
",X c #CACBC9",
"<X c #CCCACA",
"1X c #CCCECD",
"2X c #CFCECE",
"3X c #CFCFCE",
"4X c #CFCED0",
"5X c #CFD0CF",
"6X c #CED0D0",
"7X c #D0CFCE",
"8X c #D3D4D5",
"9X c #D5D6D7",
"0X c #DBDBDA",
"qX c #DCDBDB",
"wX c #DFE0E2",
"eX c #E0E0E1",
"rX c #E0E0E2",
"tX c #E1E1E3",
"yX c #E3E3E6",
"uX c #E5E5E6",
"iX c #E5E5E8",
"pX c #ECECEC",
"aX c #EFEFEF",
"sX c gray94",
"dX c gray95",
"fX c #F3F3F3",
"gX c gray98",
"hX c gray100",
"jX c None",
/* pixels */
"jXjXjXjXjXjXjXjXjXjXjXjXjXjXjXjXjXjXjXjXjXjXjXjXjXjXjXjXjXjXjXjXjXjXjXjXjX",
"jXjXjXjXjXjXjXjXjXjXjXjXjXjXjXjXjXjXjXjXjXjXjXjXjXjXjXjXjXjXjXjXjXjXjXjXjX",
"jXjXjXjXjXjXjXjXjXjXjXjXjXjXjXjXjXjXjXjXjXjXjXjXjXjXjXjXjXjXjXjXjXjXjXjXjX",
"jXjXjXjXjXjXjXjXjXjXjXjXjXjXjXjXjXjXjXjXjXjXjXjXjXjXjXjXjXjXjXjXjXjXjXjXjX",
"jXjXjXjXjXjXjXjXjXjXjXjXjXjXjXjXjXjXjXjXjXjXjXjXjXjXjXjXjXjXjXjXjXjXjXjXjX",
"jXjXjXjXjXjXjXjXjXjXjXjXjXfX:X;X>X;X<XjXjXjXjXjXjXjXjXjXjXjXjXjXjXjXjXjXjX",
"jXjXjXjXjXjXjXjXjXjXjXjXdX=Xb D K D E <XjXjXjXjXjXjXjXjXjXjXjXjXjXjXjXjXjX",
"jXjXjXjXjXjXjXjXjXjXjXdX=XY  X$X$X$XY.E <XjXjXjXjXjXjXjXjXjXjXjXjXjXjXjXjX",
"jXjXjXjXjXjXjXjXjXjXdX=XY  X$X$X$X$X+XY.E ,XjXjXjXjXjXjXjXjXjXjXjXjXjXjXjX",
"jXjXjXjXjXjXjXjXjXdX=XL [.$X$X$X$X$X$X+XP.R ,XjXjXjXjXjXjXjXjXjXjXjXjXjXjX",
"jXjXjXjXjXjXjXdX;X*X8 P.[.$X$X$X$X$X$XoX!.u.m ;X<XjXjXjXjXjXjXjXjXjXjXjXjX",
"jXjXjXjXjXjXdX=XU j j P.[.oX$X$X$X$X#X.X!.u.5 b E ,XjXjXjXjXjXjXjXjXjXjXjX",
"jXjXjXjXjXdX=X^ XXI._ K.[.[.oX$X$X#XXX!.Q.j.[ !.).E <XjXjXjXjXjXjXjXjXjXjX",
"jXjXjXjXjX0X&.d.d.j.q.K.W.Q.[.oXoXoX!.!.Y.v...v.d.i.6.jXjXjXjXjXjXjXjXjXjX",
"jXjXjXjXjXjX3X: r P H M.K.Q.!.!.!.!.!.Y.M.a.C P #.6.jXjXjXjXjXjXjXjXjXjXjX",
"jXjXjXjXjXdX=XS  .5 7 v.M.K.W.W.Q.W.Y.m.M.e.: J ,XjXjXjXjXjXjXjXjXjXjXjXjX",
"jXjXjXjXjX3Xh _.n.G e _ a.c.v.v.z.v.v.j.y.G z ..R ,XjXjXjXjXjXjXjXjXjXjXjX",
"jXjXjXjXjX3Xx oXG.3 ~ 0 C Q Q Q Y Q Q H j e ` J.v.W <XjXjXjXjXjXjXjXjXjXjX",
"jXjXjXjXjX3Xx XXm.j Z Q 0 e 7 7 7 7 0 q e Q 8 K.^.`.W <XjXjXjXjXjXjXjXjXjX",
"jXjXjXjXjX0X$.d.b.a.0 Z ..j.0...[ ..r.j._ n $.t.d.^.!.M jXjXjXjXjXjXjXjXjX",
"jXjXjXjXjXjX3X3 ..a.Q , c U [  .H 0.` K v 6.3X2 w.Q.E.W ,XjXjXjXjXjXjXjXjX",
"jXjXjXjXjXjX0X+.Z _ F >.  $ c K x K f O X.pX>Xq ].E./.`.M jXjXjXjXjXjXjXjX",
"jXjXjXjXjXjXgX5X<.F &X1X. * + # * @ @ u O.1X8XN.D.o g d.M jXjXjXjXjXjXjXjX",
"jXjXjXjXjXjXdXiX9X&XiX1XX . i N } p u d _ %.iX8X@.o.- 1 V <XjXjXjXjXjXjXjX",
"jXjXjXjXjXgXuXuXiXiXwX;X< X . u i * d 0...,.1XyXaX3X% B B.=.<XjXjXjXjXjXjX",
"jXjXjXjXjXdXiXiXiXiX6X, e ; y 4.4.>._ j.U.G.%.iXeX0X:.:.;.B.=.<XjXjXjXjXjX",
"jXjXjXjXjXdXiXiXiXiX9X5.5.5.&XiXuX8X1.d.d.s.&XiXeXjXjXjX0X;.B.=.<XjXjXjXjX",
"jXjXjXjXjXdXwXiXiXiXiXiXiXiXiXiXiXiX8X5.5.&XiXyXeXjXjXjXjX3Xa C.-.<XjXjXjX",
"jXjXjXjXjXjXaXiXiXiXiXiXiXiXiXiXiXiXiXiXiXiXiXeXjXjXjXjXjX3Xs {.S.-.<XjXjX",
"jXjXjXjXjXjXdXwXiXiXiXiXiXiXiXiXiXiXiXiXiXiXyXeXjXjXjXjXjX0X2.}.%XS.-.<XjX",
"jXjXjXjXjXjXjXfXeXeXiXiXiXiXiXiXiXiXiXiXyXeXeXjXjXjXjXjXjXjXqX3.|.Z.V.{ <X",
"jXjXjXjXjXjXjXjXjXfXeXeXeXeXeXeXeXeXeXeXeXjXjXjXjXjXjXjXjXjXjXqX:.:.:.:.A.",
"jXjXjXjXjXjXjXjXjXjXjXjXjXjXjXjXjXjXjXjXjXjXjXjXjXjXjXjXjXjXjXjXjXjXjXjXjX",
"jXjXjXjXjXjXjXjXjXjXjXjXjXjXjXjXjXjXjXjXjXjXjXjXjXjXjXjXjXjXjXjXjXjXjXjXjX",
"jXjXjXjXjXjXjXjXjXjXjXjXjXjXjXjXjXjXjXjXjXjXjXjXjXjXjXjXjXjXjXjXjXjXjXjXjX",
"jXjXjXjXjXjXjXjXjXjXjXjXjXjXjXjXjXjXjXjXjXjXjXjXjXjXjXjXjXjXjXjXjXjXjXjXjX",
"jXjXjXjXjXjXjXjXjXjXjXjXjXjXjXjXjXjXjXjXjXjXjXjXjXjXjXjXjXjXjXjXjXjXjXjXjX"
};
