/* XPM */
static char *u_3[] = {
/* columns rows colors chars-per-pixel */
"37 37 248 2",
"   c #2A1B14",
".  c #2A2415",
"X  c #2B2415",
"o  c #2F2017",
"O  c #2E3D17",
"+  c #302118",
"@  c #322218",
"#  c #332319",
"$  c #322518",
"%  c #34241A",
"&  c #302D17",
"*  c #392A1D",
"=  c #37311A",
"-  c #333F1A",
";  c #38361A",
":  c #3D361C",
">  c #3A381B",
",  c #3B2F2A",
"<  c #274014",
"1  c #284114",
"2  c #2A4315",
"3  c #2B4415",
"4  c #2C4616",
"5  c #2E4717",
"6  c #2D421B",
"7  c #2F4817",
"8  c #2F4917",
"9  c #324218",
"0  c #304918",
"q  c #314A18",
"w  c #324A18",
"e  c #324C18",
"r  c #334C19",
"t  c #344C19",
"y  c #354D19",
"u  c #344E19",
"i  c #3F471F",
"p  c #37511A",
"a  c #37521B",
"s  c #39521B",
"d  c #3B551C",
"f  c #3C551C",
"g  c #3F571D",
"h  c #344A25",
"j  c #384D28",
"k  c #3F5729",
"l  c #402F1F",
"z  c #402E20",
"x  c #402F20",
"c  c #413020",
"v  c #423020",
"b  c #433121",
"n  c #433123",
"m  c #42312B",
"M  c #433D32",
"N  c #523B29",
"B  c #513F2A",
"V  c #5B3324",
"C  c #5E3E33",
"Z  c #683C2B",
"A  c #43521F",
"S  c #41591E",
"D  c #415B1E",
"F  c #425C1F",
"G  c #435D1F",
"H  c #485D1F",
"J  c #455720",
"K  c #455622",
"L  c #475920",
"P  c #475A21",
"I  c #455E22",
"U  c #475F20",
"Y  c #455B2B",
"T  c #495E20",
"R  c #4A5E2C",
"E  c #415632",
"W  c #55432C",
"Q  c #466120",
"!  c #476221",
"~  c #476125",
"^  c #486020",
"/  c #496021",
"(  c #486321",
")  c #4B6221",
"_  c #496422",
"`  c #4A6522",
"'  c #4E6422",
"]  c #4E6923",
"[  c #4F6A24",
"{  c #516623",
"}  c #536723",
"|  c #51632E",
" . c #526D25",
".. c #526E25",
"X. c #526E26",
"o. c #556927",
"O. c #547026",
"+. c #557127",
"@. c #567227",
"#. c #567327",
"$. c #547029",
"%. c #587327",
"&. c #597227",
"*. c #587528",
"=. c #5A7729",
"-. c #5C792A",
";. c #5D7A2A",
":. c #5E7C2B",
">. c #5F7D2B",
",. c #6D422E",
"<. c #6F442F",
"1. c #6A5936",
"2. c #607E2B",
"3. c #617F2C",
"4. c #627F2C",
"5. c #4C5C40",
"6. c #4E5D41",
"7. c #4E5E41",
"8. c #524B45",
"9. c #5E5451",
"0. c #506041",
"q. c #516142",
"w. c #526242",
"e. c #506045",
"r. c #5E6B55",
"t. c #6C554D",
"y. c #607253",
"u. c #617257",
"i. c #75625B",
"p. c #62802C",
"a. c #64812D",
"s. c #64822D",
"d. c #65832D",
"f. c #66842E",
"g. c #67842E",
"h. c #6B832F",
"j. c #68852E",
"k. c #69862E",
"l. c #69872F",
"z. c #6A882F",
"x. c #678230",
"c. c #6A8432",
"v. c #6C8A30",
"b. c #6D8B30",
"n. c #6F8B30",
"m. c #718E32",
"M. c #738E32",
"N. c #738F32",
"B. c #798D35",
"V. c #739032",
"C. c #779134",
"Z. c #779334",
"A. c #779434",
"S. c #789434",
"D. c #789534",
"F. c #799635",
"G. c #7A9635",
"H. c #7A9735",
"J. c #7C9735",
"K. c #7E9435",
"L. c #7F9435",
"P. c #7B9835",
"I. c #7C9936",
"U. c #7C9A36",
"Y. c #7D9A36",
"T. c #7E9936",
"R. c #7E9B37",
"E. c #7F9C37",
"W. c #72806A",
"Q. c #86533C",
"!. c #86543E",
"~. c #976144",
"^. c #996945",
"/. c #A6784C",
"(. c #AA7B4E",
"). c #AF7D51",
"_. c #B07F51",
"`. c #819636",
"'. c #839C37",
"]. c #819D38",
"[. c #849F38",
"{. c #889F39",
"}. c #929E39",
"|. c #939F3C",
" X c #89A139",
".X c #8CA33A",
"XX c #8FA43B",
"oX c #90A63C",
"OX c #90A73C",
"+X c #91A73C",
"@X c #95A73C",
"#X c #92A83C",
"$X c #93A93D",
"%X c #97A93D",
"&X c #96AA3D",
"*X c #96AB3D",
"=X c #97AC3E",
"-X c #98AC3E",
";X c #9BAE3F",
":X c #9CA83C",
">X c #9DA93D",
",X c #9CAE3F",
"<X c #9FB140",
"1X c #AB8250",
"2X c #BA9755",
"3X c #A3B441",
"4X c #ABB642",
"5X c #B2BE45",
"6X c #B3BE45",
"7X c #B6C046",
"8X c #B6C146",
"9X c #BBC347",
"0X c #BAC447",
"qX c #BBC447",
"wX c #BDC548",
"eX c #BEC648",
"rX c #C19459",
"tX c #B8BAB6",
"yX c #BBB8B7",
"uX c #BBB9B7",
"iX c #BCB8B7",
"pX c #C1C3C1",
"aX c #C0C5C0",
"sX c #C1C5C1",
"dX c #C8C9C7",
"fX c #CECFCD",
"gX c #DBDCDD",
"hX c #DCDBDC",
"jX c #DDDEE0",
"kX c #DFDFE1",
"lX c #E0E0E2",
"zX c #E2E2E4",
"xX c #E2E2E5",
"cX c #E3E3E6",
"vX c #E4E4E7",
"bX c #E7E7E7",
"nX c #E5E5E8",
"mX c #E7E8E7",
"MX c #EAEAEB",
"NX c #ECECEC",
"BX c #EEEEEE",
"VX c gray94",
"CX c #F8F8F8",
"ZX c #F9F9F9",
"AX c gray98",
"SX c #FDFDFD",
"DX c gray100",
"FX c None",
/* pixels */
"FXFXFXFXFXFXFXFXFXFXFXFXFXFXFXFXFXFXFXFXFXFXFXFXFXFXFXFXFXFXFXFXFXFXFXFXFX",
"FXFXFXFXFXFXFXFXFXFXFXFXFXfXdXdXdXdXAXFXFXFXFXFXFXFXFXFXFXFXFXFXFXFXFXFXFX",
"FXFXFXFXFXFXFXFXFXFXFXFXfXR H H T S tXAXFXFXFXFXFXFXFXFXFXFXFXFXFXFXFXFXFX",
"FXFXFXFXFXFXFXFXFXFXFXfXR *X9XeXeX3XT tXAXFXFXFXFXFXFXFXFXFXFXFXFXFXFXFXFX",
"FXFXFXFXFXFXFXFXFXFXfXR *XqXeXeXeXeX3XT tXAXFXFXFXFXFXFXFXFXFXFXFXFXFXFXFX",
"FXFXFXFXFXFXFXFXFXfXY XXqXeXeXeXeXeXeX,XI tXAXFXFXFXFXFXFXFXFXFXFXFXFXFXFX",
"FXFXFXFXFXFXFXfXdXh C.*XqXeXeXeXeXeXeX<X'.8 tXdXAXFXFXFXFXFXFXFXFXFXFXFXFX",
"FXFXFXFXFXFXfX| S q C.*X5XeXeXeXeXeX8X-XE.a g H tXAXFXFXFXFXFXFXFXFXFXFXFX",
"FXFXFXFXFXfXR 4X*X%.P.*X-X6XeXeXeX8X;X-X].O.XX5XT tXAXFXFXFXFXFXFXFXFXFXFX",
"FXFXFXFXFXr.B.L.G.3.I.+X-X-X5X8X8X;X-X$X].2.A.L.L.w.NXFXFXFXFXFXFXFXFXFXFX",
"FXFXFXFXFXFXr.e.$.! G.R.OX-X-X-X-X-X$X].R._ O.q.e.NXFXFXFXFXFXFXFXFXFXFXFX",
"FXFXFXFXFXFXFXfXh < N.I.R.OX$X$XOX$X].R.P.q 5.NXFXFXFXFXFXFXFXFXFXFXFXFXFX",
"FXFXFXFXFXFXfXk 0 1 *.A.G.R.R.R.'.P.P.A.p.4 mXFXFXFXFXFXFXFXFXFXFXFXFXFXFX",
"FXFXFXFXFXfXY 2.O.r G -.s.A.G.G.A.f.s.>.T f tXdXAXFXFXFXFXFXFXFXFXFXFXFXFX",
"FXFXFXFXFXj '.b.*.] r G O.#.#.#.#.#.#.! f I.! d tXAXFXFXFXFXFXFXFXFXFXFXFX",
"FXFXFXFXfXR 4X[.8 _  .a 0 8 8 8 8 8 8 r N.+XOX].S tXAXFXFXFXFXFXFXFXFXFXFX",
"FXFXFXFXj {.*Xb.q.I p.l.O. . . .O.O. .f.f.A.R.R. X_ tXAXFXFXFXFXFXFXFXFXFX",
"FXFXFXfXY I.G.q bXj >.P.b.l.f.2.p.l.l.R.x.*.l.I.OX5X} tXAXFXFXFXFXFXFXFXFX",
"FXFXFXj L.*XN.4 bXj *.G.R.P.s.O.p.A.R.P.p.4 5.g.C.+X5Xy mXFXFXFXFXFXFXFXFX",
"FXFXFXr.B.*X`.q.NXr.I ;.A.f.s.2.p.p.A.p.T 5.NXj O. X,X} tXAXFXFXFXFXFXFXFX",
"FXFXFXFXr.B.q.NXFXFXj _ >.s.s.X.p.f.>.] 1 mXFXj @X>X>X6Xy mXFXFXFXFXFXFXFX",
"FXFXFXFXFXr.NXFXFXFXr.A A ;.s.2.p.>.P P 5.NXFXr.|.- - }.q mXFXFXFXFXFXFXFX",
"FXFXFXFXFXFXFXFXFXFXVX, + A o.P o.P $   hXDXFXFXr.8.z - A tXAXFXFXFXFXFXFX",
"FXFXFXFXFXFXFXFXVXBXcXM l + # * % + l = sXmXNXDXFXFXm N Q.Z iXAXFXFXFXFXFX",
"FXFXFXFXFXFXFXBXnXnXnXE % , B 1.W x : l.4 gXnXmXSXFXi.t.t.!.Z iXAXFXFXFXFX",
"FXFXFXFXFXFXFXxXnXnXnXE ~ ; x b x X C.=XT sXnXnXCXFXFXFXFXi.!.Z iXAXFXFXFX",
"FXFXFXFXFXFXVXxXnXnXVXu.~ -.; X 9.6 A.XX=Xr gXnXmXDXFXFXFXFXC ~.<.yXAXFXFX",
"FXFXFXFXFXFXxXnXnXnXMXnXE I $.y.gXW.c.A.$Xs aXcXnXCXFXFXFXFXC (.).<.iXAXFX",
"FXFXFXFXFXFXxXnXnXnXnXnXu.u.u.kXbXnXE $.f._ 1 gXnXCXFXFXFXFXi.).rX_.<.iXAX",
"FXFXFXFXFXFXgXnXnXnXnXnXVXnXnXnXbXnXu.u.u.u.u.lXlXCXFXFXFXFXFXi.2X/.^.V tX",
"FXFXFXFXFXFXFXxXnXnXnXnXMXnXnXnXnXnXBXMXnXnXnXvXCXFXFXFXFXFXFXFXi.t.t.t.t.",
"FXFXFXFXFXFXFXkXnXnXnXnXnXnXnXnXnXnXnXnXnXnXnXlXAXFXFXFXFXFXFXFXFXFXFXFXFX",
"FXFXFXFXFXFXFXFXgXxXnXnXnXnXnXnXnXnXnXnXnXkXkXAXFXFXFXFXFXFXFXFXFXFXFXFXFX",
"FXFXFXFXFXFXFXFXFXFXkXkXkXkXxXkXkXkXkXxXkXAXFXFXFXFXFXFXFXFXFXFXFXFXFXFXFX",
"FXFXFXFXFXFXFXFXFXFXFXFXFXFXFXFXFXFXFXFXFXFXFXFXFXFXFXFXFXFXFXFXFXFXFXFXFX",
"FXFXFXFXFXFXFXFXFXFXFXFXFXFXFXFXFXFXFXFXFXFXFXFXFXFXFXFXFXFXFXFXFXFXFXFXFX",
"FXFXFXFXFXFXFXFXFXFXFXFXFXFXFXFXFXFXFXFXFXFXFXFXFXFXFXFXFXFXFXFXFXFXFXFXFX"
};
