/* XPM */
static char *u_4[] = {
/* columns rows colors chars-per-pixel */
"37 37 106 2",
"   c #291A14",
".  c #2A1B15",
"X  c #2E1E16",
"o  c #2E1E17",
"O  c #2E1F17",
"+  c #301D16",
"@  c #292014",
"#  c #2A2115",
"$  c #273A14",
"%  c #2D3F17",
"&  c #302018",
"*  c #35261A",
"=  c #274014",
"-  c #284115",
";  c #2D4616",
":  c #2D4716",
">  c #2E4717",
",  c #2E4018",
"<  c #314A18",
"1  c #314B18",
"2  c #314B19",
"3  c #354E19",
"4  c #354F1A",
"5  c #364F1A",
"6  c #3A461D",
"7  c #39511B",
"8  c #39521B",
"9  c #3F551C",
"0  c #3F561D",
"q  c #443221",
"w  c #443222",
"e  c #443721",
"r  c #443821",
"t  c #463B36",
"y  c #552E21",
"u  c #562F22",
"i  c #603728",
"p  c #633B29",
"a  c #475C21",
"s  c #445636",
"d  c #455637",
"f  c #56402B",
"g  c #54412C",
"h  c #476221",
"j  c #4D6823",
"k  c #516C25",
"l  c #557026",
"z  c #597327",
"x  c #5B7229",
"c  c #5A7729",
"v  c #5A7829",
"b  c #5B7829",
"n  c #6F5E39",
"m  c #607E2B",
"M  c #617E2B",
"N  c #534743",
"B  c #516443",
"V  c #516544",
"C  c #654940",
"Z  c #654A40",
"A  c #64822D",
"S  c #68862E",
"D  c #68862F",
"F  c #718D31",
"G  c #718E32",
"H  c #779434",
"J  c #7A9835",
"K  c #7B9835",
"L  c #7F9C37",
"P  c #8F5940",
"I  c #9C6547",
"U  c #9D6D48",
"Y  c #A97A4E",
"T  c #AD7B50",
"R  c #869B37",
"E  c #839E38",
"W  c #839F38",
"Q  c #89A33A",
"!  c #94A93D",
"~  c #94AA3D",
"^  c #98AC3E",
"/  c #9EB03F",
"(  c #9EB040",
")  c #B18052",
"_  c #BC9257",
"`  c #A6B140",
"'  c #B7C146",
"]  c #B8C146",
"[  c #B8C246",
"{  c #BDC548",
"}  c #BEC648",
"|  c #C09159",
" . c #CEAA5D",
".. c #D7D8D6",
"X. c #D8D9D7",
"o. c #D9D8D8",
"O. c #E0E0E3",
"+. c #E1E1E3",
"@. c #E5E5E7",
"#. c #E4E4E8",
"$. c #E5E5E8",
"%. c gray95",
"&. c #F3F3F3",
"*. c #FEFEFE",
"=. c gray100",
"-. c None",
/* pixels */
"-.-.-.-.-.-.-.-.-.-.-.-.X.X.X.X.X.-.-.-.-.-.-.-.-.-.-.-.-.-.-.-.-.-.-.-.-.",
"-.-.-.-.-.-.-.-.-.-.-...7 9 9 9 7 X.-.-.-.-.-.-.-.-.-.-.-.-.-.-.-.-.-.-.-.",
"-.-.-.-.-.-.-.-.-.-...7 / } } } / 7 X.-.-.-.-.-.-.-.-.-.-.-.-.-.-.-.-.-.-.",
"-.-.-.-.-.-.-.-.-...7 / } } } } } / 7 X.-.-.-.-.-.-.-.-.-.-.-.-.-.-.-.-.-.",
"-.-.-.-.-.-.-.-...4 ^ } } } } } } } ^ 4 X.-.-.-.-.-.-.-.-.-.-.-.-.-.-.-.-.",
"-.-.-.-.-.-.X...= L ^ } } } } } } } ^ L - X.X.-.-.-.-.-.-.-.-.-.-.-.-.-.-.",
"-.-.-.-.-...9 7 ; L ^ [ } } } } } [ ^ L ; 7 9 X.-.-.-.-.-.-.-.-.-.-.-.-.-.",
"-.-.-.-...7 [ ! k L ^ ^ [ } } } [ ^ ^ L k ! [ 7 X.-.-.-.-.-.-.-.-.-.-.-.-.",
"-.-.-.=.s R R J m L ! ^ ^ [ [ [ ^ ^ ! W m K R R s -.-.-.-.-.-.-.-.-.-.-.-.",
"-.-.-.-.=.s s c h L L ! ^ ^ ^ ^ ^ ! K K h c s s -.-.-.-.-.-.-.-.-.-.-.-.-.",
"-.-.-.-.-.-.=.s = K L L ! ! ! ! ! W E J - s -.-.-.-.-.-.-.-.-.-.-.-.-.-.-.",
"-.-.-.-.-.-.-...= m K J L L L L J J J m - -.-.-.-.-.-.-.-.-.-.-.-.-.-.-.-.",
"-.-.-.-.-.X...; ; h m A K K J J A A b h < X.X.X.-.-.-.-.-.-.-.-.-.-.-.-.-.",
"-.-.-.-...< ; j j ; h b b b b b c b h < k 7 5 < X.-.-.-.-.-.-.-.-.-.-.-.-.",
"-.-.-...< S k j j j ; ; ; ; ; ; ; ; ; l W ^ W S 5 X.-.-.-.-.-.-.-.-.-.-.-.",
"-.-...; A J m h j k k j j j j j j j k J ! ! ! L W 9 X.-.-.-.-.-.-.-.-.-.-.",
"-...< j b v h = j A D j k k k k k k D A J G G L ! [ 0 X.-.-.-.-.-.-.-.-.-.",
"=.$ D k h s s $ j A W D D A M A S D L A c s s G H ! ' = -.-.-.-.-.-.-.-.-.",
"..< E D ; -.=.s h M J W J A k A J L J M = -.=.= z Q / 9 X.-.-.-.-.-.-.-.-.",
"s v ! G s -.-.=.s h M J A A M A A J M h s -.=.$ / ` ` } = -.-.-.-.-.-.-.-.",
"=.s F s -.-.-.-.=.$ j b A A k A A M j - -.-.=.s ` $ % ` - -.-.-.-.-.-.-.-.",
"-.=.s -.-.-.-.-.=.s a h M A M A M a a s -.-.-.=.s t w ; 6 X.-.-.-.-.-.-.-.",
"-.-.-.-.-.-.-.-.-.=.. # a x a x a o . -.-.-.-.-.-.*.+ i P i X.-.-.-.-.-.-.",
"-.-.-.-.-.-.-.-.-.=.# w + & * # O r # -.-.-.-.-.-.*.C C C P i X.-.-.-.-.-.",
"-.-.-.-.-.-.-.-.-...; @ w g n g r 9 9 X.-.-.-.-.-.-.-.-.*.C P i o.-.-.-.-.",
"-.-.-.-.-.-.-.%.%.= h ; @ w w r 8 } ' = &.%.-.-.-.-.-.-.-.*.y I p o.-.-.-.",
"-.-.-.-.-.-.&.@.@.B = h = N N = ( } R V $.#.&.-.-.-.-.-.-.*.y ) T p X.-.-.",
"-.-.-.-.-.-.$.@.$.$.B B B $.@.B ` ` V $.$.$.#.-.-.-.-.-.-.*.C _ | T p X.-.",
"-.-.-.-.-.%.$.$.$.$.$.$.$.$.$.$.V V $.$.$.$.#.&.-.-.-.-.-.-.*.C  .Y U y o.",
"-.-.-.-.-.$.$.$.$.$.$.$.$.$.$.$.$.$.$.$.$.$.$.#.-.-.-.-.-.-.-.*.C C C C C ",
"-.-.-.-.-.$.$.$.$.$.$.$.$.$.$.$.$.$.$.$.$.$.#.#.-.-.-.-.-.-.-.-.-.-.-.-.-.",
"-.-.-.-.-.+.$.$.$.$.$.$.$.$.$.$.$.$.$.$.#.#.#.O.-.-.-.-.-.-.-.-.-.-.-.-.-.",
"-.-.-.-.-.-.$.$.$.$.$.$.$.$.$.$.$.$.$.$.$.$.#.-.-.-.-.-.-.-.-.-.-.-.-.-.-.",
"-.-.-.-.-.-.+.$.$.$.$.$.$.$.$.$.$.$.$.$.$.$.O.-.-.-.-.-.-.-.-.-.-.-.-.-.-.",
"-.-.-.-.-.-.-.+.+.$.$.$.$.$.$.$.$.$.$.$.+.+.-.-.-.-.-.-.-.-.-.-.-.-.-.-.-.",
"-.-.-.-.-.-.-.-.-.+.+.+.+.+.+.+.+.+.+.+.-.-.-.-.-.-.-.-.-.-.-.-.-.-.-.-.-.",
"-.-.-.-.-.-.-.-.-.-.-.-.-.-.-.-.-.-.-.-.-.-.-.-.-.-.-.-.-.-.-.-.-.-.-.-.-."
};
