/* XPM */
static char *c_d[] = {
/* columns rows colors chars-per-pixel */
"37 37 145 2",
"   c #0D0805",
".  c #130F0A",
"X  c #1D130A",
"o  c #181410",
"O  c #1C1713",
"+  c #20170D",
"@  c #2A1B0A",
"#  c #231A11",
"$  c #261A10",
"%  c #221D18",
"&  c #2A1E10",
"*  c #321E0B",
"=  c #2E2214",
"-  c #28221B",
";  c #2A251F",
":  c #37220D",
">  c #3B250E",
",  c #332414",
"<  c #362816",
"1  c #3E2811",
"2  c #3B2C19",
"3  c #3C2B1B",
"4  c #2C2924",
"5  c #312C24",
"6  c #353029",
"7  c #38342C",
"8  c #3C3932",
"9  c #3E3C36",
"0  c #432C14",
"q  c #472F15",
"w  c #43311C",
"e  c #4B3015",
"r  c #4E3216",
"t  c #48311A",
"y  c #4A3318",
"u  c #503417",
"i  c #53371A",
"p  c #523B1F",
"a  c #493720",
"s  c #413D36",
"d  c #523920",
"f  c #563E20",
"g  c #444038",
"h  c #44423C",
"j  c #46453F",
"k  c #49453F",
"l  c #584224",
"z  c #5F4120",
"x  c #5E482F",
"c  c #534332",
"v  c #644422",
"b  c #674723",
"n  c #644624",
"m  c #694926",
"M  c #6C4B27",
"N  c #6B4F2C",
"B  c #6D4D28",
"V  c #634C31",
"C  c #6E522C",
"Z  c #6B5237",
"A  c #6E563B",
"S  c #71502A",
"D  c #73522C",
"F  c #77552D",
"G  c #795B35",
"H  c #4C4A40",
"J  c #504B43",
"K  c #514E44",
"L  c #555248",
"P  c #54524B",
"I  c #5C5146",
"U  c #58564C",
"Y  c #5B594E",
"T  c #5C5B52",
"R  c #5E5D5A",
"E  c #5F5D5A",
"W  c #47704C",
"Q  c #605E52",
"!  c #735C45",
"~  c #636055",
"^  c #646256",
"/  c #61605E",
"(  c #67655A",
")  c #686458",
"_  c #696759",
"`  c #6C695C",
"'  c #6D6B5E",
"]  c #706D5F",
"[  c #676664",
"{  c #6C6B66",
"}  c #6E6C60",
"|  c #6E6C65",
" . c #716B66",
".. c #726D67",
"X. c #766D63",
"o. c #746D66",
"O. c #727062",
"+. c #727164",
"@. c #767365",
"#. c #767467",
"$. c #777566",
"%. c #797767",
"&. c #78776A",
"*. c #7D756E",
"=. c #797869",
"-. c #7A786C",
";. c #7C7A6A",
":. c #787770",
">. c #7B7970",
",. c #7E7D70",
"<. c #817F6F",
"1. c #828071",
"2. c #838170",
"3. c #878573",
"4. c #868478",
"5. c #85847C",
"6. c #8A8876",
"7. c #8E8C79",
"8. c #8E8C7A",
"9. c #8F8D7E",
"0. c #91907C",
"q. c #95937F",
"w. c #878581",
"e. c #868683",
"r. c #8B8A81",
"t. c #919081",
"y. c #959381",
"u. c #959489",
"i. c #989682",
"p. c #98978F",
"a. c #9C9A85",
"s. c #9B9A88",
"d. c #9F9D88",
"f. c #9E9D8D",
"g. c #969591",
"h. c #A6A48D",
"j. c #A7A597",
"k. c #ABAA9B",
"l. c #ABAA9E",
"z. c #A7A6A6",
"x. c #B9B7A6",
"c. c #C1C0AE",
"v. c #CCCDD7",
"b. c #D0D0D4",
"n. c None",
/* pixels */
"n.n.n.n.n.n.n.n.n.n.n.n.z.g.4.t.d.h.a.y.s.f.k.g.v.n.n.n.n.n.n.n.n.n.n.n.n.",
"n.n.n.n.n.n.n.n.n.n.b.p.4.( 2.q.7.0.3.%.<.a.6.=.l.l.z.n.n.n.n.n.n.n.n.n.n.",
"n.n.n.n.n.n.n.n.b.g.4.q.h.;.] =.%.$.@.' ` ) ` h.h.d.t.p.n.n.n.n.n.n.n.n.n.",
"n.n.n.n.n.n.n.e.-.=.h.q.3.3.` ` @.$.O.` _ L @.y.%.;.<.=.w.n.n.n.n.n.n.n.n.",
"n.n.n.n.n.n.g.t.7.' 6.%.O.2.%.K Y H H H L k 2.<.O.%.' ^ 9.p.n.n.n.n.n.n.n.",
"n.n.n.n.n.g.,.a.a.^ _ $.` ~ Q 6 - . o O ; 6 ` %.] ] ^ 3.i.s.p.n.n.n.n.n.n.",
"n.n.n.n.g.&.7.2.@.` U Q K 5 O X + X + & # & ; s U ^ <.3.%.6.9.p.n.n.n.n.n.",
"n.n.n.b.| 3.6.O.@. .L 5 % + & < < = 2 a 0 w < < < g ;.$. .$.2.9.e.n.n.n.n.",
"n.n.v.u.} Y ) ` ` Y 5 + & < w p p w a n z v f d 2 < g ^ ` ` _ @...v.n.n.n.",
"n.n.b.4.a.@.Y U U 6 + & 0 p l n m p f D B D C C p q < g Q ~ <.0.9.g.n.n.n.",
"n.n.g.y.3.7.i.U 5 + & 2 p V n B D l l F S D C G m p w , 8 @.q.2.i.>.n.n.n.",
"n.v.l.i.%.$.2.K + & < y z N M S F l l D S S N G S b p < - U %.%.0.f.z.n.n.",
"n.b.t.i.@.O.) ; # < y f m D B S F l l m S D B G C B n p = 7 ' ' ;.y.r.n.n.",
"n.z.&.` Q Q K % = w f z B S B S S l l n B S B D M n C f < ; U Y ~ 3.>.n.n.",
"n.l.y.;.Y H 6 X < i n z b B C B m l l b b B N B b n B f < X 8 _ 0.i.#.e.n.",
"n.x.6.3.0.) - & a V A Z Z Z G A N l l V N G A Z Z A A x w % s 7.7.2.+.{ n.",
"n.c.3.%.$.U - 6 U *.*.<.#.o.o._ L 7 s K U ` o.o.*.*.@.) k ; 7 3.$.@.' { n.",
"n.c.6.] O.L o . s H % % 5 J 6 $ o . 4 % O % s k ; % - k ;   5 7.' O.( { n.",
"n.x.%.T ~ H o   $ ; + + + 4 % + # o ; - + + ; - X + + % .   4 6.' _ T { n.",
"n.u.` Q Y s & : 0 q y u y e t e q : < r q y y r y u q > : X 4 ) T U P { n.",
"n.x.a.q.7.L 3 i v m M b m m m b n y f B v n n m b m n f w & 6 7.q.7.2.{ n.",
"n.c.7.@.#.L 2 i v b B b M M M M B i l B m B m B n n M f e & 7 7.$.;.$.{ n.",
"n.x.<.` ) L 3 r n v B b M M M M b i f v b B m B B b B f y @ 7 0.@. .} { n.",
"n.x.%.Q ` Y 3 t n n M v m M M M b u f v v m M M b b n f y @ 6 7.' ^ ( { n.",
"n.u.^ L Q k < 0 f z b z v v b b z y d z f m v b v p v i q @ 5 ) U L T { n.",
"n.j.6.6.<.K 8 c Z A ! ! ! A Z V x a w x V V Z A ! ! ! V c 5 7 2.6.3.#.| n.",
"n.c.0.<.=.P g U  .*. . .o.o.Y J H 6 9 L k J ^ o.o. . .o.U 7 s 0.=.;.+.{ n.",
"n.c.6.O.' P O X 8 H O O % H 5 # O . 4 - X O 8 s % # % k ;   5 7.$.$.( { n.",
"n.x.2.' ` K o   X # X X X # # X X . o # X X # # X X X + .   4 6.' _ Y { n.",
"n.j.' Y Y g @ @ : : > : > : * 1 > @ X > > : * : > > > * @ X 5 @.Q L L { n.",
"n.u.=.$.O.H < > q r u e r r r u u 1 * i r u e r r e u q 1 @ 5 ]  .O./ R n.",
"n.j.<.O.$.L < 1 e u u r u i i u r 1 * i r u i i u e u e 1 @ 7 3.} } ( R n.",
"n.j.^ K U H < > e u r e i r i r i 1 * i r r r i r e i e 1 @ 6 %.Y U L R n.",
"n.u.Y k k s = > q u i e r r 0 r r 1 @ i r r 0 i r e i q 1 @ 6 O.K J H R n.",
"n.u.H 8 8 7 = : 0 r i e r q 1 e q : X e q e > r e e i 0 > @ 5 T 8 8 s R n.",
"n.:.9 9 9 9 3 3 y d d t t t 3 y t , $ y y t 3 t t t d t 3 , 3 h 9 9 H / n.",
"n.e.E E E E I I I I I I I I I I X.......o.I I I I I I I I I I R R R [ z.n."
};
