/* XPM */
static char *o_d[] = {
/* columns rows colors chars-per-pixel */
"37 37 97 2",
"   c black",
".  c #010101",
"X  c #050504",
"o  c #070706",
"O  c #090908",
"+  c #0E0E0C",
"@  c #121210",
"#  c #151513",
"$  c #1B1A17",
"%  c #1E1E1A",
"&  c #22231E",
"*  c #25241F",
"=  c #282622",
"-  c #2A2B25",
";  c #30302A",
":  c #32322C",
">  c #36352E",
",  c #393831",
"<  c #3B3934",
"1  c #3C3B34",
"2  c #3D3B36",
"3  c #3E3E35",
"4  c #3E3E3E",
"5  c #414239",
"6  c #48463D",
"7  c #484640",
"8  c #4D4B42",
"9  c #4E4F45",
"0  c #535147",
"q  c #53524F",
"w  c #545249",
"e  c #55534B",
"r  c #58564B",
"t  c #5B594D",
"y  c #585753",
"u  c #5F5D51",
"i  c #5F5D55",
"p  c #5E5C58",
"a  c #47704C",
"s  c #615F55",
"d  c #626054",
"f  c #656356",
"g  c #63625D",
"h  c #64635D",
"j  c #686659",
"k  c #69675A",
"l  c #68665D",
"z  c #6B695C",
"x  c #6C6B5F",
"c  c #6E6B5E",
"v  c #706E5F",
"b  c #6F6D62",
"n  c #717062",
"m  c #727062",
"M  c #727063",
"N  c #747263",
"B  c #757364",
"V  c #777565",
"C  c #717069",
"Z  c #797768",
"A  c #7A7869",
"S  c #7A786B",
"D  c #7B7A6E",
"F  c #7D7B6B",
"G  c #7C7B6C",
"H  c #807E6E",
"J  c #807F70",
"K  c #838170",
"L  c #858372",
"P  c #848375",
"I  c #878574",
"U  c #878576",
"Y  c #8A8876",
"T  c #8C8A78",
"R  c #8C8B78",
"E  c #8F8D7A",
"W  c #8E8C7E",
"Q  c #93917D",
"!  c #92907E",
"~  c #93917E",
"^  c #8E8D81",
"/  c #919088",
"(  c #999782",
")  c #9B9986",
"_  c #9D9B87",
"`  c #A09E8B",
"'  c #A2A08A",
"]  c #A7A68F",
"[  c #A3A193",
"{  c #B5B39A",
"}  c #B8B7A5",
"|  c #B1B0B2",
" . c #C0BFBA",
".. c #C4C3A9",
"X. c #C5C4B0",
"o. c #F4F5FF",
"O. c None",
/* pixels */
"O.O.O.O.O.O.O.O.O.O.O.O.O.O.4 g D A D Z ^ h 4 O.O.O.O.O.O.O.O.O.O.O.O.O.O.",
"O.O.O.O.O.O.O.O.O.O.O.O.y e n L ] { [ ( ) ) U e g O.O.O.O.O.O.O.O.O.O.O.O.",
"O.O.O.O.O.O.O.O.O.O.y D U f K Q H H Z v N E L L ..` P 4 O.O.O.O.O.O.O.O.O.",
"O.O.O.O.O.O.O.O.g l F _ ] L j F Z V V v z s f ] Q Q Q D 4 O.O.O.O.O.O.O.O.",
"O.O.O.O.O.O.O.h i V ] Y Z Y c u n N n j f 9 V E N A F n l O.O.O.O.O.O.O.O.",
"O.O.O.O.O.O.C T ' z F Z n F K 8 8 > ; > 8 6 L K n V z f ) W 4 O.O.O.O.O.O.",
"O.O.O.O.O.C A ( E f u V z r 6 % + . . . + $ 9 v c c d T Y ) D 4 O.O.O.O.O.",
"O.O.O.O.C n Q F N v r r 3 # . . . . . . . . X % 5 s T L V H ! D 4 O.O.O.O.",
"O.O.O.| i K K n N c 0 $ X . . . . . . . . . . . X = j n v n V T q O.O.O.O.",
"O.O.o.A Z 9 t j c 0 $ . . . . . . . . . . . . . . . * u z f s N i 4 O.O.O.",
"O.O.| U ' Y j 0 8 $ . . . . . . . . . . . . . . . . . = r f ( ( Q C O.O.O.",
"O.O./ Q H L ' d # . . . . . . . . . . . . . . . . . . . & N Y F ( D O.O.O.",
"O.o.[ _ A N A 5 . . . . . . . . . . . . . . . . . . . . O 6 V V E ) y O.O.",
"O.| U Q N c f $ . . . . . . . . . . . . . . . . . . . . . = j j n ) D O.O.",
"O.| K u 0 t 6 + . . . . . . . . . . . . . . . . . . . . . # 8 w u J b 4 O.",
"O.[ ( E v 8 = . . . . . . . . . . . . . . . . . . . . . . o > n ' ' n p O.",
"O.X.Y F E c @ . . . . . . . . . . . . . . . . . . . . . . X > E K V n h O.",
"O...Y V N r + . . . . . . . . . . . . . . . . . . . . . . . * U n V c h O.",
"O.X.Y c c r + . . . . . . . . . . . . . . . . . . . . . . . = E x x d h O.",
"O.} n u u 6 + . . . . . . . . . . . . . . . . . . . . . . . & L z i w h O.",
"O.^ b j d 5 + . . . . . . . . . . . . . . . . . . . . . . . % f j u d h O.",
"O.X.[ ( ( t + . . . . . . . . . . . . . . . . . . . . . . . * ( ( Q U h O.",
"O.X.Y v c 0 + . . . . . . . . . . . . . . . . . . . . . . . = Y v V n h O.",
"O...K j j r + . . . . . . . . . . . . . . . . . . . . . . . * Q N x b h O.",
"O.} V u c t + . . . . . . . . . . . . . . . . . . . . . . . * L j d d h O.",
"O.^ u 0 t 5 + . . . . . . . . . . . . . . . . . . . . . . . % u r 0 w h O.",
"O.} _ ) Q 0 + . . . . . . . . . . . . . . . . . . . . . . . * Q ( ( J h O.",
"O.X.E V N 0 + . . . . . . . . . . . . . . . . . . . . . . . = E N N x h O.",
"O...R n z 0 + . . . . . . . . . . . . . . . . . . . . . . . * Y V V d h O.",
"O.} H z j 0 + . . . . . . . . . . . . . . . . . . . . . . . * Y z d d h O.",
"O.[ f 9 0 < + . . . . . . . . . . . . . . . . . . . . . . . % j r 9 w h O.",
"O.[ Y Y L 0 + . . . . . . X X X X X X O O O O O O O O O O O = H K J b q O.",
"O.} Z u j 0 @ . . . X X X O O + + @ @ @ # # @ # # # # # # # ; J d u d q O.",
"O.[ f 8 0 6 @ . X X O + + @ # $ $ % * * * * & & * & & & & & > V u r 7 q O.",
"O.[ r 5 5 3 @ X O + @ # $ % = - - ; ; : : : : : : : : : : : 3 v 6 6 7 q O.",
"O.^ 6 > < > # + @ $ % * - ; > < 3 5 5 5 5 5 5 5 5 5 5 5 5 5 5 t < : 1 q O.",
"O.l > : < ; $ # % * - ; 1 5 6 8 9 9 9 9 9 9 9 9 9 9 9 9 9 9 5 > : : 1 q O."
};
