/* XPM */
static char *s_o[] = {
/* columns rows colors chars-per-pixel */
"37 37 113 2",
"   c black",
".  c #040302",
"X  c #0A0703",
"o  c #0E0A07",
"O  c #100E0B",
"+  c #181007",
"@  c #161411",
"#  c #191815",
"$  c #211407",
"%  c #281809",
"&  c #2E1C0B",
"*  c #221F1B",
"=  c #2B2219",
"-  c #34200C",
";  c #39230D",
":  c #342719",
">  c #3D2711",
",  c #3B2D1F",
"<  c #272622",
"1  c #2D2B26",
"2  c #332C23",
"3  c #33312C",
"4  c #37352E",
"5  c #3C3126",
"6  c #3C3B35",
"7  c #432A10",
"8  c #492C11",
"9  c #45321F",
"0  c #4F3114",
"q  c #563311",
"w  c #553718",
"e  c #493926",
"r  c #413F37",
"t  c #41413E",
"y  c #45453D",
"u  c #4E493D",
"i  c #62411E",
"p  c #4D4B42",
"a  c #4F4D46",
"s  c #4F4F4B",
"d  c #504E44",
"f  c #555247",
"g  c #57554B",
"h  c #5A584C",
"j  c #555550",
"k  c #5E5C50",
"l  c #5D5D59",
"z  c #47704C",
"x  c #615F53",
"c  c #626056",
"v  c #646256",
"b  c #60615A",
"n  c #61605C",
"m  c #66665F",
"M  c #686659",
"N  c #6A685B",
"B  c #6B695E",
"V  c #6C6A5C",
"C  c #6D6B5F",
"Z  c #6E6C5E",
"A  c #6E6C65",
"S  c #716F60",
"D  c #727064",
"F  c #747263",
"G  c #757367",
"H  c #777566",
"J  c #73726C",
"K  c #79776A",
"L  c #7A7868",
"P  c #7B796C",
"I  c #7D7B6A",
"U  c #7B7A72",
"Y  c #7D7B73",
"T  c #7E7C72",
"R  c #7E7D78",
"E  c #7F7E7A",
"W  c #817E6E",
"Q  c #817F71",
"!  c #858371",
"~  c #848374",
"^  c #818079",
"/  c #898775",
"(  c #888679",
")  c #8D8C79",
"_  c #8E8C7C",
"`  c #8E8D7C",
"'  c #918F7C",
"]  c #918F7E",
"[  c #918F7F",
"{  c #8C8B80",
"}  c #8E8D80",
"|  c #929182",
" . c #969480",
".. c #94938B",
"X. c #999887",
"o. c #9D9B86",
"O. c #9F9D8A",
"+. c #9C9B92",
"@. c #9D9C95",
"#. c #9D9D99",
"$. c #9E9E99",
"%. c #A09E93",
"&. c #A8A68F",
"*. c #A2A191",
"=. c #A5A391",
"-. c #A6A596",
";. c #A1A09D",
":. c #A9A89D",
">. c #B1AF9A",
",. c #B6B5A6",
"<. c gray70",
"1. c #D2D3D8",
"2. c None",
/* pixels */
"2.2.2.2.2.2.2.2.2.2.2.2.2.2.;.$.@.*.*.| -.@.$.<.2.2.2.2.2.2.2.2.2.2.2.2.2.",
"2.2.2.2.2.2.2.2.2.2.2.1...J T | o.&.o.) ) O.O.T @.;.1.2.2.2.2.2.2.2.2.2.2.",
"2.2.2.2.2.2.2.2.2.1..._ X.L F / W L L S V I I ! >.=.*.$.2.2.2.2.2.2.2.2.2.",
"2.2.2.2.2.2.2.2.<.U _ o.o._ V F L H H S V M h ] ) ! ) | $.2.2.2.2.2.2.2.2.",
"2.2.2.2.2.2.2.@./ Z o./ H W W g V M m x x a M ) F L L C Y :.2.2.2.2.2.2.2.",
"2.2.2.2.2.2.E _ &.F V L D D I a r = * = 4 6 C / F F V M ] =.$.2.2.2.2.2.2.",
"2.2.2.2.1.E Q ' / S h V M d 4 # X       X O 1 f v V M / ! ` | $.2.2.2.2.2.",
"2.2.2.2.E P ' I F F v u t # X                 O 2 u I / F L / | $.2.2.2.2.",
"2.2.2.<.A C I S S C f 9 ; O                   . + : a V V S V W U 1.2.2.2.",
"2.2.2.Q ' M g x c f 5 ; ; O                   . + & > u M v v I P $.2.2.2.",
"2.2.1.{  .' ! k u 5 & ; ; +                   . + & ; , u v ' ] ] } 1.2.2.",
"2.2.;.X.! H  .H e ; & ; ; +                   . + & - > 9 h ! I ' | <.2.2.",
"2.2.+.O.W F H f 9 7 = , 2 o                   . @ = : > 9 e N F I O.+.2.2.",
"2.2.U / F M M r 5 4 1 * O .                     X @ < 4 5 5 h v v / ( <.2.",
"2.<.} D g d p 3 * y 3 O + .                     X o = a < 1 t u M ~ P $.2.",
"2.:.| ) ! M 4 @ @ * * & & X                     O % % = # O = V o.o.I Y 2.",
"2.,._ H ! F 2 + - - & 7 ; X                     + - ; ; - % = I W H S T 2.",
"2.,.| F H M , 8 q 8 ; 7 ; X                     + - > 0 q 0 : I H F V U 2.",
"2.,._ M V x 5 w q 8 ; 7 ; X                     + - > 8 q w , W H V x J 2.",
"2.:.F h h u 5 i q 7 - 7 ; X                     + - 7 8 0 i 9 Z M x d J 2.",
"2...~ W I h 9 i q 7 - 7 ; X                     + - 7 0 q i e v W H V J 2.",
"2.,.O./ ) V e i w 8 - > : o                     + - > 7 q i e W ] / W U 2.",
"2.,._ D Z k 5 w 0 , 2 2 < O                   . O * : , 0 w , W L F S U 2.",
"2.,.~ M M v 5 , 4 6 1 # O .                     X O = 6 4 5 2 ! I V v U 2.",
"2.:.L g v k 6 = = r 3 + O .                     X o = y = < 4 C M h g J 2.",
"2...F V Z f p # + + O + $ X                     o + + + O @ 6 b S M x J 2.",
"2.,.O.` ` b 1 + % + + % % X                   . o $ $ + & + = W ] ) W T 2.",
"2.,.` H F c : - 8 & % & % X                     o + $ & > ; = W I H V T 2.",
"2.,._ F Z v 2 ; 7 - % & % X                     o + % % 7 > = I I F v J 2.",
"2.,.~ v v g : ; 7 - % - % X                     o % % & 7 7 : H S c g J 2.",
"2...D k h p : 8 7 ; & - % X   . . . . . . . . . o % & - 7 8 : h c h f J 2.",
"2...] W ! M , 7 8 7 & % + X X X X X o o o O O o + + % ; 8 0 : H W I A J 2.",
"2.:.L h k h , 7 > & O O O O O O @ @ @ # # # # # # @ @ & > 8 : S M k f b 2.",
"2...V p f u : & + O O O @ @ # = * < < < < < < < < < < < = : : V x g y b 2.",
"2...b t 6 t * O O O @ # # = < < 3 4 4 4 4 4 4 4 4 4 4 4 4 4 4 M p r r b 2.",
"2.Y a 3 4 4 * O @ # = < 1 3 6 r r y y t y y y y y y y y y t r p 6 4 3 b 2.",
"2.Y l s j j t t t t s s j j n b A b A b b A n A A b m m m m b j s s s E 2."
};
