/* XPM */
static char *wall[] = {
/* columns rows colors chars-per-pixel */
"37 37 138 2",
"   c #060E0D",
".  c #0A0E0E",
"X  c #060F10",
"o  c #0B0E10",
"O  c #0A100E",
"+  c #051213",
"@  c #0B1313",
"#  c #0D1618",
"$  c #0B1B1C",
"%  c #101516",
"&  c #121817",
"*  c #131C1C",
"=  c #0D1E20",
"-  c #141E21",
";  c #12201E",
":  c #0C2123",
">  c #0C2629",
",  c #0D292C",
"<  c #0F2E35",
"1  c #0E3034",
"2  c #152324",
"3  c #15292A",
"4  c #182526",
"5  c #192628",
"6  c #182827",
"7  c #1A2B2C",
"8  c #132E31",
"9  c #1E2E30",
"0  c #113235",
"q  c #13363A",
"w  c #15393D",
"e  c #1D3234",
"r  c #183639",
"t  c #1A383C",
"y  c #222D2E",
"u  c #222F30",
"i  c #213334",
"p  c #213639",
"a  c #233A3B",
"s  c #2A3639",
"d  c #2A3C3D",
"f  c #163C40",
"g  c #1A3D42",
"h  c #243F42",
"j  c #2B3D40",
"k  c #333E42",
"l  c #2C403F",
"z  c #1B4044",
"x  c #1E454A",
"c  c #1E484C",
"v  c #254144",
"b  c #20464B",
"n  c #20484D",
"m  c #294345",
"M  c #2C474B",
"N  c #2E4A4C",
"B  c #234D51",
"V  c #294D52",
"C  c #255054",
"Z  c #2A5155",
"A  c #2B555A",
"S  c #2D585C",
"D  c #324142",
"F  c #324C4E",
"G  c #3C4E4E",
"H  c #334E51",
"J  c #3E4D53",
"K  c #325254",
"L  c #335559",
"P  c #33595D",
"I  c #3A5253",
"U  c #3A565A",
"Y  c #3B5A5D",
"T  c #345D61",
"R  c #3C5D62",
"E  c #366166",
"W  c #376468",
"Q  c #3B6164",
"!  c #3B6569",
"~  c #3E686C",
"^  c #425558",
"/  c #425C5D",
"(  c #445D61",
")  c #485D60",
"_  c #426265",
"`  c #426569",
"'  c #44696C",
"]  c #4E6465",
"[  c #4C6669",
"{  c #4B686B",
"}  c #446D71",
"|  c #4A6D72",
" . c #447175",
".. c #4B7175",
"X. c #4D7479",
"o. c #4D797D",
"O. c #516B6F",
"+. c #516E71",
"@. c #567171",
"#. c #51767B",
"$. c #52797E",
"%. c #5B7576",
"&. c #587579",
"*. c #5B7B7F",
"=. c #4E7B80",
"-. c #547C82",
";. c #5B7D82",
":. c #627D81",
">. c #4F8086",
",. c #538085",
"<. c #548389",
"1. c #57898D",
"2. c #598186",
"3. c #5A8489",
"4. c #5D888D",
"5. c #5E8A90",
"6. c #658A8E",
"7. c #68868B",
"8. c #628C92",
"9. c #6B8F93",
"0. c #649095",
"q. c #669298",
"w. c #6A9296",
"e. c #69949A",
"r. c #6D989D",
"t. c #729699",
"y. c #71999D",
"u. c #6F9BA0",
"i. c #729CA1",
"p. c #789FA6",
"a. c #75A1A5",
"s. c #76A2A8",
"d. c #79A0A5",
"f. c #7AA5AA",
"g. c #7DA9AE",
"h. c #7EAAB0",
"j. c #80A7AC",
"k. c #81ACB1",
/* pixels */
"a f.h.s.e.s - ,.,.,.1.<.<.=.=.1.3.= h -.-.<.<.=.=.1.=.<.L @ v f.f.g.g.s.f.",
"w.8.u.3.e.Y R b c n W S A c c T c U g b c A W c c S B c T 3 q.5.6.e.p.<.0.",
"*.-.4.3.8.U v b x x n B c g c c x h t T B c A c A c c W T = -.-.o.2.6.3.4.",
"$.-.4.T <.I v x f b b z c < z g b a q A X.c c c Z c c =.b = -.=...2.~ 3.<.",
"m ....} Y i : g q z w w q 1 g q f 2 r n  .n n n n n c n b - M | ....` Z L ",
"@ 2 2 2 2 @ o # $ $ $ $ $ $ $ $ = @ t b c c b b n n n n n * # 2 2 2 6 2 6 ",
"4 d.p.p.p.s.s.p.a.d.7.X [ a.a.s.f.@ t b n b n c c c n n n $ e p.a.a.$.. $ ",
"t.2.u.1.p.q.u.3.3.y.2.@.$.8.u.e.3.:.r b n c n z g b n n n $ u.0.0.a.6.I W ",
";.-.3.-.4.0.3.3.,.4. .^ | e.3.3.q.[ r g c c n q c n f x n = 2.4.4.2.0.m z ",
"-.$.| ..$.,.3.,.' ,.$./ ' 3.$.o.1.[ r c n g b x n n x z n $ -.,...4.4.m z ",
"K -.-.-.$.P $.$.` X.X.p R -.-.` -.d 8 z 0 w x b f f z x t # L -.$.L ..7 3 ",
"# e e e e e e e i e 7 O 5 e e e e X # : : : : : : : : : $ O $ e e p 6 O + ",
"* ` ! ` ` ` ` ' ` ' U . J ;.;.;.2.2.;.;.;.;.i O m ;.;.:.F O 6 2.;.;.;.2.2.",
"$.b n B  .E n n c o.V [ ;.2.p.i.k.4.6.4.4.i.d.@ r.r.8.s.y.p a.9.0.g.d.3.4.",
"b n b n n P n c c c x v ..2.3.3.i.8.8.,.3.2.3.+ 3.8.3.3.8.7 ,.3.<.3.r.3.e.",
"b z g n c c c w x c c h ' 4...-.X.3.3.X.#.-.3.+ -.;.X.3.8.7 -.$.X.<.o.2.3.",
"w w z c z z q q b w z e ` 4.-.3.$.R #.2.L 3.} + | 3.-.! ..- ` ,.,.2.X.P Q ",
"@ , , , , , , , , > :   7 m h v m m v h m m = @ 3 v v M 3 O $ v h v l l v ",
"* / / _ ( ) ( ( / / J . m ) ( ( ) o y / ) / 7 . 7 F N N N H F N V F   o I ",
"7.8.s.0.g.q.g.4.8.f.7.] -.8.s.s.8.%.[ 3.k.y.9.@ ~ S S =.} W S S X.A U U 6.",
"2.4.3.3.e.i.4.3.3.3.$./ X.k.3.3.4.@.Q s.3.3.4.+ c x c c c X.c c c b t H 3.",
":.-.;.#.2.3.4.,.$.,.' / [ 4.3.-.r.| Y 3.3.8.8.+ c x x c c c b z b b t H 3.",
"{ ;.-.-.$.' ,.,.' -.-.F ' 3.-.| 3.Y L ,.3.X.#.@ f z c c g c w f g c 0 F 3.",
"= K Z Z K H L K K K M # a K Z V U + 6 H Z K 3 . : 0 1 q 1 1 8 0 0 1 @ H 3.",
"& j d j j d d j j d s @ y d j d D O * i u i i i i e i i 2 O & l d d @ F 3.",
"+.e.f.r.k.y.e.f.e.f.6.G *.e.k.k.y.^ m W E  . .1.W W W <.R 2 &.y.g.e.I H 4.",
"3.3.8.3.e.8.s.1.3.1.2._ &.h.4.4.3.O.t n n B c C ~ c c C n : 1.e.8.3.[ F 3.",
"2.;.2.-.2.4.3.3.3.3.R / | 4.3.3.f.{ r x x c c c n b x c n $ 3.2.3.s.` F 3.",
"| -.$...-.#.#.4.X.-.-.J _ 4.3.-.3./ r t z n x z z g z z n $ o.-.-.3.Y M 3.",
"p ' R ! R P K ` Y Q R 5 N ` ` R [ 6 2 0 t w q 0 q 0 q r 3 # a ` Y ` 6 2 Y ",
"% - - - * * # * - * * o * - - 2 * * * * * * # + & & $ $ % O @ ; 2 * O O * ",
"^ i.g.i.y.D a |  . .( i %.i.f.s.k.i.a.i.y.f.{ O L o. .} U & _ a.g.y.d 7 0.",
"7.e.e.3.5.Y U A T x n F $.3.8.8.g.3.1.4.3.8.w.@ T W B c Z 2 q.q.e.3.| U 3.",
";.3.3.3.q.( b b n b b h $.3.4.2.2.4.3.3.4.} #.X c c c c n # 3.3.3.k.( H 3.",
"#...3.=.3.H h x g x x h R 3.} #.$.,.2.} | 4.2.@ x g g c b = -.=.<.3.` F } ",
"H ....` ( a 3 g g q t 4 R X.' ..` _ ' &.Z #.U @ q g f f r # H ..` ..p 7 ' ",
"% 5 5 - 2 % @ * $ $ & @ * 5 4 2 2 2 2 4 2 4 & . # = # = # o # 5 5 5 O O 2 "
};
