/* XPM */
static char *_b784ee1c9fc4b138c192f80cbbfe9d8CptJZLG8hwbQ5fgi[] = {
/* columns rows colors chars-per-pixel */
"37 37 13 1 ",
"  c None",
". c black",
"X c #BF8E22",
"o c #4461D4",
"O c #4A69D9",
"+ c #5374F5",
"@ c #5D7EF5",
"# c #806180",
"$ c #7C96F7",
"% c #B384B3",
"& c #97ACF7",
"* c #A3B5F7",
"= c #BCC9F7",
/* pixels */
"    XX XXX#XXXXX#X#X#X#X.            ",
"   X%XXX#%%XXXX#X####X##.            ",
"   XX%%XXXXXXXXX###X#XXXX.....#      ",
"   %XXXX##%#XXXXXXXX#X#XX..%%####    ",
"    XX%%X#XXXXXXXXX%XXXX.####.##%    ",
"  ####XX%XX%XXX###X#XXXX%#XX##%.###  ",
"# ###XX#X#X#.X#XX#XX#.XXX%X%X#X####  ",
"###.#%##XXXXXXXXX#X##XX#%#XXXXXXX%   ",
"# %#####%%##%.#XX%oXXXX#XXXXXXX##X## ",
" ###%%####%%%%.%%%%X%% ##XX#XXXX%#.  ",
"####%%#%%##%%...%%%O+  X#XX.##XXX#X# ",
"#XXX%######%....+++++  XXXX%##XX#XX  ",
"XXXXXX##.% .    +++++ XXXXXXXX#XXX%  ",
"XXXX##X##      ++@@@++ XXX#XXX#XXXX  ",
"XXXX#XXX#    +++@$$$+++X XX##X%XXX...",
"XXXXXXXX#%  ++@+@$*$@+@XXXXXXXXX.XX..",
"XXXXXXXXX  ++++$$$$$$$+++X  XXXXXX%..",
"XXXXX#XX#O++++@$*$&$*$@++XXOXX%%X%%%%",
"XXXXXX#X##++++@*$&=&$*@++++%XoXX%%#.%",
"X#XX#XX#oO#+++@$*$&$*$@++++%%o..%####",
"XXXXXXXX###++++$$**$$$++++%% %##%####",
"XXX#XXXXX##+++@+@$*$@+@+++%%%####X###",
"XXXXXXX## #  ++++$$$++++  %%X.XX#XXX#",
"XXXXXXXX##     ++@@@++     X%#XXXXXX#",
"#XXX#XX###X     +++++   X  XXXXXXX#X#",
"##XXX####XX.XX  +++++  X XXXXXXXXX#XX",
"X#XX####X.%X  XX+#O#XXXXXXXXXXX##XXXX",
"% %.#.#XXX#%X% ###OXXXXX.XXXX#%XXX#XX",
"  %%%.XXXXX#X%# ####X#X.XXXXXXXXXXXXX",
"% %%%#XX#XX#X#%XX%XXXXXXXXXX#XXXXXXX ",
"% %%##%XX#XXX##X#XXX#XX#X#XXXXXXX#XXX",
"  % ##XXXX#XXXXX#XXX##XXXX%XXX##XXXX ",
"   ## XX%XXX#X###%XXXXX.%XXXXX##XXXX ",
"    ##X##XXXX#X#XX#.#XX#XX#XXX###  # ",
"    ## ###XXXXX%###XXX#XXX#XX#####   ",
"   # ## X%#X#X##.##XXXXX%XX#%%#####  ",
"     ##### X##########%.XX%X###%##   "
};
