/* XPM */
static char *c1189ae060984f23f67280f630855010Qa6pxu8pim1cR7l4[] = {
/* columns rows colors chars-per-pixel */
"37 37 9 1 ",
"  c None",
". c gray26",
"X c #00C853",
"o c #00E676",
"O c #FFD54F",
"+ c #2979FF",
"@ c #448AFF",
"# c gray74",
"$ c #FFE082",
/* pixels */
"                   ++##+++           ",
"                X++++#.+o+XX+        ",
"              XXXXXX++++++++XXX      ",
"             XXXXXXX++++++++XXXX     ",
"            oooooX+X+++++++XX+X+X    ",
"           oooooo++++++++++++X++++   ",
"          ooooooo++++++++++O+O$++++  ",
"         oo++o+++++++++++$$OO$$$+$$$ ",
"         oo++o++++++++++$$$$$$$$$$$O ",
"         ooo++++++++++++$$$$$$$$$O$$ ",
"        +oo++++++++++++++$$$$$$$$$$$$",
"        ++o+++++++++++++$$$$$oo$$$$$$",
"        +++++XXXXXX++++++oooooooooooo",
"        ++++XXXXXXXX+++++++oooooooooo",
"        +++XXXXXXXXXX+X+++++++Xoooooo",
"        +++XXXXXXXXXXXX+++++++XXooooX",
"        +++XXooooooXXXX+++++++XXXXo@X",
"         ++oooooooooXXX++++++++XXXXX ",
"         ++ooooooooooo+++++++++XXXXX ",
"         +++ooooooooo+++++++++XXXXXX ",
"          ++++$ooooo++++++++++XXXXX  ",
"           ++++$oooo++++++++++++XX   ",
"            +++.$ooo++++++++++++X    ",
"             +++$oo+++++++++++++     ",
"              ++.$o++++++++++++      ",
"                ++o++++++++++        ",
"                   +++++++           ",
"                                     ",
"                                     ",
"                                     ",
"                                     ",
"                                     ",
"                                     ",
"                                     ",
"                                     ",
"                                     ",
"                                     "
};
