/* XPM */
static char *_037d630b3a34337d19f0ebb620e4fd6KsLdOrQYxhB4e8GB[] = {
/* columns rows colors chars-per-pixel */
"37 37 11 1 ",
"  c None",
". c #07207A",
"X c #1D3FAD",
"o c #4461D4",
"O c #4A69D9",
"+ c #5374F5",
"@ c #5D7EF5",
"# c #7C96F7",
"$ c #97ACF7",
"% c #A3B5F7",
"& c #BCC9F7",
/* pixels */
"                  .                  ",
"                  .                  ",
"                  .                  ",
"                  X                  ",
"                  X                  ",
"                 ooo                 ",
"                 ooo                 ",
"                 OOO                 ",
"                 ooo                 ",
"                 OOO                 ",
"                +OOO+                ",
"                +++++                ",
"                +++++                ",
"               ++@@@++               ",
"             +++@###++++             ",
"            ++@+@#%#@+@++            ",
"           ++++#######++++           ",
"     ooooO++++@#%#$#%#@++++Ooooo     ",
"...XXooooO++++@%#$&$#%@++++OooooXX...",
"     ooooO++++@#%#$#%#@++++Ooooo     ",
"           ++++##%%###++++           ",
"           +++@+@#%#@+@+++           ",
"             ++++###++++             ",
"               ++@@@++               ",
"                +++++                ",
"                +++++                ",
"                +OOO+                ",
"                 OOO                 ",
"                 ooo                 ",
"                 OOO                 ",
"                 ooo                 ",
"                 ooo                 ",
"                  X                  ",
"                  X                  ",
"                  X                  ",
"                  .                  ",
"                  .                  "
};
