/* XPM */
static char *_e3015ef1374477f8dbff14dc8672e97HiowIJjljlKXU1IW[] = {
/* columns rows colors chars-per-pixel */
"37 37 3 1 ",
"  c None",
". c #FFC107",
"X c #FFEB3B",
/* pixels */
"                XXXXX                ",
"                XXXXX                ",
"                XXXXX                ",
"                XXXXX                ",
"                XXXXX                ",
"             XXXXXXXXXXX             ",
"             XXXXXXXXXXX             ",
"             XXXXXXXXXXX             ",
"             XXXXXXXXXXX             ",
"             XXXXXXXXXXX             ",
"             XXXXXXXXXXX             ",
"...XXXXXXXXXXXXXXXXXXXXXXXXXXXXXXX...",
"...XXXXXXXXXXXXXXXXXXXXXXXXXXXXXXX...",
"   ..XXXXXXXXXXXXXXXXXXXXXXXXXXX..   ",
"   ..XXXXXXXXXXXXXXXXXXXXXXXXXXX..   ",
"   ..XXXXXXXXXXXXXXXXXXXXXXXXXXX..   ",
"     ......XXXXXXXXXXXXXXX......     ",
"     ......XXXXXXXXXXXXXXX......     ",
"           XXXXXXXXXXXXXXX           ",
"           XXXXXXXXXXXXXXX           ",
"           XXXXXXXXXXXXXXX           ",
"           XXXXXXXXXXXXXXX           ",
"           XXXXXXXXXXXXXXX           ",
"           XXXXXXXXXXXXXXX           ",
"        XXXXXXXXXXXXXXXXXXXXX        ",
"        XXXXXXXXXXXXXXXXXXXXX        ",
"        XXXXXXXX.....XXXXXXXX        ",
"        XXXXXXXX.....XXXXXXXX        ",
"        XXXXXXXX.....XXXXXXXX        ",
"        XXX.....     .....XXX        ",
"        XXX.....     .....XXX        ",
"        XXX.....     .....XXX        ",
"     XXX...               ...XXX     ",
"     XXX...               ...XXX     ",
"     ...                     ...     ",
"     ...                     ...     ",
"     ...                     ...     "
};
