/* XPM */
static char *_0a9555a9611492dd7907b1b24634d914sw647QQfMXQm8Tz[] = {
/* columns rows colors chars-per-pixel */
"37 37 92 1 ",
"  c None",
". c #FF9C03",
"X c #FF9D03",
"o c #FF9D04",
"O c #FF9E04",
"+ c #FF9F05",
"@ c #FFA005",
"# c #FFA006",
"$ c #FFA106",
"% c #FFA107",
"& c #FFA207",
"* c #FFA308",
"= c #FFA408",
"- c #FFA409",
"; c #FFA509",
": c #FFA50A",
"> c #FFA60A",
", c #FFA70A",
"< c #FFA70B",
"1 c #FFA80B",
"2 c #FFA80C",
"3 c #FFA90C",
"4 c #FFA90D",
"5 c #FFAA0C",
"6 c #FFAA0D",
"7 c #FFAB0D",
"8 c #FFAB0E",
"9 c #FFAC0E",
"0 c #FFAC0F",
"q c #FFAD0F",
"w c #FFAE0F",
"e c #FFAE10",
"r c #FFAF10",
"t c #FFAF11",
"y c #FFB011",
"u c #FFB111",
"i c #FFB112",
"p c #FFB212",
"a c #FFB213",
"s c #FFB313",
"d c #FFB314",
"f c #FFB414",
"g c #FFB514",
"h c #FFB515",
"j c #FFB615",
"k c #FFB616",
"l c #FFB716",
"z c #FFB717",
"x c #FFB817",
"c c #FFB917",
"v c #FFB918",
"b c #FFBA18",
"n c #FFBA19",
"m c #FFBC19",
"M c #FFBC1A",
"N c #FFBD1A",
"B c #FFBD1B",
"V c #FFBE1B",
"C c #FFC01C",
"Z c #FFC01D",
"A c #FFC11D",
"S c #FFC11E",
"D c #FFC21E",
"F c #FFC31E",
"G c #FFC31F",
"H c #FFC41F",
"J c #FFC721",
"K c #FFC722",
"L c #FFC822",
"P c #FFC922",
"I c #FFC823",
"U c #FFC923",
"Y c #FFCA23",
"T c #FFCA24",
"R c #FFCB24",
"E c #FFCC25",
"W c #FFCD25",
"Q c #FFCD26",
"! c #FFCE26",
"~ c #FFCE27",
"^ c #FFCF27",
"/ c #FFCF28",
"( c #FFD028",
") c #FFD128",
"_ c #FFD129",
"` c #FFD229",
"' c #FFD22A",
"] c #FFD32A",
"[ c #FFD42A",
"{ c #FFD42B",
"} c #FFD72D",
"| c #FFD82D",
/* pixels */
"            ...........O             ",
"          OOOOOOOOOOOOOOOO           ",
"        %%%%%%%%%%%%%%%%%%%%         ",
"      %%%%%%%%%%%%%%%%%%%%***%       ",
"     >>>>>>>>>>>>>>>>>>>>>>>>>>      ",
"    >>>>>>>>>>>>>>>>>>>>>11>>>11     ",
"   1122>>>>1112222222211222222222    ",
"   22222222222222222w222222222222    ",
"  2wwww2222222wwwwwwwwwwwwwwwwwwww   ",
" weweeeeeeeeeeeeeeeeeeeeeeeyeyeeyey  ",
" yyyyyyyyyyyyyyyyyyyyyyyyyyyyyyyyyy  ",
" yyyyyyyyyyyyyyyyyyyyyyyyyyyyyyyyyy  ",
" yyyydllllllllddlllllllllllllllllll  ",
"llllllllllllllllllllxxlllllllxxxxxxx ",
"xxxxxxxxxxxxxxvvvvvvvvxxxxxvxvvvvvvv ",
"                                     ",
"NNNNNNNNNNNNNNNNNNNNNNNNNNNNNNNNNNNN ",
"                                     ",
" AAAAAAAAAAAAAAAAAAAAAAAAAAAAAAAAAA  ",
" AAAAAAAAAAAAAAAAAAAAAAAHHHHHHHHHHH  ",
"                                     ",
"  KKKKKKKKKKKKLLLLLLLLKLLLLLLLLLLL   ",
"   LLLLLLLLLLLLLTTTTTTLLLLLLLTTTT    ",
"                                     ",
"    QQQQQQQQQQQQQQQQQQQQQQQQQQQQ     ",
"     QQQQQQQQQQ/Q/Q'/'QQQQQQQ''      ",
"      ''''''''''''''''''''''''       ",
"        ''''{''''{'{{{{{{{{{         ",
"                                     ",
"            }}}}}}}}}}||             ",
"                                     ",
"                                     ",
"                                     ",
"                                     ",
"                                     ",
"                                     ",
"                                     "
};
