/* XPM */
static char *skel_4[] = {
/* columns rows colors chars-per-pixel */
"37 37 127 2",
"   c #000000",
".  c #0E0E0E",
"X  c #110F0F",
"o  c #10100F",
"O  c #121110",
"+  c #191612",
"@  c #1C1A14",
"#  c #1C1D19",
"$  c #2D110D",
"%  c #221C14",
"&  c #281F16",
"*  c #242116",
"=  c #242318",
"-  c #282016",
";  c #2A2418",
":  c #2B2A1A",
">  c #332519",
",  c #332C1C",
"<  c #3B2C1C",
"1  c #34311C",
"2  c #3B321E",
"3  c #2B2C21",
"4  c #2F3124",
"5  c #322F20",
"6  c #3B2F20",
"7  c #323323",
"8  c #3F3721",
"9  c #3D3A20",
"0  c #3D412D",
"q  c #492B19",
"w  c #41321E",
"e  c #402120",
"r  c #443520",
"t  c #433A22",
"y  c #4B3C23",
"u  c #782B15",
"i  c #7E3D1C",
"p  c #454223",
"a  c #4B4325",
"s  c #4B432A",
"d  c #4D4B26",
"f  c #4C4C2A",
"g  c #424530",
"h  c #454932",
"j  c #4F4E33",
"k  c #4E5238",
"l  c #514225",
"z  c #554628",
"x  c #534B27",
"c  c #564A29",
"v  c #5A4B29",
"b  c #535129",
"n  c #5C542B",
"m  c #5D5A2C",
"M  c #545532",
"N  c #515539",
"B  c #575939",
"V  c #5C5732",
"C  c #5A5E3E",
"Z  c #604F2C",
"A  c #64542E",
"S  c #625B2D",
"D  c #68572F",
"F  c #685B2F",
"G  c #635C31",
"H  c #655D3A",
"J  c #6B5D31",
"K  c #66632C",
"L  c #69602F",
"P  c #666533",
"I  c #6B6231",
"U  c #696638",
"Y  c #6A6831",
"T  c #716433",
"R  c #736B34",
"E  c #736A3A",
"W  c #786F36",
"Q  c #796F3E",
"!  c #777236",
"~  c #797236",
"^  c #7D7539",
"/  c #7A7837",
"(  c #7C7A3B",
")  c #636743",
"_  c #666A40",
"`  c #6C6840",
"'  c #737142",
"]  c #74784B",
"[  c #7C7444",
"{  c #797649",
"}  c #7F7E46",
"|  c #737950",
" . c #7A7E52",
".. c #7C8153",
"X. c #9F240E",
"o. c #A61707",
"O. c #827D3A",
"+. c #827C4B",
"@. c #85823B",
"#. c #88853C",
"$. c #818046",
"%. c #888444",
"&. c #8C8A44",
"*. c #8F8D4D",
"=. c #848653",
"-. c #868C5A",
";. c #8D8E59",
":. c #908F4E",
">. c #92924A",
",. c #959657",
"<. c #909258",
"1. c #979851",
"2. c #969959",
"3. c #9B9E57",
"4. c #939B64",
"5. c #9A9F63",
"6. c #9DA15A",
"7. c #9EA365",
"8. c #A1A55F",
"9. c #A3A963",
"0. c #A5AD6A",
"q. c #A8B16E",
"w. c #ADB572",
"e. c #AEB875",
"r. c #B0BB77",
"t. c #B1BC78",
"y. c None",
/* pixels */
"y.y.y.y.y.y.y.y.y.y.y.y.y.y.y.y.. . o o X X . . . . y.y.y.y.y.y.y.y.y.y.y.",
"y.y.y.y.y.y.y.y.y.y.y.y.y.y.y.. + 1 a x b b d w ; % . . y.y.y.y.y.y.y.y.y.",
"y.y.y.y.y.y.y.y.y.y.y.y.y.y.O = 1 S / &.>.1.%.T v 2 * @ O y.y.y.y.y.y.y.y.",
"y.y.y.y.y.y.y.y.y.y.y.y.y.y.o 9 @.@.@.>.q.r.9.#.#.W v @ . y.y.y.y.y.y.y.y.",
"y.y.y.y.y.y.y.y.y.y.y.y.y.y.. 9 #.#.1.0.r.t.r.9.>.O.Y * o y.y.y.y.y.y.y.y.",
"y.y.y.y.y.y.y.y.y.y.y.y.O . ; d ^ ^ *.0.r.t.q.9.>.#.O.r * .   y.y.y.y.y.y.",
"y.y.y.y.y.y.y.y.y.y.y.y.o o y D D A R &.q.e.9.#.#.#.O.T 7 o o y.y.y.y.y.y.",
"y.y.y.y.y.y.y.y.y.y.y.y.o o a D A y y z E %.:.#.#.#.#.O.p o o y.y.y.y.y.y.",
"y.y.y.y.y.y.y.y.y.y.y.y.. . c T D z r w l J I f d S ~ @.d X . y.y.y.y.y.y.",
"y.y.y.y.y.y.y.y.y.y.y.y.. o m ~ J D y < < y 8 o $ q D %.f . . y.y.y.y.y.y.",
"y.y.y.y.y.y.y.y.y.y.y.y.. . a R O.J l < < % + o o.X.a 5.C o . y.y.y.y.y.y.",
"y.y.y.y.y.y.y.y.y.y.y.y.. o - d R D v v F m x t u i G B 4 O . y.y.y.y.y.y.",
"y.y.y.y.y.y.y.y.y.y.y.. : 9 # ; l z v Z T ^ ^ [ H R / * o o o y.y.y.y.y.y.",
"y.y.y.y.y.y.y.y.y.y.y.O 0 t.g . + > < w < z [ t.r.8./ * . o o y.y.y.y.y.y.",
"y.y.y.y.y.y.y.y.y.y.y.O 7 1.V , + n z > % % 5 g ` Q E  .g o o y.y.y.y.y.y.",
"y.y.y.y.y.y.y.y.y.y.y.. 7 I [ H 1 A y & O . O O , y V 2.) o # y.y.y.y.y.y.",
"y.y.y.y.y.y.y.y.y.y.y.O < w ;.<.Z y - + . . . . . @ w R / y.y.y.y.y.y.y.y.",
"y.y.y.y.y.y.y.y.y.y.y.. , ! &.E w v v t + . . . O O + * : y.y.y.y.y.y.y.y.",
"y.y.y.y.y.y.y.y.y.. O 9 b ! F a - , v E ) M d < + . . . O y.y.y.y.y.y.y.y.",
"y.y.y.y.y.y.y.y.. # 7 m W c w > % = d ( 7.*.J > > y.y.y.y.y.y.y.y.y.y.y.y.",
"y.y.y.y.y.y.y.y.. 3 4.} l @ ; y A ! d ; G J a O O y.y.y.y.y.y.y.y.y.y.y.y.",
"y.y.y.y.y.y.y.y.. @ h U m o + - 2 F ' ] ~ A < O . . y.y.y.y.y.y.y.y.y.y.y.",
"y.y.y.y.y.y.y.y.o o o p S 1 : % O 9 ` =.P t ; ; 1 : . O y.y.y.y.y.y.y.y.y.",
"y.y.y.y.y.y.y.y.y.O O & l #.R t O . % > O o - D ( b . O y.y.y.y.y.y.y.y.y.",
"y.y.y.y.y.y.y.y.y.K P 2 , I ~ $...t % + O . 1 / d ; o O y.y.y.y.y.y.y.y.y.",
"y.y.y.y.y.y.y.y.y.K L 1 @ t } 6.2.t % % , @ = b : . y.y.y.y.y.y.y.y.y.y.y.",
"y.y.y.y.y.y.y.y.y.< < % o o ] <.E : * w v 1 @ o . y.y.y.y.y.y.y.y.y.y.y.y.",
"y.y.y.y.y.y.y.y.y.e < O @ > , 3 ; a < @ w S x . . y.y.y.y.y.y.y.y.y.y.y.y.",
"y.y.y.y.y.y.y.y.y.y.y.o + % O + : { j O @ 8 9 o O y.y.y.y.y.y.y.y.y.y.y.y.",
"y.y.y.y.y.y.y.y.y.y.y.o X O # = 8  .k o . . o y.y.y.y.y.y.y.y.y.y.y.y.y.y.",
"y.y.y.y.y.y.y.y.y.y.y.o . . t t O + O o o . + y.y.y.y.y.y.y.y.y.y.y.y.y.y.",
"y.y.y.y.y.y.y.y.y.O o % 2 n 8 % o . . o . o y.y.y.y.y.y.y.y.y.y.y.y.y.y.y.",
"y.y.y.y.y.y.y.y.. @ ; t n m : O % & , 1 @ . y.y.y.y.y.y.y.y.y.y.y.y.y.y.y.",
"y.y.y.y.y.y.y.y.O @ v ! K + O % w v R R # +   y.y.y.y.y.y.y.y.y.y.y.y.y.y.",
"y.y.y.y.y.y.y.y.O + % m ( P n 2 % 6 v E -.h O y.y.y.y.y.y.y.y.y.y.y.y.y.y.",
"y.y.y.y.y.y.y.y.y.. . 9 P 3.V s N : 8 Q q.N O y.y.y.y.y.y.y.y.y.y.y.y.y.y.",
"y.y.y.y.y.y.y.y.y.y.y.O 0 t.g k 0.4 o y.y.y.y.y.y.y.y.y.y.y.y.y.y.y.y.y.y."
};
