/* XPM */
static char *skel_2[] = {
/* columns rows colors chars-per-pixel */
"37 37 127 2",
"   c #000000",
".  c #0E0E0E",
"X  c #110F0F",
"o  c #10100F",
"O  c #121110",
"+  c #191612",
"@  c #1C1A14",
"#  c #1C1C19",
"$  c #2C110D",
"%  c #221C14",
"&  c #281F16",
"*  c #242116",
"=  c #242318",
"-  c #282017",
";  c #2A2418",
":  c #2B2A1A",
">  c #332519",
",  c #332C1C",
"<  c #3B2C1B",
"1  c #34311C",
"2  c #3B321E",
"3  c #2A2C21",
"4  c #2F3124",
"5  c #322F20",
"6  c #3A2F20",
"7  c #313323",
"8  c #3F3621",
"9  c #3D3B20",
"0  c #3D412D",
"q  c #492B19",
"w  c #41321E",
"e  c #402020",
"r  c #443520",
"t  c #433A22",
"y  c #4B3C23",
"u  c #782A15",
"i  c #7E3D1D",
"p  c #454223",
"a  c #4B4325",
"s  c #4B422A",
"d  c #4D4B26",
"f  c #4C4D2B",
"g  c #424530",
"h  c #464A32",
"j  c #4F4E33",
"k  c #4E5238",
"l  c #514125",
"z  c #554628",
"x  c #534B27",
"c  c #564A29",
"v  c #5A4B29",
"b  c #535129",
"n  c #5C542B",
"m  c #5D5A2C",
"M  c #545532",
"N  c #515539",
"B  c #575939",
"V  c #5C5732",
"C  c #5A5E3E",
"Z  c #604F2C",
"A  c #64542E",
"S  c #625B2D",
"D  c #69572F",
"F  c #685B2F",
"G  c #635C32",
"H  c #655E39",
"J  c #6B5D31",
"K  c #66632D",
"L  c #69602F",
"P  c #666533",
"I  c #6B6231",
"U  c #696638",
"Y  c #6B6831",
"T  c #706433",
"R  c #736B34",
"E  c #736A3A",
"W  c #786F36",
"Q  c #796F3E",
"!  c #777236",
"~  c #7A7236",
"^  c #7D7539",
"/  c #7A7836",
"(  c #7C7A3B",
")  c #636743",
"_  c #666A40",
"`  c #6C6840",
"'  c #727142",
"]  c #74784B",
"[  c #7C7544",
"{  c #797649",
"}  c #7F7E46",
"|  c #737950",
" . c #7A7E52",
".. c #7C8153",
"X. c #9F240E",
"o. c #A61706",
"O. c #827D3A",
"+. c #827C4B",
"@. c #85823B",
"#. c #88853C",
"$. c #808046",
"%. c #888444",
"&. c #8C8A44",
"*. c #8F8D4D",
"=. c #858653",
"-. c #868C5A",
";. c #8D8E59",
":. c #908F4F",
">. c #92924A",
",. c #959657",
"<. c #909258",
"1. c #979851",
"2. c #969959",
"3. c #9A9E57",
"4. c #939B64",
"5. c #9A9F63",
"6. c #9DA15A",
"7. c #9EA365",
"8. c #A0A45F",
"9. c #A3A963",
"0. c #A5AD6A",
"q. c #A9B16E",
"w. c #ADB572",
"e. c #AEB876",
"r. c #B0BB77",
"t. c #B1BC78",
"y. c None",
/* pixels */
"y.y.y.y.y.y.y.y.y.y.y.. . . X . o o o o . y.y.y.y.y.y.y.y.y.y.y.y.y.y.y.y.",
"y.y.y.y.y.y.y.y.y.. . % ; r d b b x a 7 + . y.y.y.y.y.y.y.y.y.y.y.y.y.y.y.",
"y.y.y.y.y.y.y.y.o @ * 2 v I %.>.>.#.^ A 1 = O y.y.y.y.y.y.y.y.y.y.y.y.y.y.",
"y.y.y.y.y.y.y.y.o @ v ! @.#.9.r.e.>.#.@.@.9 . y.y.y.y.y.y.y.y.y.y.y.y.y.y.",
"y.y.y.y.y.y.y.y.o * Y @.>.9.e.t.r.0.1.#.#.w . y.y.y.y.y.y.y.y.y.y.y.y.y.y.",
"y.y.y.y.y.y.  . ; w ( #.>.8.e.t.r.0.:.O.^ d = . O y.y.y.y.y.y.y.y.y.y.y.y.",
"y.y.y.y.y.y.. O 2 L @.#.#.#.9.e.q.&.R D D D y . o y.y.y.y.y.y.y.y.y.y.y.y.",
"y.y.y.y.y.y.o o p O.#.#.#.#.*.%.E c w y A D a . o y.y.y.y.y.y.y.y.y.y.y.y.",
"y.y.y.y.y.y.o o s @.~ m d d Y J y r q z A T c o o y.y.y.y.y.y.y.y.y.y.y.y.",
"y.y.y.y.y.y.o o f %.A q $ . r y w < l D J ~ m o . y.y.y.y.y.y.y.y.y.y.y.y.",
"y.y.y.y.y.y.. o C 7.s X.o.O + & < < y T O.E s O . y.y.y.y.y.y.y.y.y.y.y.y.",
"y.y.y.y.y.y.o o 4 B G i u r d V D z v J R a = O . y.y.y.y.y.y.y.y.y.y.y.y.",
"y.y.y.y.y.y.o o o = / E H [ O.~ E Z v z a = # 9 3 . y.y.y.y.y.y.y.y.y.y.y.",
"y.y.y.y.y.y.o o . = / 7.r.r.[ z < < w > + O g r.9 o y.y.y.y.y.y.y.y.y.y.y.",
"y.y.y.y.y.y.o o h ..E Q U g 5 % % > z n O , V 1.7 O y.y.y.y.y.y.y.y.y.y.y.",
"y.y.y.y.y.y.# o U 2.v a , O O o X % a A , U [ I 1 o y.y.y.y.y.y.y.y.y.y.y.",
"y.y.y.y.y.y.y.y./ R < % o . . o X @ ; w A <.;.w < o y.y.y.y.y.y.y.y.y.y.y.",
"y.y.y.y.y.y.y.y.: * @ O o . . . o w v v w E %.~ 1 o y.y.y.y.y.y.y.y.y.y.y.",
"y.y.y.y.y.y.y.y.o . . . + < a M ) E n < * a F W b 9 o . y.y.y.y.y.y.y.y.y.",
"y.y.y.y.y.y.y.y.y.y.y.y.> > J *.7.( d ; = > w z W m 4 = . y.y.y.y.y.y.y.y.",
"y.y.y.y.y.y.y.y.y.y.y.y.o + a J G : d ! A y > + z +.4.3 . y.y.y.y.y.y.y.y.",
"y.y.y.y.y.y.y.y.y.y.y.. . o < n ~ ] ' G 1 & + X n U h # . y.y.y.y.y.y.y.y.",
"y.y.y.y.y.y.y.y.y.O . : , ; ; 9 P =.U 8 + # : 2 m a . o . y.y.y.y.y.y.y.y.",
"y.y.y.y.y.y.y.y.y.O o b ( D ; o O > % O o t T #.l * o O y.y.y.y.y.y.y.y.y.",
"y.y.y.y.y.y.y.y.y.O O : s ( 1 o O + % 8 ..$.W T 1 2 P K y.y.y.y.y.y.y.y.y.",
"y.y.y.y.y.y.y.y.y.y.y.o : b * @ 5 - % t 2.6.+.r @ 1 F S y.y.y.y.y.y.y.y.y.",
"y.y.y.y.y.y.y.y.y.y.y.y.. . + 2 v r - : R 2.| O o % < , y.y.y.y.y.y.y.y.y.",
"y.y.y.y.y.y.y.y.y.y.y.y.. o b m w @ 1 a = : : > @ o < q y.y.y.y.y.y.y.y.y.",
"y.y.y.y.y.y.y.y.y.y.y.y.o o 9 8 % O j { : + + % + . y.y.y.y.y.y.y.y.y.y.y.",
"y.y.y.y.y.y.y.y.y.y.y.y.y.y.o o . . k  .6 - # . o . y.y.y.y.y.y.y.y.y.y.y.",
"y.y.y.y.y.y.y.y.y.y.y.y.y.y.O o . . O + O 8 t . o o y.y.y.y.y.y.y.y.y.y.y.",
"y.y.y.y.y.y.y.y.y.y.y.y.y.y.y.. . o . o . = 9 m < % . + y.y.y.y.y.y.y.y.y.",
"y.y.y.y.y.y.y.y.y.y.y.y.y.y.y.o + 1 1 ; @ o : m v t : @ . y.y.y.y.y.y.y.y.",
"y.y.y.y.y.y.y.y.y.y.y.y.y.y.  @ # E W v < & o + K ~ v @ o y.y.y.y.y.y.y.y.",
"y.y.y.y.y.y.y.y.y.y.y.y.y.y.o h -.E v 6 % 2 b Y @.m * + O y.y.y.y.y.y.y.y.",
"y.y.y.y.y.y.y.y.y.y.y.y.y.y.o N w.E r 5 N s V 3.P w . . y.y.y.y.y.y.y.y.y.",
"y.y.y.y.y.y.y.y.y.y.y.y.y.y.y.y.y.y.o 4 0.k g t.0 o y.y.y.y.y.y.y.y.y.y.y."
};
