/* XPM */
static char *skel_3[] = {
/* columns rows colors chars-per-pixel */
"37 37 96 2",
"   c #000000",
".  c #0E0E0E",
"X  c #100F0F",
"o  c #11110E",
"O  c #111110",
"+  c #191512",
"@  c #1C1A14",
"#  c #1B1B1B",
"$  c #221C15",
"%  c #291F17",
"&  c #232116",
"*  c #23221A",
"=  c #2A2016",
"-  c #2B2418",
";  c #2C2A1A",
":  c #312519",
">  c #332C1B",
",  c #392A1C",
"<  c #34331D",
"1  c #3C321E",
"2  c #3C3921",
"3  c #40301E",
"4  c #423620",
"5  c #423A22",
"6  c #4B3D23",
"7  c #454427",
"8  c #4B4325",
"9  c #48412C",
"0  c #4D4926",
"q  c #444831",
"w  c #4A4E35",
"e  c #524326",
"r  c #534728",
"t  c #544A28",
"y  c #584729",
"u  c #5B4C2A",
"i  c #544E31",
"p  c #545229",
"a  c #5A542A",
"s  c #525338",
"d  c #5C5334",
"f  c #595C3B",
"g  c #62532C",
"h  c #645B2F",
"j  c #645A35",
"k  c #695C30",
"l  c #65632F",
"z  c #68602F",
"x  c #61613B",
"c  c #6A6332",
"v  c #6A673F",
"b  c #6F693E",
"n  c #716433",
"m  c #736A34",
"M  c #736D3C",
"N  c #786F3A",
"B  c #747134",
"V  c #797336",
"C  c #7C7538",
"Z  c #7A7837",
"A  c #7F7C3B",
"S  c #6A6D43",
"D  c #736E44",
"F  c #767449",
"G  c #71784E",
"H  c #7A7042",
"J  c #7B7A4C",
"K  c #7E8151",
"L  c #817C39",
"P  c #85823C",
"I  c #88853D",
"U  c #808147",
"Y  c #84804C",
"T  c #8C8A42",
"R  c #898C4F",
"E  c #878C55",
"W  c #8A8B53",
"Q  c #8A8B58",
"!  c #8F9354",
"~  c #908E4F",
"^  c #91914A",
"/  c #949550",
"(  c #93965C",
")  c #979952",
"_  c #979B5E",
"`  c #939660",
"'  c #989D62",
"]  c #9FA565",
"[  c #A5AB66",
"{  c #A5AD69",
"}  c #A8B06B",
"|  c #ADB572",
" . c #AEB975",
".. c #B0BB77",
"X. c #B2BD79",
"o. c None",
/* pixels */
"o.o.o.o.o.o.o.o.o.o.o.o.o.o.o.. . . . . . . o.o.o.o.o.o.o.o.o.o.o.o.o.o.o.",
"o.o.o.o.o.o.o.o.o.o.o.o.. . . < p p p t p < . . . o.o.o.o.o.o.o.o.o.o.o.o.",
"o.o.o.o.o.o.o.o.o.o.o.. @ & ; p I ^ ^ ^ I p ; = @ . o.o.o.o.o.o.o.o.o.o.o.",
"o.o.o.o.o.o.o.o.o.o.o.. = g V P T }  .} T P V g = . o.o.o.o.o.o.o.o.o.o.o.",
"o.o.o.o.o.o.o.o.o.o.o.- 5 C P ^ {  .X. .{ ^ I Z 5 - o.o.o.o.o.o.o.o.o.o.o.",
"o.o.o.o.o.o.o.o.o.. O : e I I ^ [  .X. .[ ^ I I e > X X o.o.o.o.o.o.o.o.o.",
"o.o.o.o.o.o.o.o.o.O o = y I I I T }  .{ I I I I e = X X o.o.o.o.o.o.o.o.o.",
"o.o.o.o.o.o.o.o.o.o . 1 k I I I I ^ ^ ^ I I I I k 2 X O o.o.o.o.o.o.o.o.o.",
"o.o.o.o.o.o.o.o.o.O . > g I I I I I I I I I I P g > X O o.o.o.o.o.o.o.o.o.",
"o.o.o.o.o.o.o.o.o.O X % 6 L P T ^ T ^ ~ ^ T P L e % X O o.o.o.o.o.o.o.o.o.",
"o.o.o.o.o.o.o.o.o.O . % 6 k A ) | | | | | ) L k 4 % X X o.o.o.o.o.o.o.o.o.",
"o.o.o.o.o.o.o.o.o.O . % 3 6 k c f J Y J f c k 6 3 % X O o.o.o.o.o.o.o.o.o.",
"o.o.o.o.o.o.  . . . . # - : 5 , + r g 3 + > 4 - - $ . . . .   o.o.o.o.o.o.",
"o.o.o.o.o.o.. . . . . . X . o o + t r , O . O X X . . X X . . o.o.o.o.o.o.",
"o.o.o.o.o.o.X X q G * . . . $ $ @ K ( F @ $ $ X X X * G q X X o.o.o.o.o.o.",
"o.o.o.o.o.o.# . w S 7 2 - $ 3 t 7 F ( / 7 0 6 $ * 2 7 S w . # o.o.o.o.o.o.",
"o.o.o.o.o.o.  . + - L n e , c L Z r c T L L z > e n J ; + .   o.o.o.o.o.o.",
"o.o.o.o.o.o.O . > j [ f @ + , 6 r Q { _ t < = + @ f ] j > o O o.o.o.o.o.o.",
"o.o.o.o.o.o.X o 2 V F i 5 0 v M k / E D h x f 0 > 6 F V 2 X O o.o.o.o.o.o.",
"o.o.o.o.o.. O $ t Z 1 8 a m E E C T M i m E E m 6 > , C p $ o . o.o.o.o.o.",
"o.o.o.o.o.X O 8 m B $ - > + @ : 6 ' | ` 6 - @ @ ; - # B m 0 O . o.o.o.o.o.",
"o.X X . . . @ G S < + + $ % + O - Y Y d = O + % $ + O 2 b F + . X X . . o.",
"o.. O + ; 2 2 J s . . . + - - @ + a a 2 O # - - + . X . s J 2 < ; @ O X o.",
"o.X + , c P P 8 $ . X X X X 8 6 O : e y + 6 8 X . X X X $ 6 P I c , + X o.",
"o.. $ y k d > @ + X # X ; l ! J t z V m t J ! l - X # O + $ ; a j y $ X o.",
"o.X $ 2 5 > O O X . X - 2 p R ~ m z z z m R E p 1 ; . . O . O > 4 2 $ O o.",
"o.o.. X . . o.o.X O O 4 6 O a Z B 6 3 8 B Z a o 8 3 + o O o.o.X X . . o.o.",
"o.o.+ X O O o.o.. + : , > X @ * ; y u e ; = @ X > , - + X o.o.O O O + o.o.",
"o.o.o.o.o.o.o.o.X @ 6 > @ . X . o > , ; O X X . @ , 6 @ X o.o.o.o.o.o.o.o.",
"o.o.o.o.o.o.o.o.X @ 6 2 ; & @ X X X o o X X @ & ; 1 8 @ X o.o.o.o.o.o.o.o.",
"o.o.o.o.o.o.o.o.  O O p B g - . X . . X X X = g B p O O   o.o.o.o.o.o.o.o.",
"o.o.o.o.o.o.o.o.o.X X < 0 V > X o.o.o.o.o.X > Z 0 < X X o.o.o.o.o.o.o.o.o.",
"o.o.o.o.o.o.o.o.o.O . + 2 / a > X . o.X O > p ) 2 $ . X o.o.o.o.o.o.o.o.o.",
"o.o.o.o.o.o.o.o.  o o - j | / p . X o.X O p ^  .f % O o   o.o.o.o.o.o.o.o.",
"o.o.o.o.o.o.o.o.. @ 6 3 6 H 7 ; O + o.O O ; 7 H 6 4 6 @ . o.o.o.o.o.o.o.o.",
"o.o.o.o.o.o.  X < 7 e e u m ; . o.o.o.o.o.X ; M u 8 e 8 < .   o.o.o.o.o.o.",
"o.o.o.o.o.o.X X 8 C 4 e n T < X o.o.o.o.o.X < I n y 4 C 8 X . o.o.o.o.o.o."
};
