/* XPM */
static char *skel_1[] = {
/* columns rows colors chars-per-pixel */
"37 37 109 2",
"   c #000000",
".  c #0E0E0E",
"X  c #110E0E",
"o  c #10100F",
"O  c #111110",
"+  c #1A1612",
"@  c #1C1913",
"#  c gray10",
"$  c #211D15",
"%  c #242116",
"&  c #262518",
"*  c #26281E",
"=  c #2A2016",
"-  c #292418",
";  c #2C2919",
":  c #332B1C",
">  c #3D2F1E",
",  c #32311D",
"<  c #3C331F",
"1  c #39381F",
"2  c #2C2F23",
"3  c #323223",
"4  c #3D3520",
"5  c #3E3D21",
"6  c #3D3F2C",
"7  c #3F422E",
"8  c #42120C",
"9  c #42311F",
"0  c #433420",
"q  c #423B21",
"w  c #4B3D24",
"e  c #711F0F",
"r  c #781E0E",
"t  c #464323",
"y  c #4B4325",
"u  c #48442A",
"i  c #4C4B26",
"p  c #4A4A2A",
"a  c #454931",
"s  c #4E4B30",
"d  c #4C5137",
"f  c #534226",
"g  c #564628",
"h  c #544929",
"j  c #584728",
"k  c #5C4D2A",
"l  c #5B4C31",
"z  c #54512B",
"x  c #5D532B",
"c  c #5D582C",
"v  c #555638",
"b  c #565B3D",
"n  c #585C3E",
"m  c #63532D",
"M  c #62592C",
"N  c #635D32",
"B  c #655E3C",
"V  c #63612F",
"C  c #666432",
"Z  c #6C6332",
"A  c #69653F",
"S  c #6B6932",
"D  c #706433",
"F  c #756B35",
"G  c #767336",
"H  c #71713B",
"J  c #787138",
"K  c #5C6141",
"L  c #606442",
"P  c #676944",
"I  c #696B42",
"U  c #6D7046",
"Y  c #6A714A",
"T  c #766E42",
"R  c #717049",
"E  c #7B7444",
"W  c #7B7A4D",
"Q  c #767B50",
"!  c #7E804F",
"~  c #B9290F",
"^  c #817C3A",
"/  c #817B41",
"(  c #84813B",
")  c #88853C",
"_  c #888444",
"`  c #89874B",
"'  c #8D8C43",
"]  c #888948",
"[  c #818556",
"{  c #808758",
"}  c #8B8A53",
"|  c #8C9157",
" . c #88905D",
".. c #94964E",
"X. c #91945B",
"o. c #999E5B",
"O. c #959A61",
"+. c #9A9F66",
"@. c #9EA35F",
"#. c #9DA566",
"$. c #9DA66B",
"%. c #A1A660",
"&. c #A3A963",
"*. c #A3AB6A",
"=. c #AAB16C",
"-. c #ACB673",
";. c #AEB873",
":. c #B2BD79",
">. c None",
/* pixels */
">.>.>.>.>.>.>.>.>.>.>.>.>.>.>.>.>.>.>.>.>.>.>.>.>.>.>.>.>.>.>.>.>.>.>.>.>.",
">.>.>.>.>.>.>.>.>.>.>.>.>.>.>.. . O O . . . >.>.>.>.>.>.>.>.>.>.>.>.>.>.>.",
">.>.>.>.>.>.>.>.>.>.>.>.>.. . & 5 q 5 5 5 & . . >.>.>.>.>.>.>.>.>.>.>.>.>.",
">.>.>.>.>.>.>.>.>.>.>.  . @ @ 1 ) ' ' ' ) 1 @ @ .   >.>.>.>.>.>.>.>.>.>.>.",
">.>.>.>.>.>.>.>.>.>.>.O . w Z ^ ) *.;.&.) ^ Z w . O >.>.>.>.>.>.>.>.>.>.>.",
">.>.>.>.>.>.>.>.>.>.>.X . M ^ ' &.;.:.;.*.' ^ c . . >.>.>.>.>.>.>.>.>.>.>.",
">.>.>.>.>.>.>.>.>.>.O O $ M ^ ' %.;.:.;.%.' ^ M $ O . >.>.>.>.>.>.>.>.>.>.",
">.>.>.>.>.>.>.>.>.>.O + 9 g F ) ) %.=.&.) ) F j 9 + O >.>.>.>.>.>.>.>.>.>.",
">.>.>.>.>.>.>.>.>.>.O @ m 0 M ) ) ) ' ' ) _ m w m $ O >.>.>.>.>.>.>.>.>.>.",
">.>.>.>.>.>.>.>.>.>.O @ 0 = - t D ^ ) ^ D q - $ 0 + O >.>.>.>.>.>.>.>.>.>.",
">.>.>.>.>.>.>.>.>.>.. O $ + 8 r f ` o.` g e 8 + $ o o >.>.>.>.>.>.>.>.>.>.",
">.>.>.>.>.>.>.>.>.>.. + & % r ~ h [ O.[ h ~ r % - + O >.>.>.>.>.>.>.>.>.>.",
">.>.>.>.>.>.>.>.>.>.O & ^ Z f l -.6 + 6 ;.l f Z ^ & O >.>.>.>.>.>.>.>.>.>.",
">.>.>.>.>.>.>.O . . o @ , W O.X...3 . , ..X.O./ , @ . o . O >.>.>.>.>.>.>.",
">.>.>.>.>.>.>.O . a a O o d Q ` ) A K P ) ` Q d o o a a . O >.>.>.>.>.>.>.",
">.>.>.>.>.>.>.. . Y L ; % + < Z S o.#.| ) m ; + % & L Y . . >.>.>.>.>.>.>.",
">.>.>.>.>.>.>.    o t ^ m - t S O S i , ) ; . - N ^ u o     >.>.>.>.>.>.>.",
">.>.>.>.>.>.>.. o 4 q ; - q 5 & . 1 & + ; + ; q - ; q 4 . . >.>.>.>.>.>.>.",
">.>.>.>.>.>.>.O . z g $ . ; 5 z L U I P L h t ; O $ j k . O >.>.>.>.>.>.>.",
">.>.>.>.>.>.O . . c m $ . $ t H  .#.=.$. .H t @ . $ x c . O O >.>.>.>.>.>.",
">.>.>.>.    . . o w 0 O o y < o O S ) S o o < y . . 4 w o . .     >.>.>.>.",
">.>.>.O . O . @ y ; @ . o @ < k S o.=.o.S k < @ . X # : y @ . . O O >.>.>.",
">.>.. $ i q s L f @ . . o o % < u A W E t 1 @ o . . . $ f L s q i @ . >.>.",
">.>.. & ` D T } : + . O o ; ; $ @ > j g @ % : ; . O O + : } T Z ] % . >.>.",
">.>.. 2 $.B w h + o   O O V F m 9 k m k 9 k J C O O   O O j y B $.2 . >.>.",
">.>.. O 2 R P $ O O . @ g , z _ +.m 9 l +._ z , g $ . . + @ P Q 2 O . >.>.",
">.>.O . . a a O   O a I J ; & p n N M N b p & ; J U a .   . a a . . O >.>.",
">.>.>.# . . . >.>.X n *.C & o o . i V i . . . - C *.b . >.>.. . . + >.>.>.",
">.>.>.>.>.>.>.>.>.O b  .@ O . . . . . . . . . O #  .b . >.>.>.>.>.>.>.>.>.",
">.>.>.>.>.>.>.>.>.. * 3 j @ . . O O . O O X . $ g 3 2 O >.>.>.>.>.>.>.>.>.",
">.>.>.>.>.>.>.>.>.>.O @ : - # X   >.>.>.  O + = ; @ . >.>.>.>.>.>.>.>.>.>.",
">.>.>.>.>.>.>.>.>.>.. O X q q - X . >.. X - q q . X . >.>.>.>.>.>.>.>.>.>.",
">.>.>.>.>.>.>.>.>.O O # @ S F y O O >.O X y J S @ + O O >.>.>.>.>.>.>.>.>.",
">.>.>.>.>.>.>.>.>.O : x G ^ z @ X # >.# X @ z ^ G x : . >.>.>.>.>.>.>.>.>.",
">.>.>.>.>.>.>.O O K b a %.^ q o   >.>.>.  O q ^ #.u v K O O >.>.>.>.>.>.>.",
">.>.>.>.>.>.>.O . ! Y 3 -.E < .   >.>.>.  . < E -.3 Y { . O >.>.>.>.>.>.>.",
">.>.>.>.>.>.>.>.>.>.>.>.>.>.>.>.>.>.>.>.>.>.>.>.>.>.>.>.>.>.>.>.>.>.>.>.>."
};
